<?xml version="1.0" encoding="UTF-8" standalone="no"?>
<!-- Created with Inkscape (http://www.inkscape.org/) -->

<svg
   xmlns:dc="http://purl.org/dc/elements/1.1/"
   xmlns:cc="http://creativecommons.org/ns#"
   xmlns:rdf="http://www.w3.org/1999/02/22-rdf-syntax-ns#"
   xmlns:svg="http://www.w3.org/2000/svg"
   xmlns="http://www.w3.org/2000/svg"
   xmlns:sodipodi="http://sodipodi.sourceforge.net/DTD/sodipodi-0.dtd"
   xmlns:inkscape="http://www.inkscape.org/namespaces/inkscape"
   width="48.429367mm"
   height="26.52536mm"
   viewBox="0 0 48.429366 26.525359"
   version="1.1"
   id="svg8"
   inkscape:version="0.92.3 (2405546, 2018-03-11)"
   sodipodi:docname="adafruit.svg">
  <defs
     id="defs2" />
  <sodipodi:namedview
     id="base"
     pagecolor="#ffffff"
     bordercolor="#666666"
     borderopacity="1.0"
     inkscape:pageopacity="0.0"
     inkscape:pageshadow="2"
     inkscape:zoom="0.98994949"
     inkscape:cx="37.303118"
     inkscape:cy="-185.33615"
     inkscape:document-units="mm"
     inkscape:current-layer="layer1"
     showgrid="false"
     fit-margin-top="0"
     fit-margin-left="0"
     fit-margin-right="0"
     fit-margin-bottom="10"
     inkscape:window-width="1680"
     inkscape:window-height="987"
     inkscape:window-x="-8"
     inkscape:window-y="-8"
     inkscape:window-maximized="1" />
  <metadata
     id="metadata5">
    <rdf:RDF>
      <cc:Work
         rdf:about="">
        <dc:format>image/svg+xml</dc:format>
        <dc:type
           rdf:resource="http://purl.org/dc/dcmitype/StillImage" />
        <dc:title></dc:title>
      </cc:Work>
    </rdf:RDF>
  </metadata>
  <g
     inkscape:label="Layer 1"
     inkscape:groupmode="layer"
     id="layer1"
     transform="translate(-69.297753,-221.96626)">
    <path
       style="fill:#000000;stroke-width:0.16933334"
       d="m 78.851815,237.40236 c -1.842581,-1.37593 -2.20256,-1.77982 -2.468844,-2.76992 -0.119697,-0.44507 -0.222775,-0.68171 -0.22906,-0.52587 -0.01611,0.3994 -0.800999,1.2871 -1.421938,1.6082 -0.698043,0.36098 -3.316848,1.24113 -3.692843,1.24113 -0.641313,0 -0.632671,-0.50264 0.04324,-2.51453 0.671195,-1.99787 1.161888,-2.758 2.012113,-3.11695 0.421023,-0.17775 0.420099,-0.17933 -0.169334,-0.29027 -0.75865,-0.14279 -1.159998,-0.36728 -1.723472,-0.96401 -0.882448,-0.93454 -2.171194,-2.84882 -2.171194,-3.22506 0,-0.52399 0.474813,-0.61403 2.7738,-0.52603 1.607516,0.0615 2.004341,0.13331 2.528751,0.45741 0.342112,0.21144 0.691012,0.50771 0.775335,0.65839 0.101493,0.18135 0.124439,0.0178 0.06789,-0.48394 -0.05261,-0.46675 0.0094,-0.98495 0.161536,-1.34896 0.315312,-0.75465 2.263967,-3.48632 2.571049,-3.60415 0.436214,-0.1674 0.743881,0.30949 1.266963,1.96379 0.582673,1.84276 0.676075,3.21728 0.259077,3.81263 -0.302287,0.43157 -0.172278,0.46831 0.432935,0.12234 0.683095,-0.39049 1.656534,-0.28761 3.640667,0.38478 2.450641,0.83048 2.486539,0.98235 0.559711,2.36796 -1.848231,1.32908 -2.339452,1.56526 -3.255532,1.56526 h -0.765306 l 0.422522,0.62262 c 0.575919,0.84867 0.603489,1.02195 0.547547,3.44138 -0.06077,2.62834 -0.1139,2.65591 -2.165609,1.1238 z m -0.508633,-4.46813 c -3.56e-4,-0.25612 -0.151628,-0.71332 -0.336178,-1.016 -0.562911,-0.92324 -1.226602,-0.61342 -0.843647,0.39382 0.401822,1.05688 1.180974,1.46776 1.179825,0.62218 z m -2.6071,-0.61807 c 0.636152,-0.63615 0.748115,-1.1176 0.259902,-1.1176 -0.408306,0 -1.19803,0.62277 -1.371729,1.08172 -0.305111,0.80619 0.321305,0.82641 1.111827,0.0359 z m 3.911665,-1.82309 c 0.121037,-0.10045 0.220068,-0.28761 0.220068,-0.41591 0,-0.28349 -1.373029,-0.32598 -1.873799,-0.058 -0.370745,0.19842 -0.433428,0.59664 -0.115868,0.73612 0.302486,0.13285 1.508971,-0.0459 1.769599,-0.26224 z m -3.505265,-0.31859 c 0,-0.30641 -0.851085,-0.98198 -1.384783,-1.0992 -0.547917,-0.12034 -0.932727,0.10498 -0.73252,0.42892 0.368281,0.59589 2.117303,1.14958 2.117303,0.67028 z m 1.27864,-0.91781 c 0.285488,-0.68327 0.310299,-1.25544 0.06999,-1.61411 -0.287925,-0.42974 -0.840633,0.39906 -0.840633,1.26054 0,1.11822 0.378577,1.29191 0.77064,0.35357 z m 5.512436,8.93298 c -0.340851,-0.27601 -0.400187,-0.47259 -0.392742,-1.30121 0.01292,-1.4383 0.244812,-1.62588 2.009911,-1.62588 h 1.413088 v -0.58499 c 0,-0.53104 -0.05302,-0.59494 -0.574836,-0.69283 -0.579792,-0.10877 -1.287831,0.13155 -1.287831,0.43711 0,0.0899 -0.3048,0.16338 -0.677333,0.16338 -0.627646,0 -0.677333,-0.0345 -0.677333,-0.47032 0,-0.25868 0.118621,-0.63968 0.263601,-0.84667 0.243786,-0.34805 0.396548,-0.37634 2.032,-0.37634 2.481937,0 2.445732,-0.0464 2.445732,3.13266 v 2.45534 h -0.762 c -0.667378,0 -0.762,-0.0453 -0.762,-0.36491 0,-0.35643 -0.008,-0.35765 -0.345012,-0.0527 -0.522608,0.47295 -2.162398,0.55071 -2.685245,0.12734 z m 2.762407,-0.99787 c 0.160284,-0.0615 0.26785,-0.30291 0.26785,-0.60112 v -0.49833 l -0.972021,0.0508 c -0.998833,0.0522 -1.239042,0.27125 -0.994948,0.90735 0.09647,0.25138 1.177899,0.34133 1.699119,0.14132 z m 3.197784,1.08543 c -0.523198,-0.25278 -0.728601,-0.98331 -0.728601,-2.59131 0,-1.54244 0.217626,-2.37864 0.684012,-2.62824 0.47993,-0.25685 2.062694,-0.19089 2.448655,0.10205 0.329809,0.25032 0.340882,0.22471 0.423333,-0.97905 l 0.08467,-1.2361 0.719667,-0.0521 0.719666,-0.0521 v 3.81974 3.81974 h -0.762 c -0.647231,0 -0.762,-0.0506 -0.762,-0.33618 0,-0.33522 -0.0015,-0.33522 -0.550333,-6.8e-4 -0.59804,0.36463 -1.669364,0.42774 -2.277066,0.13413 z m 2.298233,-1.08848 0.529166,-0.10583 v -1.41494 c 0,-1.34594 -0.0195,-1.41984 -0.399902,-1.51531 -0.219946,-0.0552 -0.658096,-0.0757 -0.973667,-0.0456 l -0.573764,0.0548 -0.04974,1.32838 c -0.06605,1.76373 0.111919,1.96965 1.467912,1.69845 z m 3.050187,0.93352 c -0.305362,-0.30536 -0.346862,-0.50673 -0.283882,-1.37742 0.09697,-1.34064 0.298884,-1.48227 2.113226,-1.48227 h 1.406969 v -0.50204 c 0,-0.33711 -0.11712,-0.56472 -0.356498,-0.69283 -0.459719,-0.24604 -1.506169,-0.0576 -1.506169,0.27121 0,0.17906 -0.208106,0.24633 -0.762,0.24633 -0.54908,0 -0.762,-0.0679 -0.762,-0.24298 0,-0.38036 0.338829,-1.17609 0.560927,-1.31731 0.269533,-0.17139 3.530586,-0.16413 3.8025,0.008 0.383168,0.2432 0.54724,1.2539 0.54724,3.37105 v 2.07545 h -0.762 c -0.647231,0 -0.762,-0.0506 -0.762,-0.33618 0,-0.33522 -0.0015,-0.33522 -0.550334,-6.8e-4 -0.77782,0.47425 -2.201944,0.4632 -2.685979,-0.0208 z m 3.033113,-1.03089 c 0.11176,-0.11176 0.2032,-0.38226 0.2032,-0.60111 0,-0.37742 -0.05015,-0.3953 -0.973667,-0.34714 -0.962618,0.0502 -0.974269,0.057 -1.026729,0.60112 l -0.05306,0.55033 h 0.823529 c 0.452941,0 0.914969,-0.0914 1.026729,-0.2032 z m 2.252079,-1.78646 c 0.0093,-1.74625 0.06954,-3.3655 0.133892,-3.59834 0.133318,-0.48231 0.913657,-0.82191 1.923557,-0.83711 0.61245,-0.009 0.635,0.0111 0.635,0.57239 0,0.53277 -0.0465,0.58642 -0.55033,0.635 -0.4218,0.0407 -0.56297,0.14204 -0.60444,0.43406 -0.0474,0.33406 0.0204,0.381 0.55033,0.381 0.5779,0 0.60444,0.026 0.60444,0.59266 0,0.56445 -0.0282,0.59267 -0.59266,0.59267 h -0.59267 v 2.20133 2.20134 h -0.762 -0.761998 z m 3.369789,0.381 v -2.794 h 0.762 c 0.65748,0 0.762,0.048 0.762,0.35019 v 0.3502 l 0.49181,-0.3502 c 0.27049,-0.1926 0.68959,-0.35019 0.93133,-0.35019 0.40727,0 0.43953,0.0553 0.43953,0.75315 v 0.75315 l -0.889,0.0512 -0.889,0.0512 -0.0477,1.98967 -0.0477,1.98967 h -0.75662 -0.75663 z m 4.65667,2.59165 c -0.18627,-0.10562 -0.39465,-0.27475 -0.46308,-0.37585 -0.0684,-0.10109 -0.12557,-1.26965 -0.127,-2.5968 l -0.003,-2.413 h 0.75679 0.75679 l 0.0475,2.05622 c 0.0546,2.36124 0.14786,2.5277 1.26196,2.25255 l 0.64826,-0.16011 0.0475,-2.07433 0.0476,-2.07433 h 0.76098 0.76098 l -0.0465,2.75166 -0.0465,2.75167 -0.71967,0.0521 c -0.63035,0.0456 -0.71967,0.009 -0.71967,-0.29633 0,-0.42908 -0.0282,-0.42949 -0.71557,-0.0104 -0.6116,0.37289 -1.71332,0.44002 -2.24776,0.13696 z m 4.99533,-2.59165 v -2.794 h 0.762 0.762 v 2.794 2.794 h -0.762 -0.762 z m 2.48158,2.48433 c -0.23787,-0.26284 -0.28024,-0.74935 -0.28024,-3.21733 v -2.90767 h 0.762 c 0.69991,0 0.762,0.0345 0.762,0.42333 0,0.37092 0.0734,0.42334 0.59266,0.42334 0.56445,0 0.59267,0.0282 0.59267,0.59266 0,0.56565 -0.0273,0.59267 -0.59902,0.59267 h -0.59902 l 0.0487,1.56633 0.0487,1.56634 0.55034,0.0531 c 0.47824,0.0461 0.55033,0.11561 0.55033,0.53058 0,0.53851 -0.30147,0.6802 -1.45542,0.68405 -0.45898,0.002 -0.78818,-0.10239 -0.97367,-0.30736 z m -2.44997,-6.67533 c 0.0498,-0.51656 0.0972,-0.55353 0.77273,-0.60241 l 0.71966,-0.0521 v 0.60241 c 0,0.60231 -1.2e-4,0.6024 -0.77273,0.6024 -0.76979,0 -0.77252,-0.002 -0.71966,-0.55033 z"
       id="path92"
       inkscape:connector-curvature="0" />
  </g>
</svg>
