<?xml version="1.0" encoding="UTF-8" standalone="no"?>
<!-- Created with Inkscape (http://www.inkscape.org/) -->

<svg
   xmlns:dc="http://purl.org/dc/elements/1.1/"
   xmlns:cc="http://creativecommons.org/ns#"
   xmlns:rdf="http://www.w3.org/1999/02/22-rdf-syntax-ns#"
   xmlns:svg="http://www.w3.org/2000/svg"
   xmlns="http://www.w3.org/2000/svg"
   xmlns:sodipodi="http://sodipodi.sourceforge.net/DTD/sodipodi-0.dtd"
   xmlns:inkscape="http://www.inkscape.org/namespaces/inkscape"
   width="59.418781mm"
   height="59.439827mm"
   viewBox="0 0 59.41878 59.439824"
   version="1.1"
   id="svg8"
   inkscape:version="0.92.3 (2405546, 2018-03-11)"
   sodipodi:docname="adaflower.svg">
  <defs
     id="defs2" />
  <sodipodi:namedview
     id="base"
     pagecolor="#ffffff"
     bordercolor="#666666"
     borderopacity="1.0"
     inkscape:pageopacity="0.0"
     inkscape:pageshadow="2"
     inkscape:zoom="0.98994949"
     inkscape:cx="54.508343"
     inkscape:cy="-106.17116"
     inkscape:document-units="mm"
     inkscape:current-layer="layer1"
     showgrid="false"
     fit-margin-top="0"
     fit-margin-left="0"
     fit-margin-right="0"
     fit-margin-bottom="0"
     inkscape:window-width="1680"
     inkscape:window-height="987"
     inkscape:window-x="-8"
     inkscape:window-y="-8"
     inkscape:window-maximized="1" />
  <metadata
     id="metadata5">
    <rdf:RDF>
      <cc:Work
         rdf:about="">
        <dc:format>image/svg+xml</dc:format>
        <dc:type
           rdf:resource="http://purl.org/dc/dcmitype/StillImage" />
        <dc:title></dc:title>
      </cc:Work>
    </rdf:RDF>
  </metadata>
  <g
     inkscape:label="Layer 1"
     inkscape:groupmode="layer"
     id="layer1"
     transform="translate(-64.745537,-209.99753)">
    <path
       style="fill:#000000;stroke-width:0.26458332"
       d="m 100.39288,265.56878 c -7.360959,-5.35079 -8.678314,-6.9746 -8.989284,-11.08038 l -0.160314,-2.11667 -0.485351,1.45521 c -0.797026,2.3897 -2.247452,4.0582 -4.803511,5.52572 -1.256106,0.72118 -12.108896,4.44929 -13.229166,4.54444 -1.529728,0.12993 -2.513542,-0.63423 -2.513542,-1.95234 0,-1.45416 3.899753,-12.69174 4.987374,-14.37169 1.519775,-2.34745 4.081765,-4.30382 5.662105,-4.32365 0.254662,-0.003 0.463021,-0.10425 0.463021,-0.22457 0,-0.12032 -0.340736,-0.16875 -0.757191,-0.10763 -1.125828,0.16524 -3.954151,-0.64375 -5.319425,-1.52152 -0.659684,-0.42413 -1.691473,-1.28318 -2.292864,-1.90901 -1.073274,-1.11689 -7.404154,-9.617 -8.020532,-10.76872 -0.400481,-0.7483 -0.13997,-1.94782 0.560043,-2.5787 0.504446,-0.45462 1.04941,-0.48605 7.459482,-0.4302 4.078233,0.0355 7.458015,0.18608 8.238195,0.36696 2.480192,0.57501 4.659542,1.99571 6.041506,3.93841 0.36176,0.50855 0.430375,0.53913 0.29681,0.1323 -0.939342,-2.86122 -0.695693,-5.55745 0.759961,-8.40974 1.062432,-2.0818 7.436,-10.92659 8.265244,-11.46993 0.744442,-0.48778 1.971822,-0.29244 2.612792,0.41583 0.24002,0.26521 1.337977,3.26479 2.439917,6.66573 1.89706,5.85493 2.00475,6.31709 2.02644,8.69706 0.0249,2.73194 -0.40714,4.13436 -1.87027,6.07085 l -0.71068,0.94061 1.01443,-0.76489 c 1.77126,-1.33554 3.45105,-1.8375 6.11135,-1.82622 2.19868,0.009 2.7971,0.14438 7.80521,1.76149 7.34259,2.37091 7.54422,2.45338 7.89815,3.23018 0.46929,1.02998 0.3676,1.62374 -0.42368,2.47375 -1.03567,1.11255 -9.35024,7.03501 -11.1567,7.94691 -2.78448,1.4056 -5.43163,1.62122 -8.35632,0.68067 -0.40823,-0.13129 -0.378,-0.0633 0.1323,0.29756 2.16236,1.52907 3.48018,3.66796 4.12026,6.6874 0.46428,2.19014 0.53004,13.68193 0.0839,14.66111 -0.3085,0.6771 -1.24355,1.23225 -2.07548,1.23225 -0.27074,0 -2.88712,-1.74086 -5.81417,-3.86858 z m -1.464397,-13.24432 c 1.133457,-1.13347 -0.3164,-5.76149 -2.442111,-7.79532 -1.244804,-1.191 -1.996829,-1.44848 -2.566573,-0.87874 -1.36398,1.36398 0.722731,6.80328 3.26969,8.5229 1.055962,0.71295 1.167508,0.72264 1.738994,0.15116 z M 87.271038,249.5975 c 2.306891,-1.42573 4.853669,-5.26157 4.193624,-6.31623 -1.017356,-1.62559 -5.492036,1.07288 -7.087207,4.27397 -0.816211,1.63793 -0.839522,2.15561 -0.119766,2.65974 0.642537,0.45005 1.605244,0.25278 3.013349,-0.61748 z m 15.235062,-7.83813 c 2.66833,-0.79241 3.73191,-2.5674 2.05729,-3.43339 -1.37596,-0.71153 -5.249797,-0.42933 -7.199266,0.52446 -1.876322,0.91799 -2.3837,1.76281 -1.555882,2.59062 1.034206,1.03421 3.838411,1.16748 6.697858,0.31831 z m -12.168661,-1.1709 c 1.425662,-0.76299 -0.264842,-3.13826 -3.290572,-4.62348 -2.439385,-1.19739 -4.038465,-1.43312 -4.913755,-0.72435 -0.592452,0.47974 -0.614422,0.58038 -0.295031,1.35145 1.010295,2.43907 6.54584,5.04187 8.499358,3.99638 z m 4.885775,-3.556 c 1.28058,-2.61742 1.442093,-6.27996 0.338788,-7.68259 -0.666803,-0.8477 -1.010407,-0.82932 -1.902439,0.10176 -1.872983,1.95497 -2.389235,7.9914 -0.787686,9.21022 0.683806,0.52039 1.615385,-0.12516 2.351337,-1.62939 z"
       id="path105"
       inkscape:connector-curvature="0" />
  </g>
</svg>
