<?xml version="1.0" encoding="UTF-8" standalone="no"?>
<!-- Generator: Adobe Illustrator 13.0.0, SVG Export Plug-In . SVG Version: 6.00 Build 14948)  -->

<svg
   xmlns:dc="http://purl.org/dc/elements/1.1/"
   xmlns:cc="http://creativecommons.org/ns#"
   xmlns:rdf="http://www.w3.org/1999/02/22-rdf-syntax-ns#"
   xmlns:svg="http://www.w3.org/2000/svg"
   xmlns="http://www.w3.org/2000/svg"
   xmlns:sodipodi="http://sodipodi.sourceforge.net/DTD/sodipodi-0.dtd"
   xmlns:inkscape="http://www.inkscape.org/namespaces/inkscape"
   version="1.1"
   id="VARG"
   x="0px"
   y="0px"
   width="450"
   height="125"
   viewBox="0 0 450 125"
   enable-background="new 0 0 320.828 81.5"
   xml:space="preserve"
   sodipodi:docname="Agfa_logo.svg"
   inkscape:version="0.92.3 (2405546, 2018-03-11)"><metadata
   id="metadata29"><rdf:RDF><cc:Work
       rdf:about=""><dc:format>image/svg+xml</dc:format><dc:type
         rdf:resource="http://purl.org/dc/dcmitype/StillImage" /><dc:title></dc:title></cc:Work></rdf:RDF></metadata><defs
   id="defs27" /><sodipodi:namedview
   pagecolor="#ffffff"
   bordercolor="#666666"
   borderopacity="1"
   objecttolerance="10"
   gridtolerance="10"
   guidetolerance="10"
   inkscape:pageopacity="0"
   inkscape:pageshadow="2"
   inkscape:window-width="1680"
   inkscape:window-height="987"
   id="namedview25"
   showgrid="false"
   inkscape:zoom="0.97871756"
   inkscape:cx="17.880542"
   inkscape:cy="81.619809"
   inkscape:window-x="-8"
   inkscape:window-y="-8"
   inkscape:window-maximized="1"
   inkscape:current-layer="VARG" />
<g
   id="g22"
   transform="translate(-4.741,21.7795)">
	<path
   d="m 55.201,42.813 c 0,-16.734 10.109,-28.118 26.504,-28.118 15.462,0 24.128,7.562 24.128,18.688 H 90.371 c 0,-3.396 -2.465,-6.032 -8.581,-6.032 -6.287,0 -9.768,7.309 -9.768,14.782 0,6.709 3.059,13.422 9.599,13.422 5.521,0 8.495,-1.869 8.495,-5.947 H 83.405 V 38.566 h 22.85 V 67.193 H 95.552 c 0,0 0,-2.209 0,-4.162 -0.68,0.595 -5.013,5.268 -14.357,5.268 C 65.651,68.298 55.201,58.271 55.201,42.813 Z m -34.148,24.38 c 0,0 -7.646,0 -16.312,0 L 23.262,15.886 H 39.401 L 57.834,67.193 H 41.439 L 39.148,60.822 H 23.263 Z M 31.161,32.449 26.064,49.948 h 10.45 L 31.161,32.449"
   id="path2"
   inkscape:connector-curvature="0" />
	<path
   d="m 111.92,15.886 h 39.671 v 13.591 h -23.359 v 7.475 h 18.688 v 12.655 h -18.69 v 17.586 h -16.31 z m 49.952,51.307 h -16.311 l 18.602,-51.307 h 16.143 l 18.351,51.307 H 182.43 l -2.805,-6.371 H 163.91 Z m 10.109,-34.744 -5.102,17.585 h 10.45 l -5.348,-17.585"
   id="path4"
   inkscape:connector-curvature="0" />
	<polyline
   points="217.245,42.471 268.811,1.759 318.844,42.643 268.811,79.682 217.245,42.471  "
   id="polyline6"
   style="fill:#ef3b24" />
	<path
   d="m 239.245,40.01 c -4.841,6.538 -5.946,6.032 -8.408,6.285 v 2.294 c 0.255,0 3.567,0.595 5.605,-1.188 0.936,-0.68 2.974,-3.144 2.974,-3.144 h 6.712 l -1.614,4.671 h 6.37 l 5.947,-18.092 c -0.171,0.171 -6.203,0 -8.665,0.594 -3.653,0.933 -4.418,2.55 -8.921,8.58"
   id="path8"
   inkscape:connector-curvature="0"
   style="fill:#ffffff" />
	<path
   d="m 261.078,49.439 c 2.718,0 4.5,-1.444 4.5,-1.444 -0.338,1.526 -1.44,2.972 -2.632,3.653 -2.039,1.358 -4.671,0.252 -6.286,0 l -1.104,2.209 c 0.003,0 4.25,1.44 7.392,1.44 3.994,0 6.882,-3.819 7.899,-7.644 0.512,-1.868 2.465,-10.79 2.465,-10.79 h -4.928 l -0.597,2.211 c -0.25,-1.02 -1.7,-2.637 -4.162,-2.637 -4.838,0 -7.813,3.57 -7.813,7.309 -0.001,3.908 3.057,5.693 5.266,5.693"
   id="path10"
   inkscape:connector-curvature="0"
   style="fill:#ffffff" />
	<path
   d="m 282.655,39.077 h 2.547 l 0.594,-2.211 h -2.208 c 0,0 0.683,-2.547 2.464,-3.227 2.039,-0.765 4.077,-0.512 4.077,-0.512 v -2.291 c 0,0 -3.649,0 -4.077,0 -4.331,0 -6.797,3.144 -7.559,6.029 h -2.803 l -0.342,2.211 h 2.462 l -2.801,9.852 h 5.098 l 2.548,-9.851"
   id="path12"
   inkscape:connector-curvature="0"
   style="fill:#ffffff" />
	<path
   d="m 295.567,46.637 -0.598,2.291 h 4.503 l 3.399,-12.063 h -4.927 l -0.765,2.379 c 0,0 -1.444,-2.632 -4.162,-2.632 -4.25,0 -7.817,3.397 -7.817,7.477 0,3.228 2.377,5.265 4.674,5.265 2.296,0 4.419,-1.021 5.693,-2.717"
   id="path14"
   inkscape:connector-curvature="0"
   style="fill:#ffffff" />
	<path
   d="m 266.514,42.643 c 0,2.633 -2.294,4.506 -4.671,4.506 -1.782,0 -3.314,-1.105 -3.314,-3.399 0,-2.039 1.867,-4.844 4.841,-4.844 2.382,-10e-4 3.144,1.868 3.144,3.737"
   id="path16"
   inkscape:connector-curvature="0"
   style="fill:#ef3b24" />
	<path
   d="m 247.061,34.401 c 0.85,-0.421 2.635,-0.253 2.635,-0.253 l -2.888,7.645 h -5.606 c -0.001,-10e-4 3.82,-6.454 5.859,-7.392"
   id="path18"
   inkscape:connector-curvature="0"
   style="fill:#ef3b24" />
	<path
   d="m 295.652,42.048 c 0,2.636 -2.209,5.013 -4.844,5.013 -1.612,0 -2.89,-1.444 -2.89,-3.145 0,-2.633 2.297,-4.924 4.845,-4.924 1.616,0.001 2.889,1.442 2.889,3.056"
   id="path20"
   inkscape:connector-curvature="0"
   style="fill:#ef3b24" />
</g>
</svg>