<?xml version="1.0" encoding="UTF-8" standalone="no"?>
<!-- Created with Inkscape (http://www.inkscape.org/) -->
<svg
   xmlns:dc="http://purl.org/dc/elements/1.1/"
   xmlns:cc="http://creativecommons.org/ns#"
   xmlns:rdf="http://www.w3.org/1999/02/22-rdf-syntax-ns#"
   xmlns:svg="http://www.w3.org/2000/svg"
   xmlns="http://www.w3.org/2000/svg"
   xmlns:sodipodi="http://sodipodi.sourceforge.net/DTD/sodipodi-0.dtd"
   xmlns:inkscape="http://www.inkscape.org/namespaces/inkscape"
   width="350"
   height="92"
   id="svg2"
   sodipodi:version="0.32"
   inkscape:version="0.46"
   version="1.0"
   sodipodi:docname="Dallas_Semiconductor.svg"
   inkscape:output_extension="org.inkscape.output.svg.inkscape">
  <defs
     id="defs4">
    <inkscape:perspective
       sodipodi:type="inkscape:persp3d"
       inkscape:vp_x="0 : 526.18109 : 1"
       inkscape:vp_y="0 : 1000 : 0"
       inkscape:vp_z="744.09448 : 526.18109 : 1"
       inkscape:persp3d-origin="372.04724 : 350.78739 : 1"
       id="perspective10" />
    <inkscape:perspective
       id="perspective2657"
       inkscape:persp3d-origin="372.04724 : 350.78739 : 1"
       inkscape:vp_z="744.09448 : 526.18109 : 1"
       inkscape:vp_y="0 : 1000 : 0"
       inkscape:vp_x="0 : 526.18109 : 1"
       sodipodi:type="inkscape:persp3d" />
  </defs>
  <sodipodi:namedview
     id="base"
     pagecolor="#ffffff"
     bordercolor="#666666"
     borderopacity="1.0"
     gridtolerance="10000"
     guidetolerance="10"
     objecttolerance="10"
     inkscape:pageopacity="0.0"
     inkscape:pageshadow="2"
     inkscape:zoom="1.0074671"
     inkscape:cx="126.20881"
     inkscape:cy="126.56641"
     inkscape:document-units="px"
     inkscape:current-layer="g2659"
     showgrid="false"
     inkscape:window-width="1024"
     inkscape:window-height="721"
     inkscape:window-x="-4"
     inkscape:window-y="-4" />
  <metadata
     id="metadata7">
    <rdf:RDF>
      <cc:Work
         rdf:about="">
        <dc:format>image/svg+xml</dc:format>
        <dc:type
           rdf:resource="http://purl.org/dc/dcmitype/StillImage" />
      </cc:Work>
    </rdf:RDF>
  </metadata>
  <g
     inkscape:label="Layer 1"
     inkscape:groupmode="layer"
     id="layer1"
     transform="translate(-227.47929,-333.52941)">
    <g
       transform="matrix(1.25,0,0,-1.25,265.24179,489.97754)"
       inkscape:label="dallas_semiconductor"
       id="g2659">
      <path
         id="path2663"
         style="fill:#2d6a5b;fill-opacity:1;fill-rule:evenodd;stroke:none"
         d="M 39.755559,79.793723 L 50.716059,79.793723 C 55.948059,79.793723 59.864559,79.793723 62.794059,81.275723 C 68.389059,83.941223 71.284059,89.437223 71.284059,97.499723 C 71.284059,105.13472 68.948559,110.40122 64.340559,113.29772 C 61.214559,115.20572 57.527559,115.30472 52.723059,115.30472 L 39.755559,115.30472 L 39.755559,79.793723 z M 50.485059,88.778723 L 50.485059,106.35272 L 53.513559,106.35272 C 58.646559,106.35272 60.556059,103.88372 60.556059,97.499723 C 60.556059,90.884723 58.646559,88.778723 53.381559,88.778723 L 50.485059,88.778723" />
      <path
         id="path2665"
         style="fill:#2d6a5b;fill-opacity:1;fill-rule:evenodd;stroke:none"
         d="M 69.605559,79.793723 L 81.026559,79.793723 L 82.474059,84.401723 L 93.992559,84.401723 L 95.342559,79.793723 L 106.86106,79.793723 L 94.091559,115.30472 L 82.375059,115.30472 L 69.605559,79.793723 z M 84.613059,91.906223 L 88.300059,104.21372 L 91.853559,91.906223 L 84.613059,91.906223" />
      <path
         id="path2667"
         style="fill:#2d6a5b;fill-opacity:1;fill-rule:evenodd;stroke:none"
         d="M 109.88956,79.793723 L 136.48006,79.793723 L 136.48006,89.206223 L 121.17706,89.206223 L 121.17706,115.30472 L 109.88956,115.30472 L 109.88956,79.793723" />
      <path
         id="path2669"
         style="fill:#2d6a5b;fill-opacity:1;fill-rule:evenodd;stroke:none"
         d="M 139.40956,79.793723 L 166.03456,79.793723 L 166.03456,89.206223 L 150.69856,89.206223 L 150.69856,115.30472 L 139.40956,115.30472 L 139.40956,79.793723" />
      <path
         id="path2671"
         style="fill:#2d6a5b;fill-opacity:1;fill-rule:evenodd;stroke:none"
         d="M 169.16056,79.793723 L 180.54856,79.793723 L 181.89706,84.401723 L 193.41556,84.401723 L 194.89756,79.793723 L 206.41606,79.793723 L 193.64656,115.30472 L 181.79806,115.30472 L 169.16056,79.793723 z M 184.03606,91.906223 L 187.72306,104.21372 L 191.40856,91.906223 L 184.03606,91.906223" />
      <path
         id="path2673"
         style="fill:#2d6a5b;fill-opacity:1;fill-rule:evenodd;stroke:none"
         d="M 206.51506,90.787223 C 207.17356,83.282723 212.76706,78.806723 222.27856,78.806723 C 232.67806,78.806723 238.17556,83.282723 238.17556,91.016723 C 238.17556,94.604723 236.72656,97.171223 233.69806,99.310223 C 231.36256,100.85672 227.87356,101.54822 223.52956,102.66722 C 220.04056,103.55522 218.26456,103.88372 218.26456,105.79322 C 218.26456,107.37272 219.38206,108.16322 221.85106,108.16322 C 224.64856,108.16322 226.09606,107.24222 226.42606,105.13472 L 237.15406,105.13472 C 236.59456,112.27622 231.23056,116.22572 222.08056,116.22572 C 212.57056,116.22572 207.17356,111.84872 207.17356,104.90522 C 207.17356,101.41622 208.42306,98.750723 211.22056,96.710723 C 212.66806,95.723723 215.89456,94.604723 220.83106,93.254723 C 224.97706,92.234723 227.08306,92.003723 227.08306,89.765723 C 227.08306,88.219223 225.53656,87.199223 222.83806,87.199223 C 219.71206,87.199223 218.13256,88.219223 217.60456,90.787223 L 206.51506,90.787223" />
      <path
         id="path2675"
         style="fill:#2d6a5b;fill-opacity:1;fill-rule:evenodd;stroke:none"
         d="M 39.197559,64.030223 C 39.526059,60.772223 41.863059,58.862723 45.910059,58.862723 C 50.386059,58.862723 52.723059,60.772223 52.723059,64.030223 C 52.723059,65.576723 52.031559,66.695723 50.716059,67.616723 C 49.826559,68.275223 48.346059,68.506223 46.469559,69.065723 C 44.989059,69.394223 44.231559,69.493223 44.231559,70.414223 C 44.231559,71.072723 44.660559,71.401223 45.779559,71.401223 C 46.897059,71.401223 47.588559,70.973723 47.687559,70.052723 L 52.262559,70.052723 C 52.031559,73.079723 49.696059,74.758223 45.779559,74.758223 C 41.764059,74.758223 39.526059,72.982223 39.526059,69.953723 C 39.526059,68.506223 40.085559,67.387223 41.204559,66.497723 C 41.863059,66.037223 43.211559,65.576723 45.350559,65.017223 C 47.128059,64.589723 48.016059,64.457723 48.016059,63.569723 C 48.016059,62.911223 47.359059,62.450723 46.108059,62.450723 C 44.890059,62.450723 44.231559,62.911223 43.870059,64.030223 L 39.197559,64.030223" />
      <path
         id="path2677"
         style="fill:#2d6a5b;fill-opacity:1;fill-rule:evenodd;stroke:none"
         d="M 54.269559,59.191223 L 66.578559,59.191223 L 66.578559,62.911223 L 59.107059,62.911223 L 59.107059,65.248223 L 65.261559,65.248223 L 65.261559,68.735723 L 59.107059,68.735723 L 59.107059,70.744223 L 66.380559,70.744223 L 66.380559,74.429723 L 54.269559,74.429723 L 54.269559,59.191223" />
      <path
         id="path2679"
         style="fill:#2d6a5b;fill-opacity:1;fill-rule:evenodd;stroke:none"
         d="M 73.061559,59.191223 L 73.061559,66.596723 C 73.061559,67.156223 73.061559,68.045723 73.061559,69.394223 C 73.292559,68.275223 73.424559,67.387223 73.621059,66.497723 L 75.530559,59.191223 L 78.887559,59.191223 L 80.795559,66.695723 C 80.894559,67.156223 81.125559,68.045723 81.454059,69.394223 C 81.355059,68.045723 81.355059,67.057223 81.355059,66.695723 L 81.355059,59.191223 L 85.699059,59.191223 L 85.699059,74.429723 L 79.907559,74.429723 L 77.669559,66.827723 C 77.669559,66.497723 77.438559,65.708723 77.209059,64.589723 C 76.978059,65.905223 76.780059,66.596723 76.780059,66.827723 L 74.641059,74.429723 L 68.717559,74.429723 L 68.717559,59.191223 L 73.061559,59.191223" />
      <path
         id="path2681"
         style="fill:#2d6a5b;fill-opacity:1;fill-rule:evenodd;stroke:none"
         d="M 87.608559,59.191223 L 92.545059,59.191223 L 92.545059,74.429723 L 87.608559,74.429723 L 87.608559,59.191223 z" />
      <path
         id="path2683"
         style="fill:#2d6a5b;fill-opacity:1;fill-rule:evenodd;stroke:none"
         d="M 104.49256,65.149223 C 104.29456,63.470723 103.37206,62.549723 101.92456,62.549723 C 99.917559,62.549723 98.929059,64.030223 98.929059,66.827723 C 98.929059,69.625223 99.917559,71.072723 101.82556,71.072723 C 103.27456,71.072723 104.16256,70.184723 104.29456,68.735723 L 108.96706,68.735723 C 108.63856,72.652223 106.07056,74.758223 101.69356,74.758223 C 97.021059,74.758223 94.091559,71.731223 94.091559,66.827723 C 94.091559,61.891223 97.021059,58.862723 101.82556,58.862723 C 106.16956,58.862723 108.76906,61.100723 109.09906,65.149223 L 104.49256,65.149223" />
      <path
         id="path2685"
         style="fill:#2d6a5b;fill-opacity:1;fill-rule:evenodd;stroke:none"
         d="M 109.75756,66.827723 C 109.75756,61.891223 112.78456,58.862723 117.59056,58.862723 C 122.39506,58.862723 125.42356,61.891223 125.42356,66.827723 C 125.42356,71.731223 122.39506,74.758223 117.59056,74.758223 C 112.78456,74.758223 109.75756,71.731223 109.75756,66.827723 z M 114.69406,66.827723 C 114.69406,69.625223 115.58206,70.973723 117.59056,70.973723 C 119.72956,70.973723 120.48556,69.625223 120.48556,66.827723 C 120.48556,64.030223 119.72956,62.680223 117.59056,62.680223 C 115.58206,62.680223 114.69406,64.030223 114.69406,66.827723" />
      <path
         id="path2687"
         style="fill:#2d6a5b;fill-opacity:1;fill-rule:evenodd;stroke:none"
         d="M 127.33156,59.191223 L 131.90656,59.191223 L 131.90656,66.367223 C 131.90656,66.925223 131.90656,67.715723 131.80756,68.374223 C 132.13606,67.387223 132.46606,66.596723 132.69556,66.268223 L 136.84306,59.191223 L 141.51556,59.191223 L 141.51556,74.429723 L 136.84306,74.429723 L 136.84306,67.255223 C 136.84306,66.596723 136.94206,65.807723 137.07256,65.149223 C 136.71106,66.268223 136.38256,66.925223 136.15156,67.387223 L 131.90656,74.429723 L 127.33156,74.429723 L 127.33156,59.191223" />
      <path
         id="path2689"
         style="fill:#2d6a5b;fill-opacity:1;fill-rule:evenodd;stroke:none"
         d="M 143.55706,59.191223 L 148.46056,59.191223 C 150.79606,59.191223 152.60656,59.323223 153.82456,59.882723 C 156.42406,61.001723 157.74106,63.338723 157.74106,66.827723 C 157.74106,70.052723 156.62206,72.323723 154.61506,73.541723 C 153.16606,74.330723 151.48756,74.429723 149.34856,74.429723 L 143.55706,74.429723 L 143.55706,59.191223 z M 148.36156,63.107723 L 148.36156,70.612223 L 149.71006,70.612223 C 152.04706,70.612223 152.83756,69.625223 152.83756,66.827723 C 152.83756,64.030223 152.04706,63.107723 149.71006,63.107723 L 148.36156,63.107723" />
      <path
         id="path2691"
         style="fill:#2d6a5b;fill-opacity:1;fill-rule:evenodd;stroke:none"
         d="M 159.18856,74.429723 L 159.18856,64.688723 C 159.18856,60.871223 161.78956,58.862723 166.36456,58.862723 C 171.07006,58.862723 173.50456,60.871223 173.50456,64.688723 L 173.50456,74.429723 L 168.70006,74.429723 L 168.70006,65.017223 C 168.70006,63.338723 168.14056,62.680223 166.36456,62.680223 C 164.68456,62.680223 164.02756,63.338723 164.02756,65.017223 L 164.02756,74.429723 L 159.18856,74.429723" />
      <path
         id="path2693"
         style="fill:#2d6a5b;fill-opacity:1;fill-rule:evenodd;stroke:none"
         d="M 185.81356,65.149223 C 185.71456,63.470723 184.82656,62.549723 183.24706,62.549723 C 181.33756,62.549723 180.35056,64.030223 180.35056,66.827723 C 180.35056,69.625223 181.24006,71.072723 183.14806,71.072723 C 184.69456,71.072723 185.58256,70.184723 185.71456,68.735723 L 190.28956,68.735723 C 190.05856,72.652223 187.49206,74.758223 183.14806,74.758223 C 178.44106,74.758223 175.41406,71.731223 175.41406,66.827723 C 175.41406,61.891223 178.34356,58.862723 183.24706,58.862723 C 187.49206,58.862723 190.19056,61.100723 190.42156,65.149223 L 185.81356,65.149223" />
      <path
         id="path2695"
         style="fill:#2d6a5b;fill-opacity:1;fill-rule:evenodd;stroke:none"
         d="M 195.55606,59.191223 L 200.36056,59.191223 L 200.36056,70.414223 L 204.60556,70.414223 L 204.60556,74.429723 L 191.17906,74.429723 L 191.17906,70.414223 L 195.55606,70.414223 L 195.55606,59.191223" />
      <path
         id="path2697"
         style="fill:#2d6a5b;fill-opacity:1;fill-rule:evenodd;stroke:none"
         d="M 206.28406,66.827723 C 206.28406,61.891223 209.21356,58.862723 214.11706,58.862723 C 218.92156,58.862723 221.85106,61.891223 221.85106,66.827723 C 221.85106,71.731223 218.92156,74.758223 214.11706,74.758223 C 209.21356,74.758223 206.28406,71.731223 206.28406,66.827723 z M 211.08856,66.827723 C 211.08856,69.625223 211.97806,70.973723 214.11706,70.973723 C 216.12406,70.973723 217.01356,69.625223 217.01356,66.827723 C 217.01356,64.030223 216.12406,62.680223 214.11706,62.680223 C 212.01106,62.680223 211.08856,64.030223 211.08856,66.827723" />
      <path
         id="path2699"
         style="fill:#2d6a5b;fill-opacity:1;fill-rule:evenodd;stroke:none"
         d="M 224.28706,59.191223 L 229.12456,59.191223 L 229.12456,64.457723 L 231.13156,64.457723 C 232.67806,64.457723 233.23756,63.898223 233.23756,62.351723 L 233.23756,60.772223 C 233.23756,60.541223 233.23756,59.981723 233.46856,59.191223 L 238.40506,59.191223 L 238.40506,59.752223 C 237.94456,59.882723 237.94456,60.080723 237.94456,60.772223 L 237.84556,62.911223 C 237.71356,65.017223 237.05656,65.905223 235.37656,66.268223 C 237.05656,67.057223 237.84556,68.176223 237.84556,70.052723 C 237.84556,73.310723 235.80556,74.429723 231.55906,74.429723 L 224.28706,74.429723 L 224.28706,59.191223 z M 229.12456,67.946723 L 229.12456,70.744223 L 231.23056,70.744223 C 232.67806,70.744223 233.36956,70.513223 233.36956,69.295223 C 233.36956,68.143223 232.67806,67.946723 231.32956,67.946723 L 229.12456,67.946723" />
      <path
         id="path2701"
         style="fill:#2d6a5b;fill-opacity:1;fill-rule:evenodd;stroke:none"
         d="M -2.0734405,116.42372 C -2.4019405,116.42372 -2.7319405,116.42372 -3.0604405,116.42372 C -8.6974405,116.42372 -13.935441,114.72422 -18.298941,111.81122 L -18.298941,89.963723 L -8.1619405,89.963723 L -8.1619405,100.13222 L -6.1219405,100.13222 L -6.1219405,77.753723 L -8.1619405,77.753723 L -8.1619405,87.922223 L -18.298941,87.922223 L -18.298941,66.076223 C -13.935441,63.163223 -8.6974405,61.462223 -3.0604405,61.462223 C -2.7319405,61.462223 -2.4019405,61.495223 -2.0734405,61.495223 L -2.0734405,116.42372" />
      <path
         id="path2703"
         style="fill:#ad9473;fill-opacity:1;fill-rule:evenodd;stroke:none"
         d="M -0.00044053357,116.42372 C 0.32955947,116.42372 0.65805947,116.42372 0.98805947,116.42372 C 12.175059,116.42372 21.803559,109.73072 26.090559,100.13222 L -0.00044053357,100.13222 L -0.00044053357,116.42372 z M 26.905059,98.092223 C 27.916059,95.230223 28.468059,92.150723 28.468059,88.943723 C 28.468059,85.735223 27.916059,82.655723 26.905059,79.793723 L -0.00044053357,79.793723 L -0.00044053357,98.092223 L 26.905059,98.092223 z M 26.090559,77.753723 C 21.803559,68.155223 12.175059,61.462223 0.98805947,61.462223 C 0.65805947,61.462223 0.32955947,61.495223 -0.00044053357,61.495223 L -0.00044053357,77.753723 L 26.090559,77.753723" />
    </g>
  </g>
</svg>
