<?xml version="1.0" encoding="UTF-8" standalone="no"?>
<svg
   xmlns:dc="http://purl.org/dc/elements/1.1/"
   xmlns:cc="http://creativecommons.org/ns#"
   xmlns:rdf="http://www.w3.org/1999/02/22-rdf-syntax-ns#"
   xmlns:svg="http://www.w3.org/2000/svg"
   xmlns="http://www.w3.org/2000/svg"
   xmlns:sodipodi="http://sodipodi.sourceforge.net/DTD/sodipodi-0.dtd"
   xmlns:inkscape="http://www.inkscape.org/namespaces/inkscape"
   version="1.0"
   width="163.6268mm"
   height="21.719969mm"
   id="svg75"
   sodipodi:docname="kk.svg"
   inkscape:version="0.92.3 (2405546, 2018-03-11)">
  <metadata
     id="metadata79">
    <rdf:RDF>
      <cc:Work
         rdf:about="">
        <dc:format>image/svg+xml</dc:format>
        <dc:type
           rdf:resource="http://purl.org/dc/dcmitype/StillImage" />
        <dc:title></dc:title>
      </cc:Work>
    </rdf:RDF>
  </metadata>
  <sodipodi:namedview
     pagecolor="#ffffff"
     bordercolor="#666666"
     borderopacity="1"
     objecttolerance="10"
     gridtolerance="10"
     guidetolerance="10"
     inkscape:pageopacity="0"
     inkscape:pageshadow="2"
     inkscape:window-width="1680"
     inkscape:window-height="987"
     id="namedview77"
     showgrid="false"
     fit-margin-top="0"
     fit-margin-left="0"
     fit-margin-right="0"
     fit-margin-bottom="0"
     inkscape:zoom="1.4358705"
     inkscape:cx="355.68104"
     inkscape:cy="24.126574"
     inkscape:window-x="-8"
     inkscape:window-y="-8"
     inkscape:window-maximized="1"
     inkscape:current-layer="svg75" />
  <defs
     id="defs3">
    <pattern
       id="WMFhbasepattern"
       patternUnits="userSpaceOnUse"
       width="6"
       height="6"
       x="0"
       y="0" />
  </defs>
  <path
     style="fill:#0000ff;fill-opacity:1;fill-rule:evenodd;stroke:none"
     d="m 38.961216,82.091221 -0.425172,-0.03865 -0.425172,-0.03865 -0.463824,-0.03865 h -0.425172 l -0.463824,-0.03865 -0.425172,-0.03865 -0.425172,-0.03865 -0.502476,-0.03865 -0.425172,-0.0773 -0.425172,-0.0773 -0.463824,-0.0773 -0.425172,-0.115948 -0.425172,-0.0773 -0.463824,-0.0773 -0.425172,-0.0773 -0.463824,-0.115948 -0.57978,-0.154597 -0.541128,-0.115948 -0.57978,-0.154598 -0.541128,-0.154597 -0.57978,-0.154598 -0.541128,-0.193246 -0.618432,-0.154598 -0.541128,-0.154597 -0.19326,-0.115948 -0.19326,-0.115948 -0.231912,-0.115948 -0.309216,-0.154598 -0.425172,-0.154597 -0.618432,-0.270546 -0.77304,-0.309194 -1.082256,-0.386494 -0.541128,-0.270545 -0.502476,-0.270546 -0.502476,-0.270545 -0.502476,-0.270546 -0.502476,-0.270545 -0.541128,-0.270546 -0.541128,-0.309194 -0.502476,-0.270546 -0.03865,-0.03865 -0.0773,-0.03865 -0.03865,-0.03865 -0.03865,-0.03865 v -0.0773 l -0.03865,-0.03865 -0.03865,-0.03865 -0.03865,-0.0773 -0.309216,-0.193247 -0.309216,-0.154598 -0.347868,-0.231896 -0.347868,-0.154597 -0.309216,-0.193247 -0.309216,-0.193247 -0.309216,-0.193246 -0.347868,-0.231896 -0.347868,-0.347845 -0.347868,-0.309194 -0.38652,-0.309195 -0.347868,-0.309195 -0.347868,-0.347844 -0.347868,-0.309195 -0.38652,-0.309195 -0.347868,-0.386493 -0.0773,-0.03865 h -0.0773 l -0.0773,-0.03865 -0.0773,-0.03865 -0.0773,-0.03865 -0.0773,-0.03865 -0.154608,-0.03865 -0.0773,-0.03865 -0.231912,-0.193247 -0.19326,-0.231896 -0.231912,-0.231896 -0.231912,-0.231896 -0.309216,-0.270545 -0.231912,-0.231896 -0.231912,-0.270546 -0.231912,-0.231896 -0.0773,-0.115948 -0.0773,-0.0773 -0.0773,-0.154597 -0.0773,-0.115948 -0.03865,-0.115948 -0.0773,-0.115948 L 10.51341,68.486625 10.43611,68.370677 10.281432,68.216104 10.165476,68.061506 9.972216,67.906909 9.817608,67.713662 9.663,67.559065 9.46974,67.365818 9.27648,67.211221 9.121872,67.017974 8.271528,65.858494 7.575792,64.930909 7.111968,64.235221 6.686796,63.655481 6.338928,63.191688 6.029712,62.650597 5.720496,62.148156 5.256672,61.452468 4.986108,60.872727 4.715544,60.254338 4.406328,59.674597 4.097112,59.056208 3.826548,58.476468 3.517332,57.896727 3.208116,57.278338 2.860248,56.659948 2.70564,56.196156 2.551032,55.732364 2.396424,55.229922 2.241816,54.76613 2.087208,54.302338 1.893948,53.799896 1.700688,53.336104 1.507428,52.795013 1.430124,52.36987 1.314168,51.944727 1.198212,51.480935 1.082256,51.055792 0.9663,50.630649 0.850344,50.166857 0.734388,49.741714 0.541128,49.277922 0.463824,48.736831 0.425172,48.273039 0.347868,47.731948 0.270564,47.229506 0.19326,46.727065 0.115956,46.185974 0.077304,45.683532 0,45.103792 V 44.06026 43.055377 42.011844 40.968312 39.924779 38.842597 37.799065 36.794182 L 0.077304,36.253091 0.115956,35.789299 0.19326,35.248208 0.270564,34.745766 0.347868,34.204675 0.425172,33.702234 0.463824,33.199792 0.541128,32.658701 0.695736,32.194909 0.811692,31.692468 0.927648,31.228675 1.004952,30.726234 1.120908,30.223792 1.275516,29.721351 1.391472,29.218909 1.507428,28.716468 1.662036,28.291325 1.816644,27.827532 2.009904,27.40239 2.164512,27.015896 2.357772,26.552104 2.51238,26.126961 2.70564,25.701818 2.860248,25.238026 3.169464,24.619636 3.47868,23.962597 3.787896,23.344208 4.05846,22.648519 4.406328,22.03013 4.715544,21.373091 5.063412,20.754701 5.372628,20.059013 5.41128,20.020364 v -0.03865 h 0.038652 l 0.077304,-0.03865 0.038652,-0.03865 0.077304,-0.03865 0.077304,-0.03865 0.038652,-0.03865 0.19326,-0.309195 0.154608,-0.347844 0.19326,-0.309195 0.19326,-0.309195 0.154608,-0.347844 0.231912,-0.347844 0.19326,-0.309195 0.231912,-0.309195 0.038652,-0.03865 0.038652,-0.03865 0.038652,-0.03865 0.038652,-0.03865 h 0.038652 l 0.038652,-0.03865 0.077304,-0.03865 0.038652,-0.03865 0.038652,-0.0773 0.038652,-0.115948 0.038652,-0.0773 0.038652,-0.0773 0.038652,-0.0773 0.038652,-0.0773 0.038652,-0.0773 0.038652,-0.115948 0.038652,-0.0773 0.077304,-0.0773 0.115956,-0.03865 0.077304,-0.0773 0.077304,-0.0773 0.077304,-0.0773 0.115956,-0.0773 0.077304,-0.03865 L 8.6967,15.575663 8.774004,15.421066 8.851308,15.305118 8.928612,15.18917 8.967264,15.073222 9.044568,14.957274 9.121872,14.841326 9.199176,14.725378 9.85626,14.029689 10.474692,13.4113 l 0.695736,-0.657039 0.618432,-0.61839 0.657084,-0.695688 0.618432,-0.61839 0.695736,-0.657039 0.657084,-0.6183894 1.120908,-0.8889351 0.9663,-0.6956883 L 17.238792,7.4593247 17.857224,7.0341818 18.475656,6.5703896 19.13274,6.1452468 19.944432,5.6428052 20.949384,4.9857662 21.374556,4.7925195 21.877032,4.5606234 22.340856,4.2900779 22.80468,4.0581818 23.307156,3.8262857 23.77098,3.5943896 24.234804,3.3624935 24.775932,3.0532987 25.780884,2.7054545 26.515272,2.3962597 27.172356,2.1643636 27.752136,1.9711169 28.370568,1.7392208 29.027652,1.545974 29.839344,1.2754286 30.9216,0.96623377 31.578684,0.88893506 32.27442,0.77298701 32.931504,0.65703896 33.62724,0.50244156 34.361628,0.38649351 35.018712,0.27054545 35.714448,0.1545974 36.371532,0 h 1.120908 1.120908 1.120908 1.120908 1.120908 1.120908 1.082256 1.120908 l 0.541128,0.0772987 0.502476,0.0772987 0.541128,0.0772987 0.502476,0.0772987 0.502476,0.0772987 0.57978,0.0772987 0.502476,0.11594805 0.57978,0.11594805 0.502476,0.1545974 0.57978,0.11594806 0.541128,0.15459744 0.541128,0.1545974 0.618432,0.1545974 0.541128,0.1545974 0.57978,0.1545974 0.57978,0.1932467 0.463824,0.1545974 0.425172,0.1545974 0.38652,0.1545974 0.463824,0.1545974 0.425172,0.1932468 0.425172,0.1545974 0.463824,0.1932468 0.38652,0.1932467 0.811692,0.4251429 0.77304,0.4251428 0.811692,0.4637922 0.811692,0.3864935 0.77304,0.4251429 0.850344,0.4637922 0.811692,0.4251429 0.811692,0.4251428 0.03865,0.038649 0.03865,0.038649 v 0.077299 l 0.03865,0.038649 0.03865,0.038649 0.03865,0.038649 0.03865,0.077299 0.0773,0.038649 0.0773,0.038649 0.0773,0.038649 0.03865,0.038649 0.0773,0.038649 0.115956,0.038649 0.0773,0.038649 0.0773,0.038649 0.115956,0.038649 0.231912,0.2318961 0.347868,0.2318961 0.270564,0.2705455 0.270564,0.2318961 0.309216,0.2318961 0.270564,0.1932467 0.270564,0.2705455 0.231912,0.2318961 0.0773,0.077299 0.0773,0.038649 h 0.0773 l 0.0773,0.038649 0.0773,0.038649 0.0773,0.038649 0.0773,0.038649 0.115956,0.038649 0.57978,0.5410908 0.502476,0.541091 0.618432,0.541091 0.541128,0.61839 0.57978,0.541091 0.541128,0.54109 0.618432,0.61839 0.541128,0.541091 0.888996,1.120831 0.618432,0.888935 0.541128,0.61839 0.38652,0.57974 0.309216,0.463792 0.309216,0.463793 0.38652,0.502441 0.38652,0.657039 0.309216,0.541091 0.309216,0.541091 0.270564,0.57974 0.309216,0.541091 0.270564,0.57974 0.309216,0.579741 0.347868,0.57974 0.309216,0.57974 0.154608,0.541091 0.154608,0.386493 0.115956,0.309195 0.0773,0.231896 0.154608,0.231896 0.0773,0.193247 0.0773,0.193247 0.154608,0.193247 0.19326,0.850285 0.231912,0.811637 0.231912,0.850286 0.270564,0.850285 0.231912,0.811637 0.231912,0.850285 0.231912,0.850286 0.270564,0.850286 0.0773,0.57974 0.03865,0.57974 0.0773,0.61839 0.115956,0.57974 0.0773,0.61839 0.0773,0.618389 0.03865,0.61839 0.0773,0.57974 v 0.811637 0.811636 0.772987 0.811636 0.811637 0.772987 0.850285 0.772987 l -0.0773,0.579741 -0.03865,0.541091 -0.0773,0.57974 -0.0773,0.541091 -0.115956,0.57974 -0.0773,0.57974 -0.03865,0.579741 -0.0773,0.57974 -0.154608,0.618389 -0.154608,0.61839 -0.154608,0.61839 -0.154608,0.618389 -0.19326,0.695689 -0.154608,0.618389 -0.19326,0.657039 -0.19326,0.61839 -0.154608,0.541091 -0.19326,0.463792 -0.19326,0.502441 -0.154608,0.541091 -0.231912,0.502442 -0.19326,0.541091 -0.19326,0.502441 -0.19326,0.579741 -0.309216,0.463792 -0.270564,0.502441 -0.309216,0.541091 -0.270564,0.541091 -0.309216,0.541091 -0.270564,0.502442 -0.309216,0.541091 -0.270564,0.57974 -0.695736,1.043532 -0.57978,0.772987 -0.38652,0.579741 -0.309216,0.425142 -0.19326,0.309195 -0.154608,0.270546 -0.0773,0.193246 -0.115956,0.231897 -0.0773,0.0773 -0.03865,0.03865 -0.0773,0.0773 -0.0773,0.0773 -0.0773,0.0773 -0.115956,0.0773 -0.0773,0.03865 -0.115956,0.0773 -0.03865,0.115949 v 0.0773 l -0.03865,0.0773 -0.0773,0.0773 -0.03865,0.0773 -0.03865,0.0773 -0.03865,0.0773 -0.03865,0.115948 -0.618432,0.657039 -0.657084,0.657039 -0.657084,0.657039 -0.657084,0.618389 -0.618432,0.657039 -0.657084,0.657039 -0.657084,0.657039 -0.657084,0.61839 -0.618432,0.502441 -0.657084,0.463793 -0.657084,0.425142 -0.657084,0.502442 -0.657084,0.463792 -0.657084,0.463792 -0.657084,0.541091 -0.695736,0.463792 -0.463824,0.231897 -0.463824,0.270545 -0.425172,0.231896 -0.541128,0.270546 -0.502476,0.270545 -0.57978,0.347844 -0.695736,0.347844 -0.77304,0.347845 -0.425172,0.154597 -0.425172,0.154597 -0.425172,0.154598 -0.463824,0.193246 -0.425172,0.154598 -0.463824,0.193247 -0.425172,0.154597 -0.463824,0.193247 -0.541128,0.115948 -0.463824,0.154597 -0.541128,0.193247 -0.502476,0.154597 -0.502476,0.115948 -0.541128,0.154598 -0.502476,0.193247 -0.541128,0.154597 -0.463824,0.0773 -0.463824,0.0773 -0.541128,0.0773 -0.463824,0.0773 -0.502476,0.115948 -0.502476,0.0773 -0.463824,0.0773 -0.541128,0.115948 -0.425172,0.03865 -0.463824,0.03865 -0.425172,0.03865 -0.38652,0.03865 h -0.463824 l -0.425172,0.03865 -0.425172,0.03865 -0.463824,0.03865 h -0.425172 -0.463824 -0.502476 -0.463824 -0.502476 -0.463824 -0.463824 z"
     id="path35"
     inkscape:connector-curvature="0" />
  <path
     style="fill:#0000ff;fill-opacity:1;fill-rule:evenodd;stroke:none"
     d="m 270.06152,69.878026 -0.69573,-0.03865 -0.69574,-0.0773 -0.65708,-0.0773 -0.73439,-0.0773 -0.65708,-0.0773 -0.69574,-0.03865 -0.65708,-0.0773 -0.69574,-0.0773 -0.54113,-0.154597 -0.54113,-0.193247 -0.54112,-0.154597 -0.57978,-0.154598 -0.50248,-0.154597 -0.54113,-0.193247 -0.61843,-0.154597 -0.54113,-0.193247 -0.34787,-0.115948 -0.30921,-0.193247 -0.30922,-0.154597 -0.30921,-0.115948 -0.34787,-0.154598 -0.34787,-0.154597 -0.30922,-0.193247 -0.30921,-0.154597 -0.0773,-0.0773 -0.11595,-0.115948 -0.0387,-0.03865 -0.0773,-0.0773 -0.0773,-0.115948 -0.11596,-0.0773 -0.0773,-0.0773 -0.11596,-0.115948 -0.0773,-0.03865 -0.0387,-0.03865 -0.0773,-0.03865 h -0.0773 l -0.0773,-0.03865 -0.11595,-0.03865 -0.0773,-0.03865 -0.1546,-0.03865 -0.34787,-0.425143 -0.34787,-0.463792 -0.38652,-0.425143 -0.38652,-0.502442 -0.38652,-0.425143 -0.38652,-0.463792 -0.42517,-0.502441 -0.38652,-0.425143 -0.0773,-0.386494 -0.11595,-0.425143 -0.11596,-0.386493 -0.11595,-0.425143 -0.11596,-0.425143 -0.15461,-0.386493 -0.11595,-0.425143 -0.15461,-0.425143 V 55.152623 51.442286 47.731948 44.02161 40.272623 l -0.0386,-3.710337 v -3.748987 l -0.0387,-3.710338 h 2.00991 1.97125 2.0099 2.00991 1.97125 2.04856 1.97125 2.04855 v 3.748987 3.748987 3.748987 3.787636 3.748987 l 0.0387,3.826286 v 3.787637 l 0.0387,3.748987 0.0387,0.154597 0.0386,0.154597 0.0387,0.115948 0.0387,0.154598 0.0387,0.154597 0.0773,0.154598 0.0387,0.154597 0.0773,0.231896 0.0773,0.0773 0.11596,0.0773 0.0773,0.0773 0.0386,0.0773 0.0387,0.115948 0.0773,0.115948 0.0773,0.154597 0.0773,0.231897 0.27056,0.0773 0.23191,0.154598 0.23192,0.154597 0.30921,0.115948 0.27057,0.115948 0.23191,0.154598 0.27056,0.154597 0.30922,0.115948 h 0.65708 0.65709 0.61843 0.65708 0.65709 0.65708 0.61843 0.65709 l 0.19326,-0.0773 0.1546,-0.03865 0.19326,-0.0773 0.19326,-0.0773 0.15461,-0.0773 0.23191,-0.0773 0.19326,-0.03865 0.23192,-0.0773 0.11595,-0.0773 0.11596,-0.0773 0.11595,-0.0773 0.11596,-0.0773 0.15461,-0.115948 0.15461,-0.0773 0.1546,-0.115949 0.11596,-0.0773 0.11596,-0.231896 0.11595,-0.193247 0.11596,-0.193247 0.15461,-0.231896 0.11595,-0.231896 0.15461,-0.231896 0.15461,-0.193247 0.15461,-0.193247 0.0387,-0.154597 0.0386,-0.154597 v -0.115949 l 0.0387,-0.193246 0.0387,-0.154598 0.0387,-0.154597 0.0387,-0.154597 0.0386,-0.193247 v -3.633039 -3.633039 l 0.0387,-3.633039 v -3.671688 l 0.0387,-3.633039 0.0387,-3.671689 0.0386,-3.671688 0.0387,-3.633039 h 1.9326 1.8553 1.9326 1.89394 1.9326 1.9326 1.9326 1.9326 v 3.903584 l -0.0387,3.864936 v 3.903584 L 295.88106,44.64 v 3.903584 l -0.0387,3.864935 -0.0386,3.903585 -0.0387,3.864935 -0.1546,0.386493 -0.11596,0.347845 -0.15461,0.347844 -0.15461,0.386493 -0.1546,0.386494 -0.19326,0.347844 -0.15461,0.347844 -0.15461,0.386494 -0.30922,0.270545 -0.34786,0.270546 -0.34787,0.309194 -0.30922,0.347844 -0.30921,0.309195 -0.30922,0.309195 -0.34787,0.309195 -0.30921,0.347844 -0.27057,0.154597 -0.23191,0.154598 -0.23191,0.154597 -0.30922,0.154598 -0.23191,0.154597 -0.23191,0.193247 -0.23191,0.193247 -0.27057,0.193246 -0.54113,0.193247 -0.54112,0.231896 -0.57978,0.193247 -0.54113,0.231896 -0.61843,0.231896 -0.54113,0.193247 -0.57978,0.231896 -0.57978,0.193247 -0.38652,0.0773 -0.42517,0.0773 -0.38652,0.0773 -0.38652,0.0773 -0.42518,0.0773 -0.34786,0.115948 -0.38652,0.0773 -0.42518,0.115948 -0.57978,0.0773 -0.61843,0.0773 -0.57978,0.03865 -0.61843,0.0773 -0.57978,0.0773 -0.61843,0.0773 -0.57978,0.0773 -0.61843,0.03865 h -0.889 -0.92765 -0.92765 -0.88899 -0.9663 -0.92765 -0.9663 z"
     id="path37"
     inkscape:connector-curvature="0" />
  <path
     style="fill:#ffffff;fill-opacity:1;fill-rule:evenodd;stroke:none"
     d="m 14.88102,69.530182 v -2.357611 -2.35761 -2.35761 -2.357611 -2.396259 -2.357611 -2.35761 -2.357611 h 1.777992 1.816644 1.777992 1.855296 1.777992 1.855296 1.777992 1.855296 v 2.241663 2.318961 l -0.03865,2.318961 v 2.318961 l -0.0773,2.318961 -0.03865,2.318961 -0.03865,2.35761 v 2.318961 h -0.03865 v 0.03865 l -0.03865,0.03865 h -0.03865 l -0.03865,0.03865 v 0.03865 l -0.03865,0.03865 h -1.777992 -1.777992 l -1.73934,0.03865 -1.73934,0.03865 h -1.777992 l -1.777992,0.03865 -1.777992,0.03865 z"
     id="path39"
     inkscape:connector-curvature="0" />
  <path
     style="fill:#0000ff;fill-opacity:1;fill-rule:evenodd;stroke:none"
     d="M 110.42876,68.177455 V 61.29787 54.418286 47.538701 40.659117 33.779532 26.899948 19.981714 13.10213 h 2.35778 2.43507 2.39643 2.39642 2.43508 2.39642 2.43508 2.39642 V 19.904416 26.784 l -0.0386,6.802286 v 6.879584 l -0.0387,6.840935 -0.0387,6.879585 -0.0386,6.840935 v 6.879584 l -2.39642,0.03865 -2.39643,0.03865 -2.35777,0.03865 -2.39642,0.03865 h -2.39643 l -2.39642,0.03865 -2.39642,0.03865 z"
     id="path41"
     inkscape:connector-curvature="0" />
  <path
     style="fill:#0000ff;fill-opacity:1;fill-rule:evenodd;stroke:none"
     d="m 149.58324,68.177455 -0.0386,-1.700572 V 64.776312 63.07574 l -0.0386,-1.739221 -0.0387,-1.700571 -0.0386,-1.700571 v -1.777871 l -0.0386,-1.700571 -0.0773,-0.347844 -0.0773,-0.309195 -0.0773,-0.309195 -0.0773,-0.347844 -0.11595,-0.347844 -0.0773,-0.309195 -0.11595,-0.309195 -0.0773,-0.309194 -0.0773,-0.154598 -0.0773,-0.154597 -0.0773,-0.154598 -0.0773,-0.154597 -0.0773,-0.154597 -0.0773,-0.154598 -0.0773,-0.154597 -0.11596,-0.154598 -0.15461,-0.154597 -0.15461,-0.193247 -0.1546,-0.154597 -0.15461,-0.154598 -0.15461,-0.193246 -0.15461,-0.154598 -0.15461,-0.154597 -0.1546,-0.193247 -1.70069,-0.888935 -1.31417,-0.695688 -1.08226,-0.541091 -1.00495,-0.463792 -1.0436,-0.541091 -1.19821,-0.541091 -1.50743,-0.734338 -1.9326,-0.888935 -0.0386,-0.03865 -0.0387,-0.03865 -0.0386,-0.03865 v -0.03865 l -0.0386,-0.03865 -0.0387,-0.0773 -0.0386,-0.03865 -0.0387,-0.0773 -0.1546,-0.0773 -0.11596,-0.0773 -0.15461,-0.03865 -0.19326,-0.0773 -0.15461,-0.0773 -0.1546,-0.0773 -0.15461,-0.0773 -0.15461,-0.03865 -0.0773,-0.0773 -0.0773,-0.115948 -0.0773,-0.0773 -0.0773,-0.0773 -0.0773,-0.0773 -0.11596,-0.0773 -0.11595,-0.115948 -0.0773,-0.0773 -0.0773,-0.03865 -0.0773,-0.03865 -0.0773,-0.03865 -0.0773,-0.03865 -0.0773,-0.03865 -0.0773,-0.03865 -0.0773,-0.03865 -0.11596,-0.03865 -0.23191,-0.231897 -0.30922,-0.270545 -0.23191,-0.270546 -0.27056,-0.231896 -0.23192,-0.270545 -0.27056,-0.231896 -0.30922,-0.309195 -0.27056,-0.270545 v -0.193247 -0.193247 -0.154597 -0.193247 -0.231896 -0.193247 -0.193247 -0.193246 l 0.11596,-0.386494 0.0773,-0.425143 0.11596,-0.386493 0.11595,-0.386494 0.15461,-0.425143 0.11596,-0.425143 0.1546,-0.386493 0.11596,-0.463792 0.0387,-0.03865 0.0386,-0.03865 0.0387,-0.03865 h 0.0387 l 0.0386,-0.03865 0.0773,-0.03865 0.0387,-0.03865 0.0773,-0.03865 0.0386,-0.0773 0.0386,-0.0773 v -0.0773 l 0.0387,-0.0773 0.0387,-0.0773 0.0386,-0.0773 0.0387,-0.0773 0.0386,-0.154597 0.0773,-0.0773 0.11595,-0.0773 0.0387,-0.03865 0.0773,-0.0773 0.11596,-0.0773 0.0773,-0.0773 0.0773,-0.0773 0.11596,-0.03865 0.0386,-0.0773 0.0387,-0.0773 0.0387,-0.0773 v -0.0773 l 0.0386,-0.0773 0.0387,-0.0773 0.0386,-0.115948 0.0386,-0.115948 0.11596,-0.115948 0.0773,-0.115948 0.11596,-0.0773 0.15461,-0.115948 0.11595,-0.115948 0.11596,-0.115948 0.15461,-0.154598 0.11595,-0.115948 0.0387,-0.0773 0.0386,-0.0773 0.0387,-0.0773 0.0386,-0.115948 0.0386,-0.0773 0.0387,-0.0773 v -0.0773 l 0.0386,-0.115948 0.0773,-0.0773 0.0773,-0.0773 0.0773,-0.0773 0.0773,-0.03865 0.0773,-0.0773 0.11595,-0.0773 0.11596,-0.0773 0.0773,-0.0773 0.0387,-0.03865 0.0387,-0.0773 0.0386,-0.0773 0.0386,-0.115948 0.0387,-0.0773 0.0387,-0.0773 V 30.14641 l 0.0386,-0.0773 0.0773,-0.0773 0.0773,-0.0773 0.0773,-0.0773 0.0773,-0.0773 0.0773,-0.0773 0.0773,-0.0773 0.11596,-0.115948 0.0773,-0.0773 0.0773,-0.0773 0.0386,-0.115948 0.0386,-0.0773 0.0387,-0.0773 0.0386,-0.0773 0.0387,-0.0773 0.0387,-0.0773 v -0.115948 l 0.0773,-0.0773 0.0773,-0.0773 0.0773,-0.03865 0.0773,-0.0773 0.0773,-0.0773 0.0773,-0.0773 0.11596,-0.0773 0.0773,-0.0773 0.0387,-0.03865 0.0387,-0.115948 0.0386,-0.0773 0.0387,-0.0773 0.0386,-0.0773 0.0386,-0.0773 0.0387,-0.115948 0.0386,-0.0773 0.46382,-0.57974 0.38652,-0.541091 0.34787,-0.425143 0.30922,-0.386493 0.27056,-0.347844 0.19326,-0.270546 0.15461,-0.193247 0.15461,-0.154597 0.19326,-0.347844 0.19326,-0.309195 0.19326,-0.309195 0.19326,-0.309195 0.1546,-0.347844 0.19326,-0.309195 0.19326,-0.309194 0.27057,-0.347844 0.0773,-0.03865 0.0387,-0.0773 0.0773,-0.0773 0.0773,-0.115948 0.0773,-0.0773 0.11595,-0.03865 0.0773,-0.0773 0.11595,-0.0773 0.0387,-0.0773 v -0.0773 l 0.0387,-0.0773 0.0386,-0.0773 0.0386,-0.0773 0.0387,-0.0773 0.0386,-0.0773 0.0387,-0.115948 0.0387,-0.03865 0.0386,-0.03865 0.0387,-0.03865 h 0.0386 l 0.0773,-0.03865 0.0387,-0.03865 0.0773,-0.0773 0.0387,-0.03865 0.34786,-0.54109 0.27057,-0.463793 0.30921,-0.502441 0.42518,-0.61839 0.54112,-0.772987 0.77304,-1.082182 1.00496,-1.430026 1.35282,-1.855168 h 2.31912 2.31912 l 2.39642,0.03865 h 2.35777 l 2.35777,0.03865 2.39643,0.03865 2.35777,0.03865 2.39642,0.03865 -0.1546,0.231896 -0.11596,0.231897 -0.19326,0.270545 -0.15461,0.270545 -0.15461,0.270546 -0.1546,0.270545 -0.15461,0.270546 -0.19326,0.270545 -1.73934,2.434909 -1.39147,2.009767 -1.31417,1.816519 -1.31417,1.932468 -1.54608,2.241662 -1.9326,2.782753 -2.51238,3.671688 -3.20812,4.715221 v 0.193247 0.193247 0.193247 0.193246 0.231896 0.193247 0.231896 0.193247 l 0.0387,0.0773 0.0386,0.0773 0.0386,0.0773 0.0387,0.0773 0.0386,0.0773 v 0.0773 l 0.0387,0.115948 0.0387,0.115948 0.50247,0.270546 0.54113,0.309195 0.46383,0.270545 0.54112,0.309195 0.46383,0.270545 0.50247,0.270546 0.54113,0.309195 0.46383,0.270545 0.42517,0.154597 0.38652,0.0773 0.38652,0.115948 0.42517,0.115948 0.42517,0.115948 0.38652,0.115948 0.42517,0.115948 0.42518,0.154598 0.27056,0.154597 0.30922,0.193247 0.42517,0.154597 0.38652,0.193247 0.42517,0.154597 0.42517,0.193247 0.34787,0.154598 0.27056,0.154597 0.11596,0.03865 h 0.11596 l 0.11595,0.03865 0.11596,0.03865 0.11595,0.03865 0.15461,0.0773 0.11596,0.03865 0.11595,0.03865 0.19326,0.115948 0.19326,0.0773 0.19326,0.115948 0.23192,0.115948 0.19326,0.115948 0.23191,0.115948 0.19326,0.115948 0.19326,0.154597 0.19326,0.154598 0.19326,0.154597 0.19326,0.154597 0.19326,0.154598 0.15461,0.154597 0.19326,0.154598 0.23191,0.154597 0.23191,0.154597 0.15461,0.231897 0.11595,0.193246 0.19326,0.193247 0.15461,0.193247 0.15461,0.193247 0.19326,0.193246 0.15461,0.231896 0.23191,0.231897 v 0.154597 l 0.0386,0.115948 0.0386,0.154597 0.0387,0.154598 0.0773,0.115948 0.0387,0.154597 0.0386,0.115948 0.0773,0.193247 v 2.318961 2.318961 2.357611 2.35761 2.318961 l -0.0387,2.35761 v 2.357611 l -0.0387,2.318961 h -2.16451 l -2.20316,0.03865 h -2.12586 l -2.16451,0.03865 -2.16452,0.03865 h -2.16451 l -2.12586,0.03865 z"
     id="path43"
     inkscape:connector-curvature="0" />
  <path
     style="fill:#0000ff;fill-opacity:1;fill-rule:evenodd;stroke:none"
     d="M 173.27692,68.177455 V 63.307636 58.437818 53.568 48.659532 43.789714 38.881247 33.972779 29.102961 h 2.04855 2.00991 2.04855 2.04856 2.0099 2.04856 2.04855 2.04856 l 0.0386,0.61839 0.0386,0.618389 0.0387,0.61839 0.0386,0.618389 0.0386,0.657039 0.0387,0.657039 v 0.657039 l 0.0386,0.61839 0.30922,-0.193247 0.23191,-0.231896 0.23191,-0.231896 0.27057,-0.231896 0.27056,-0.231896 0.27057,-0.270546 0.27056,-0.270545 0.27056,-0.231896 0.30922,-0.193247 0.23191,-0.154597 0.23191,-0.0773 0.11596,-0.154597 0.11596,-0.0773 0.0773,-0.0773 0.0773,-0.115948 0.11596,-0.115948 0.27056,-0.154597 0.27057,-0.115948 0.30921,-0.154598 0.30922,-0.154597 0.27056,-0.154598 0.30922,-0.193246 0.34787,-0.154598 0.30921,-0.154597 0.30922,-0.115948 0.30922,-0.115948 0.34786,-0.0773 0.30922,-0.115948 0.30922,-0.115948 0.34786,-0.115948 0.34787,-0.0773 0.30922,-0.154597 h 0.34787 0.38652 0.34786 0.34787 l 0.34787,-0.03865 h 0.38652 l 0.34787,-0.03865 h 0.34787 v 1.159481 1.198129 1.19813 1.19813 1.19813 1.19813 1.236779 1.19813 h -0.50248 -0.46382 -0.54113 l -0.50248,0.03865 h -0.54113 -0.50247 l -0.54113,0.03865 -0.54113,0.03865 -0.34787,0.03865 -0.42517,0.0773 -0.38652,0.0773 -0.42517,0.0773 -0.42517,0.0773 -0.38652,0.115948 -0.42517,0.115948 -0.42518,0.0773 -0.23191,0.115948 -0.23191,0.115948 -0.19326,0.115948 -0.27056,0.115948 -0.27057,0.115948 -0.23191,0.115948 -0.23191,0.115948 -0.23191,0.193247 -0.15461,0.115948 -0.15461,0.154598 -0.15461,0.154597 -0.15461,0.115948 -0.1546,0.154597 -0.15461,0.154598 -0.15461,0.154597 -0.19326,0.193247 -0.0773,0.193247 -0.11596,0.193247 -0.11596,0.193246 -0.1546,0.154598 -0.0773,0.193246 -0.11595,0.193247 -0.11596,0.231896 -0.0773,0.193247 -0.0387,3.091948 -0.0386,3.130597 -0.0386,3.053299 -0.0387,3.130598 -0.0773,3.053298 -0.0387,3.130598 -0.0386,3.091948 -0.0773,3.091948 h -2.00991 l -1.97125,0.03865 h -2.0099 l -2.00991,0.03865 -1.97125,0.03865 h -2.04856 l -1.97125,0.03865 z"
     id="path45"
     inkscape:connector-curvature="0" />
  <path
     style="fill:#0000ff;fill-opacity:1;fill-rule:evenodd;stroke:none"
     d="m 309.1387,67.984208 -0.19326,-0.03865 h -0.19326 l -0.19326,-0.03865 -0.19326,-0.03865 -0.19326,-0.0773 -0.19326,-0.03865 -0.19326,-0.03865 -0.19326,-0.03865 -0.38652,-0.193247 -0.34787,-0.154597 -0.34787,-0.193247 -0.34787,-0.193247 -0.38652,-0.231896 -0.34787,-0.231896 -0.34786,-0.193247 -0.38652,-0.231896 -0.15461,-0.231896 -0.15461,-0.231896 -0.15461,-0.309195 -0.15461,-0.231896 -0.1546,-0.270545 -0.19326,-0.270546 -0.19326,-0.270545 -0.19326,-0.309195 -0.0387,-0.115948 -0.0386,-0.154597 -0.0387,-0.154598 -0.0773,-0.154597 -0.0773,-0.115948 -0.0387,-0.154598 -0.0773,-0.193246 -0.0773,-0.193247 V 57.12374 51.519584 45.915429 40.311273 34.707117 l -0.0387,-5.604156 -0.0386,-5.604156 V 17.856 h 1.97125 2.04856 2.04855 2.00991 2.0872 2.04856 2.0099 2.08721 v 1.391377 1.430026 1.430026 1.391376 1.391377 1.391376 1.391377 1.430026 h 1.12091 1.12091 1.12091 1.1209 1.08226 1.12091 1.12091 1.1209 l -0.0386,0.927584 -0.0387,0.927585 -0.0387,0.966234 -0.0386,0.888935 -0.0387,0.966233 -0.0386,0.927585 -0.0387,0.966234 -0.0387,0.888935 h -1.08226 l -1.08225,0.03865 h -1.08226 l -1.08226,0.03865 -1.0436,0.03865 h -1.08226 l -1.08225,0.0773 -1.08226,0.03865 v 2.125714 2.164364 2.203013 2.164363 2.125715 l 0.0387,2.164363 v 2.164364 l 0.0387,2.125714 0.0387,0.347844 0.0386,0.347845 0.0387,0.309194 0.0387,0.309195 0.0387,0.347844 0.0773,0.309195 0.0387,0.309195 0.0773,0.347844 0.0773,0.193247 0.0773,0.193247 0.0387,0.193246 0.11595,0.193247 0.0773,0.193247 0.0773,0.193247 0.0773,0.270545 0.0387,0.193247 0.1546,0.115948 0.15461,0.115948 0.11596,0.115948 0.15461,0.154597 0.11595,0.115948 0.15461,0.154598 0.19326,0.154597 0.11596,0.154598 1.08225,0.193246 0.85035,0.193247 0.73438,0.115948 0.61844,0.115948 0.65708,0.115948 0.69574,0.0773 0.92764,0.154597 1.15956,0.193247 -0.0386,0.888935 -0.0387,0.966234 -0.0387,0.927584 -0.0386,0.927585 -0.0387,0.927584 -0.0386,0.927585 -0.0387,0.966233 -0.0387,0.927585 h -2.28047 -2.31912 -2.35777 -2.31912 -2.31912 -2.31912 -2.35777 z"
     id="path47"
     inkscape:connector-curvature="0" />
  <path
     style="fill:#0000ff;fill-opacity:1;fill-rule:evenodd;stroke:none"
     d="M 333.79867,68.177455 V 61.29787 54.418286 47.538701 40.659117 33.779532 26.899948 19.981714 13.10213 h 1.9326 1.97125 1.9326 2.00991 1.97125 1.97125 1.97125 1.97126 v 6.802286 6.879584 6.802286 6.879584 6.840935 l 0.0387,6.879585 v 6.840935 l 0.0387,6.879584 -1.9326,0.03865 -2.0099,0.03865 -1.97126,0.03865 -1.97125,0.03865 h -2.0099 l -1.97125,0.03865 -1.97126,0.03865 z"
     id="path49"
     inkscape:connector-curvature="0" />
  <path
     style="fill:#0000ff;fill-opacity:1;fill-rule:evenodd;stroke:none"
     d="m 364.2951,68.177455 v -1.545974 -1.584624 -1.507325 l -0.0387,-1.545974 -0.0386,-1.545974 -0.0387,-1.623272 v -1.545974 l -0.0387,-1.584624 -0.11595,-0.347844 -0.11596,-0.309195 -0.11596,-0.309194 -0.11595,-0.309195 -0.11596,-0.347844 -0.15461,-0.309195 -0.11595,-0.347844 -0.11596,-0.309195 -0.15461,-0.115948 -0.1546,-0.193247 -0.15461,-0.154597 -0.15461,-0.115948 -0.19326,-0.154598 -0.19326,-0.154597 -0.19326,-0.193247 -0.15461,-0.154597 -0.34787,-0.193247 -0.34786,-0.270546 -0.38652,-0.193246 -0.38652,-0.231896 -0.34787,-0.231897 -0.38652,-0.231896 -0.38652,-0.270545 -0.38652,-0.231896 -0.57978,-0.193247 -0.46383,-0.193247 -0.42517,-0.154597 -0.46382,-0.193247 -0.38652,-0.231896 -0.42517,-0.154597 -0.54113,-0.193247 -0.54113,-0.193247 -0.15461,-0.0773 -0.19326,-0.0773 -0.15461,-0.0773 -0.1546,-0.0773 -0.15461,-0.0773 -0.19326,-0.0773 -0.15461,-0.154598 -0.19326,-0.0773 -0.0387,-0.03865 -0.0386,-0.03865 v -0.03865 l -0.0387,-0.03865 -0.0387,-0.03865 -0.0773,-0.0773 -0.0387,-0.03865 -0.0387,-0.0773 -0.0773,-0.03865 -0.0773,-0.03865 h -0.0387 l -0.0773,-0.03865 -0.11596,-0.03865 -0.0773,-0.03865 -0.0773,-0.03865 -0.11596,-0.03865 -0.19326,-0.231896 -0.11596,-0.231896 -0.11595,-0.193247 -0.15461,-0.193247 -0.11596,-0.193247 -0.11595,-0.231896 -0.15461,-0.309195 -0.19326,-0.463792 V 44.833226 44.56268 44.292135 43.98294 43.673745 43.4032 43.132654 42.82346 l 0.0773,-0.231897 0.0773,-0.231896 0.0773,-0.193246 0.0773,-0.231897 0.0773,-0.309194 0.0773,-0.231896 0.11596,-0.231897 0.0773,-0.231896 0.19326,-0.270545 0.11596,-0.270546 0.15461,-0.270545 0.15461,-0.270545 0.1546,-0.270546 0.15461,-0.270545 0.15461,-0.347845 0.15461,-0.270545 0.0773,-0.03865 0.0387,-0.03865 h 0.0387 l 0.0386,-0.03865 0.0773,-0.03865 0.0387,-0.03865 0.0387,-0.03865 0.0773,-0.03865 0.11596,-0.193247 0.11595,-0.154598 0.0773,-0.231896 0.11595,-0.231896 0.11596,-0.193247 0.11595,-0.193246 0.15461,-0.193247 0.15461,-0.231896 0.11596,-0.154598 0.11595,-0.0773 0.0773,-0.115948 0.11595,-0.115948 0.11596,-0.115948 0.11595,-0.115948 0.15461,-0.115949 0.11596,-0.154597 0.0386,-0.0773 0.0387,-0.0773 0.0387,-0.0773 0.0387,-0.03865 0.0387,-0.154598 0.0773,-0.0773 0.0387,-0.0773 V 35.13226 l 0.19326,-0.154598 0.19326,-0.193246 0.19326,-0.154598 0.19326,-0.193247 0.19326,-0.231896 0.27057,-0.193246 0.19326,-0.193247 0.19326,-0.193247 0.0387,-0.0773 0.0386,-0.0773 0.0387,-0.0773 0.0387,-0.0773 0.0387,-0.0773 0.0387,-0.0773 0.0386,-0.115948 0.0387,-0.115948 0.42518,-0.463792 0.50247,-0.463793 0.46383,-0.463792 0.50247,-0.463792 0.42517,-0.463792 0.46383,-0.502442 0.50247,-0.425143 0.42518,-0.502441 h 1.97125 1.9326 l 2.0099,0.03865 h 1.9326 l 1.97125,0.0773 2.00991,0.03865 1.97125,0.03865 1.97125,0.03865 -0.15461,0.154597 -0.11595,0.193247 -0.23191,0.154597 -0.15461,0.193247 -0.15461,0.154598 -0.19326,0.193246 -0.15461,0.193247 -0.19326,0.193247 -0.0387,0.115948 -0.0773,0.0773 -0.11596,0.115948 -0.0773,0.115948 -0.0773,0.115948 -0.0387,0.115948 -0.0773,0.115948 -0.0773,0.193247 -0.15461,0.154597 -0.1546,0.115948 -0.15461,0.154597 -0.15461,0.154598 -0.15461,0.154597 -0.23191,0.154598 -0.15461,0.154597 -0.19326,0.193247 -0.42517,0.57974 -0.50248,0.57974 -0.46382,0.579741 -0.46382,0.57974 -0.50248,0.657039 -0.46382,0.57974 -0.50248,0.61839 -0.50248,0.618389 -0.38652,0.695689 -0.34786,0.502441 -0.23192,0.425143 -0.19326,0.309195 -0.1546,0.231896 -0.15461,0.193247 -0.15461,0.193246 -0.19326,0.231897 -0.0387,0.231896 -0.11596,0.231896 -0.0773,0.231896 -0.0773,0.231896 -0.0773,0.270545 -0.0387,0.231897 -0.0773,0.231896 -0.0773,0.231896 v 0.193246 0.193247 0.231896 0.193247 0.193247 0.231896 0.193247 0.193246 l 0.15461,0.193247 0.19326,0.154598 0.19326,0.115948 0.19326,0.154597 0.15461,0.154597 0.19326,0.154598 0.1546,0.154597 0.19326,0.231896 0.73439,0.309195 0.57978,0.270546 0.46383,0.231896 0.38652,0.154597 0.38652,0.154598 0.46382,0.193246 0.46382,0.154598 0.65709,0.231896 0.15461,0.03865 0.1546,0.03865 0.15461,0.03865 0.15461,0.03865 0.19326,0.03865 h 0.15461 l 0.23191,0.03865 0.15461,0.03865 0.27056,0.154598 0.27057,0.115948 0.30921,0.154597 0.38652,0.154598 0.34787,0.154597 0.38652,0.193247 0.46382,0.193246 0.42518,0.231897 0.19326,0.193246 0.19326,0.270546 0.19326,0.193246 0.23191,0.231897 0.19326,0.193246 0.19326,0.193247 0.23191,0.231896 0.19326,0.231896 0.0387,0.193247 0.0387,0.193247 0.0387,0.193247 0.0387,0.193246 0.0386,0.193247 0.0773,0.231896 0.0773,0.231896 0.0773,0.193247 v 1.971117 1.971117 2.009766 1.971117 l -0.0387,1.971117 v 1.971117 l -0.0387,2.009766 v 1.971117 h -1.9326 l -1.9326,0.03865 h -1.89395 l -1.9326,0.03865 -1.89395,0.03865 h -1.97125 l -1.89395,0.03865 z"
     id="path51"
     inkscape:connector-curvature="0" />
  <path
     style="fill:#0000ff;fill-opacity:1;fill-rule:evenodd;stroke:none"
     d="M 383.81436,68.177455 V 63.307636 58.437818 53.568 48.659532 43.789714 38.881247 33.972779 29.102961 h 1.97125 2.00991 2.0099 1.97125 2.00991 2.0099 2.0099 2.04856 l 0.0387,0.61839 0.0386,0.618389 0.0387,0.61839 0.0387,0.618389 v 0.657039 l 0.0387,0.657039 0.0387,0.657039 0.0386,0.61839 0.11596,-0.0773 0.11596,-0.0773 0.0773,-0.03865 0.11596,-0.0773 0.11595,-0.0773 0.0773,-0.0773 0.1546,-0.0773 0.11596,-0.03865 0.11596,-0.154597 0.1546,-0.154598 0.15461,-0.154597 0.15461,-0.154598 0.11596,-0.231896 0.1546,-0.154597 0.19326,-0.193247 0.19326,-0.154597 0.50248,-0.270546 0.46382,-0.347844 0.54113,-0.270545 0.50248,-0.270546 0.50247,-0.309195 0.50248,-0.270545 0.50248,-0.347844 0.50247,-0.309195 0.30922,-0.0773 0.30921,-0.0773 0.38652,-0.0773 0.30922,-0.0773 0.30922,-0.0773 0.30921,-0.0773 0.34787,-0.0773 0.30922,-0.154597 h 0.34786 0.34787 0.38652 0.34787 l 0.34787,-0.03865 h 0.38652 l 0.34787,-0.03865 h 0.34786 v 1.159481 1.198129 1.19813 1.19813 1.19813 1.19813 1.236779 1.19813 h -0.42517 -0.50247 -0.46383 l -0.46382,0.03865 h -0.50248 -0.46382 l -0.46383,0.03865 -0.54112,0.03865 -0.38652,0.03865 -0.38652,0.0773 -0.42518,0.0773 -0.38652,0.0773 -0.38652,0.0773 -0.42517,0.115948 -0.42517,0.115948 -0.42517,0.0773 -0.65709,0.309195 -0.46382,0.270545 -0.38652,0.193247 -0.30922,0.154597 -0.23191,0.154598 -0.23191,0.154597 -0.30922,0.193247 -0.30921,0.193247 -0.15461,0.309195 -0.19326,0.270545 -0.15461,0.309195 -0.19326,0.309195 -0.23191,0.270545 -0.15461,0.309195 -0.19326,0.347844 -0.15461,0.309195 -0.0387,2.976 -0.0386,3.091948 -0.0387,3.014649 -0.0387,3.053299 -0.0387,3.053299 v 3.091948 l -0.0386,3.014649 -0.0387,3.091948 -2.04856,0.03865 -1.97125,0.03865 -2.04855,0.03865 -2.04856,0.03865 h -2.0099 l -2.04856,0.03865 -2.04856,0.03865 z"
     id="path53"
     inkscape:connector-curvature="0" />
  <path
     style="fill:#0000ff;fill-opacity:1;fill-rule:evenodd;stroke:none"
     d="M 517.16376,68.177455 V 64.737662 61.29787 l -0.0387,-3.401143 -0.0386,-3.439792 v -3.478441 l -0.0387,-3.439793 -0.0387,-3.478441 -0.0386,-3.439792 -0.0386,-0.03865 -0.0387,-0.0773 -0.0387,-0.115948 v -0.0773 l -0.0773,-0.0773 -0.0386,-0.0773 -0.0387,-0.115948 -0.0387,-0.0773 -0.23191,-0.193247 -0.27056,-0.154598 -0.23191,-0.193246 -0.23192,-0.193247 -0.30921,-0.193247 -0.23191,-0.193247 -0.23192,-0.154597 -0.27056,-0.193247 h -0.57978 -0.57978 -0.61843 -0.57978 -0.61843 -0.57978 -0.65709 -0.57978 l -0.11595,0.03865 -0.11596,0.03865 -0.11596,0.03865 -0.11595,0.03865 -0.19326,0.03865 -0.11596,0.03865 -0.15461,0.03865 -0.11595,0.03865 -0.34787,0.154597 -0.30922,0.193247 -0.34786,0.193247 -0.30922,0.193247 -0.30922,0.193246 -0.30921,0.193247 -0.34787,0.193247 -0.30922,0.193247 -0.0773,3.439792 -0.0773,3.439792 -0.0773,3.401143 -0.0773,3.401143 -0.0386,3.439792 -0.0773,3.439792 -0.0773,3.401143 -0.0773,3.401143 h -2.0099 l -2.0099,0.03865 h -1.97126 l -2.0099,0.03865 h -1.97125 l -2.04856,0.03865 -2.0099,0.0773 -2.00991,0.03865 v -3.362493 -3.362494 l -0.0386,-3.401143 v -3.323844 l -0.0387,-3.401143 -0.0387,-3.401143 -0.0386,-3.362493 -0.0387,-3.362494 -0.0773,-0.154597 -0.0773,-0.154597 -0.0773,-0.115949 -0.0773,-0.193246 -0.0773,-0.154598 -0.0773,-0.154597 -0.11596,-0.154597 -0.0773,-0.193247 -0.15461,-0.115948 -0.15461,-0.154598 -0.1546,-0.154597 -0.19326,-0.154597 -0.19326,-0.154598 -0.15461,-0.115948 -0.19326,-0.154597 -0.15461,-0.154598 h -0.42517 -0.46383 -0.42517 -0.42517 -0.46382 -0.42518 -0.50247 -0.42517 l -0.19326,0.03865 -0.19326,0.03865 -0.19326,0.03865 -0.23192,0.03865 -0.19326,0.03865 -0.19326,0.03865 -0.23191,0.03865 -0.19326,0.03865 -0.38652,0.115948 -0.34787,0.154598 -0.34786,0.193246 -0.34787,0.193247 -0.38652,0.154597 -0.34787,0.154598 -0.34787,0.193247 -0.38652,0.154597 h -0.11595 l -0.11596,0.03865 h -0.11596 l -0.0773,0.03865 -0.11596,0.03865 h -0.1546 l -0.11596,0.03865 -0.11596,0.03865 -0.0387,3.439792 -0.0387,3.439792 -0.0386,3.401143 -0.0387,3.401143 -0.0387,3.439792 -0.0773,3.439792 -0.0387,3.401143 -0.0387,3.401143 h -1.9326 l -2.00991,0.03865 h -1.97125 l -2.04856,0.03865 h -2.0099 l -1.97125,0.03865 -2.04856,0.0773 -2.0099,0.03865 V 63.07574 58.244571 53.374753 48.543584 43.673766 38.803948 33.93413 29.102961 h 2.0099 2.04856 2.0099 2.04856 2.04855 2.04856 2.04856 2.0872 v 0.231896 l -0.0387,0.231896 v 0.231896 l -0.0387,0.231896 -0.0386,0.231897 v 0.270545 l -0.0387,0.231896 -0.0387,0.270546 v 0.386493 0.425143 l 0.0387,0.347844 v 0.386494 l 0.0387,0.425142 0.0386,0.386494 0.0387,0.386493 0.0387,0.386494 1.04361,-0.61839 0.77304,-0.463792 0.69573,-0.425143 0.50248,-0.309195 0.54113,-0.270545 0.50247,-0.231896 0.61844,-0.347844 0.77304,-0.386494 0.46382,-0.154597 0.46382,-0.115948 0.46383,-0.154598 0.50247,-0.154597 0.46383,-0.193247 0.46382,-0.154597 0.54113,-0.154598 0.46382,-0.154597 0.34787,-0.0773 0.38652,-0.0773 0.34787,-0.0773 0.34787,-0.0773 0.38652,-0.0773 0.34787,-0.0773 0.34786,-0.0773 0.34787,-0.154597 0.50248,-0.03865 0.46382,-0.03865 0.50248,-0.03865 0.46382,-0.03865 0.46383,-0.03865 h 0.50247 l 0.46383,-0.03865 0.54112,-0.03865 0.34787,0.03865 0.38652,0.03865 h 0.38652 l 0.46383,0.03865 0.38652,0.03865 0.38652,0.03865 0.46382,0.03865 0.38652,0.03865 0.50248,0.193246 0.46382,0.154598 0.46382,0.154597 0.50248,0.154598 0.46382,0.154597 0.46383,0.193247 0.50247,0.154597 0.50248,0.231896 0.11596,0.0773 0.1546,0.115948 0.19326,0.115948 0.15461,0.115948 0.19326,0.115948 0.15461,0.115948 0.15461,0.115948 0.11595,0.154598 0.0773,0.03865 0.0773,0.03865 h 0.0387 l 0.0773,0.03865 0.15461,0.03865 0.0773,0.03865 0.0773,0.0773 0.11596,0.03865 0.23191,0.231896 0.27057,0.270545 0.27056,0.270546 0.30922,0.270545 0.27056,0.309195 0.27056,0.270545 0.27057,0.270546 0.30921,0.270545 h 0.11596 0.11596 0.0773 0.11596 0.11595 0.11596 0.15461 0.11595 l 0.11596,-0.0773 0.19326,-0.115949 0.15461,-0.115948 0.19326,-0.115948 0.1546,-0.115948 0.19326,-0.115948 0.11596,-0.115948 0.15461,-0.154597 0.65708,-0.386494 0.61843,-0.347844 0.65709,-0.347844 0.61843,-0.386494 0.69574,-0.347844 0.61843,-0.347844 0.65708,-0.347844 0.61843,-0.386493 1.27552,-0.386494 1.00495,-0.309195 0.73439,-0.270545 0.57978,-0.193247 0.50248,-0.115948 0.38652,-0.115948 0.46382,-0.115948 0.57978,-0.115948 h 0.61843 0.69574 0.61843 0.69574 0.69573 0.65709 0.69573 0.65709 l 0.88899,0.115948 0.61843,0.115948 0.54113,0.0773 0.34787,0.03865 0.30922,0.0773 0.30921,0.0773 0.23191,0.0773 0.30922,0.0773 0.46382,0.270545 0.38652,0.154598 0.27057,0.154597 0.30921,0.193247 0.30922,0.193247 0.42517,0.231896 0.46383,0.347844 0.65708,0.386493 0.11596,0.115948 0.11595,0.115948 0.11596,0.0773 0.0773,0.115948 0.11596,0.115948 0.15461,0.154598 0.11595,0.154597 0.11596,0.115948 0.19326,0.231896 0.15461,0.193247 0.11595,0.231896 0.15461,0.193247 0.15461,0.270545 0.15461,0.231896 0.1546,0.231896 0.19326,0.231897 v 11.092363 l 0.0387,8.34826 v 5.990649 4.019533 2.434909 1.275428 l -0.0387,0.502442 v 0.115948 l -1.9326,0.03865 -1.97125,0.03865 -1.9326,0.115948 -2.0099,0.03865 -1.9326,0.0773 -2.00991,0.0773 -1.97125,0.03865 z"
     id="path55"
     inkscape:connector-curvature="0" />
  <path
     style="fill:#0000ff;fill-opacity:1;fill-rule:evenodd;stroke:none"
     d="M 591.25964,68.177455 V 63.307636 58.437818 53.568 48.659532 43.789714 38.881247 33.972779 29.102961 h 2.00991 1.97125 2.0099 2.00991 1.97125 2.04856 1.97125 2.04855 l 0.0387,0.61839 0.0386,0.618389 0.0387,0.61839 0.0386,0.618389 v 0.657039 l 0.0386,0.657039 0.0387,0.657039 0.0386,0.61839 0.23191,-0.193247 0.30922,-0.231896 0.23191,-0.231896 0.23191,-0.231896 0.27056,-0.231896 0.27057,-0.270546 0.23191,-0.270545 0.27056,-0.231896 0.30922,-0.231896 0.30922,-0.193247 0.38652,-0.270546 0.34786,-0.231896 0.30922,-0.231896 0.38652,-0.270545 0.34787,-0.231896 0.34787,-0.270546 0.42517,-0.154597 0.46382,-0.115948 0.42517,-0.154598 0.46383,-0.154597 0.42517,-0.115948 0.42517,-0.154597 0.50248,-0.115949 0.42517,-0.193246 h 0.30922 0.27056 0.34787 0.30921 l 0.30922,-0.03865 h 0.30922 l 0.34786,-0.03865 h 0.30922 v 1.159481 1.198129 1.19813 1.19813 1.19813 1.19813 1.236779 1.19813 h -0.42517 -0.46383 -0.38652 l -0.42517,0.03865 h -0.46382 -0.42517 l -0.42518,0.03865 -0.46382,0.03865 -0.42517,0.0773 -0.50248,0.115948 -0.46382,0.115948 -0.46383,0.154597 -0.50247,0.115948 -0.46383,0.115948 -0.46382,0.115948 -0.54113,0.154598 -0.15461,0.0773 -0.11595,0.03865 -0.19326,0.0773 -0.15461,0.0773 -0.15461,0.0773 -0.23191,0.115948 -0.15461,0.0773 -0.19326,0.154597 -0.11595,0.115948 -0.15461,0.154598 -0.11596,0.154597 -0.15461,0.115948 -0.19326,0.154597 -0.1546,0.154598 -0.15461,0.154597 -0.19326,0.193247 -0.19326,0.386494 -0.19326,0.309194 -0.11596,0.231896 -0.11595,0.231897 -0.15461,0.270545 -0.0773,0.270545 -0.1546,0.347845 -0.15461,0.425142 -0.0386,2.976 -0.0387,2.937351 v 3.014649 l -0.0386,2.937351 -0.0386,2.937351 -0.0387,3.014649 -0.0386,2.937351 -0.0387,3.014649 -2.0099,0.03865 -1.9326,0.03865 -2.0099,0.03865 -1.9326,0.03865 h -2.00991 l -2.0099,0.03865 -1.9326,0.03865 z"
     id="path57"
     inkscape:connector-curvature="0" />
  <path
     style="fill:#ffffff;fill-opacity:1;fill-rule:evenodd;stroke:none"
     d="M 68.723256,66.747429 68.41404,66.554182 68.104824,66.399584 67.756956,66.244987 67.44774,66.09039 67.099872,65.935792 66.790656,65.742545 66.442788,65.587948 66.133572,65.394701 65.669748,65.201455 65.205924,65.008208 64.7421,64.85361 64.278276,64.660364 63.7758,64.467117 63.311976,64.27387 62.770848,64.041974 62.307024,63.848727 62.03646,63.69413 61.688592,63.539532 61.379376,63.384935 61.07016,63.230338 60.760944,63.07574 60.413076,62.882494 60.10386,62.689247 59.794644,62.496 l -0.154608,-0.0773 -0.19326,-0.03865 -0.19326,-0.0773 -0.231912,-0.0773 -0.231912,-0.0773 -0.19326,-0.0773 -0.19326,-0.03865 -0.231912,-0.0773 -1.816644,-0.888935 -1.35282,-0.61839 -1.043604,-0.502441 -0.695736,-0.309195 -0.502476,-0.231896 -0.38652,-0.115948 -0.309216,-0.115948 -0.347868,-0.154598 -0.270564,-0.115948 -0.309216,-0.154597 -0.270564,-0.154597 -0.309216,-0.154598 -0.347868,-0.193247 -0.309216,-0.154597 -0.309216,-0.193247 -0.309216,-0.193246 -0.231912,-0.0773 -0.19326,-0.0773 -0.19326,-0.0773 -0.19326,-0.03865 -0.19326,-0.0773 -0.231912,-0.0773 -0.231912,-0.0773 -0.19326,-0.0773 -1.855296,-0.888935 -1.584732,-0.657039 -1.314168,-0.618389 -1.236864,-0.541091 -1.198212,-0.579741 -1.35282,-0.57974 -1.507428,-0.734337 -1.855296,-0.850286 -0.115956,-0.0773 -0.115956,-0.03865 -0.115956,-0.03865 h -0.115956 l -0.115956,-0.03865 -0.115956,-0.03865 -0.115956,-0.03865 -0.154608,-0.03865 L 34.477584,51.21039 34.129716,51.055792 33.859152,50.901195 33.549936,50.746597 33.24072,50.592 32.892852,50.360104 32.583636,50.205506 32.27442,50.01226 31.655988,49.819013 31.11486,49.587117 30.573732,49.39387 30.071256,49.123325 29.607432,48.930078 29.143608,48.775481 28.718436,48.620883 28.331916,48.504935 28.0227,48.350338 27.713484,48.19574 l -0.309216,-0.154597 -0.309216,-0.193247 -0.270564,-0.193247 -0.38652,-0.154597 -0.309216,-0.154597 -0.309216,-0.193247 -0.57978,-0.193247 -0.811692,-0.386493 -1.120908,-0.463793 -1.15956,-0.541091 -1.198212,-0.54109 -1.082256,-0.463793 -0.888996,-0.347844 -0.541128,-0.231896 -0.618432,-0.309195 -0.618432,-0.270545 -0.618432,-0.270546 -0.618432,-0.347844 -0.618432,-0.270545 -0.618432,-0.309195 -0.657084,-0.309195 -0.618432,-0.347844 v -0.0773 -0.115948 l 0.03865,-0.115948 v -0.115948 l 0.03865,-0.115948 0.03865,-0.115948 0.03865,-0.115948 0.03865,-0.154597 0.77304,-0.425143 0.657084,-0.309195 0.657084,-0.309195 0.618432,-0.270545 0.657084,-0.309195 0.695736,-0.309195 0.77304,-0.386494 0.927648,-0.463792 0.19326,-0.0773 0.154608,-0.0773 0.19326,-0.0773 0.231912,-0.0773 0.19326,-0.03865 0.231912,-0.0773 0.231912,-0.0773 0.19326,-0.0773 0.270564,-0.154597 0.309216,-0.115948 0.309216,-0.193247 0.309216,-0.193247 0.309216,-0.154597 0.309216,-0.193247 0.347868,-0.154597 0.347868,-0.193247 0.154608,-0.03865 0.19326,-0.0773 0.19326,-0.0773 0.19326,-0.0773 0.231912,-0.0773 0.231912,-0.03865 0.19326,-0.115948 0.19326,-0.0773 0.347868,-0.154597 0.347868,-0.154597 0.309216,-0.154598 0.309216,-0.154597 0.309216,-0.154598 0.347868,-0.193246 0.309216,-0.193247 0.309216,-0.193247 0.19326,-0.0773 0.231912,-0.03865 0.19326,-0.0773 0.19326,-0.0773 0.19326,-0.0773 0.231912,-0.0773 0.19326,-0.03865 0.231912,-0.0773 0.309216,-0.154597 0.270564,-0.154597 0.309216,-0.193247 0.347868,-0.154598 0.309216,-0.154597 0.309216,-0.193247 0.309216,-0.154597 0.347868,-0.193247 0.19326,-0.0773 0.154608,-0.03865 0.19326,-0.0773 0.19326,-0.0773 0.231912,-0.115948 0.231912,-0.0773 0.19326,-0.03865 0.231912,-0.0773 0.734388,-0.347844 0.77304,-0.347845 0.77304,-0.386493 0.734388,-0.386494 0.77304,-0.347844 0.77304,-0.347844 0.695736,-0.425143 0.77304,-0.386493 0.19326,-0.0773 0.19326,-0.0773 0.19326,-0.03865 0.19326,-0.0773 0.231912,-0.0773 0.231912,-0.0773 0.19326,-0.115948 0.19326,-0.03865 2.241816,-1.043533 2.241816,-1.043532 2.203164,-1.043533 2.241816,-1.043532 2.280468,-1.043533 2.241816,-1.043532 2.280468,-1.043533 2.203164,-1.043532 0.154608,-0.03865 0.115956,-0.03865 h 0.115956 l 0.115956,-0.03865 0.115956,-0.03865 0.115956,-0.03865 0.115956,-0.03865 0.115956,-0.03865 0.850344,-0.425143 0.850344,-0.386493 0.811692,-0.386494 0.850344,-0.425142 0.850344,-0.386494 0.811692,-0.425143 0.850344,-0.425143 0.888996,-0.425142 0.309216,-0.0773 0.309216,-0.0773 0.309216,-0.0773 0.347868,-0.115948 0.347868,-0.0773 0.309216,-0.154598 0.309216,-0.0773 0.347868,-0.115948 -0.03865,1.932467 -0.03865,1.893818 -0.03865,1.893818 -0.03865,1.893819 -0.03865,1.932467 v 1.893818 l -0.0773,1.932468 -0.03865,1.932467 -5.488584,1.314078 -5.449932,1.314078 -5.527236,1.352727 -5.488584,1.314078 -5.488584,1.352728 -5.488584,1.314078 -5.527236,1.314078 -5.527236,1.352727 13.992024,3.362493 10.551996,2.512208 7.575792,1.81652 5.140716,1.236779 3.28542,0.772987 1.816644,0.425143 1.004952,0.193246 0.618432,0.154598 v 1.816519 1.855169 1.855169 1.855169 1.893818 l 0.03865,1.816519 v 1.893819 l 0.0773,1.855168 h -0.0773 l -0.03865,0.03865 h -0.03865 l -0.0773,0.0773 h -0.0773 l -0.03865,0.03865 -0.0773,0.03865 z"
     id="path59"
     inkscape:connector-curvature="0" />
  <path
     style="fill:#ffffff;fill-opacity:1;fill-rule:evenodd;stroke:none"
     d="m 14.88102,32.001662 v -2.512207 -2.473559 -2.473558 -2.473559 -2.512208 -2.473558 -2.473558 -2.473559 h 1.777992 1.816644 1.777992 1.855296 1.777992 1.855296 1.777992 1.855296 v 2.434909 2.434909 l -0.03865,2.473559 v 2.434909 l -0.0773,2.434909 -0.03865,2.473558 -0.03865,2.39626 v 2.473559 h -1.777992 l -1.73934,0.0773 -1.816644,0.03865 -1.777992,0.03865 -1.816644,0.03865 -1.777992,0.03865 -1.816644,0.03865 z"
     id="path61"
     inkscape:connector-curvature="0" />
  <path
     style="fill:#0000ff;fill-opacity:1;fill-rule:evenodd;stroke:none"
     d="m 213.32039,68.370701 -0.42517,-0.0773 -0.46383,-0.0773 -0.42517,-0.0773 -0.42517,-0.0773 -0.46383,-0.0773 -0.42517,-0.0773 -0.46382,-0.115948 -0.46383,-0.115948 -0.27056,-0.0773 -0.23191,-0.0773 -0.27057,-0.03865 -0.30921,-0.0773 -0.27057,-0.0773 -0.27056,-0.115948 -0.30922,-0.0773 -0.30921,-0.115948 -0.19326,-0.0773 -0.23191,-0.115948 -0.23192,-0.115948 -0.23191,-0.154597 -0.23191,-0.115948 -0.27056,-0.115948 -0.27057,-0.115948 -0.23191,-0.154598 -0.23191,-0.193246 -0.15461,-0.193247 -0.19326,-0.115948 -0.15461,-0.115948 -0.15461,-0.154598 -0.19326,-0.115948 -0.23191,-0.154597 -0.30921,-0.193247 -0.11596,-0.193247 -0.19326,-0.193246 -0.15461,-0.193247 -0.15461,-0.231896 -0.11595,-0.193247 -0.19326,-0.193247 -0.15461,-0.231896 -0.15461,-0.193247 -0.46382,-0.811636 -0.34787,-0.57974 -0.23191,-0.502442 -0.19326,-0.386493 -0.19326,-0.309195 -0.11596,-0.309195 -0.15461,-0.347844 -0.1546,-0.386494 -0.0773,-0.386493 -0.0386,-0.425143 -0.0773,-0.386494 -0.0773,-0.386493 -0.0773,-0.425143 -0.11596,-0.386493 -0.0773,-0.386494 -0.11596,-0.425143 V 56.157506 56.002909 55.809662 55.616416 55.34587 55.152623 54.959377 54.727481 l 0.11596,-0.502442 0.11595,-0.57974 0.11596,-0.541091 0.0773,-0.57974 0.11596,-0.579741 0.15461,-0.57974 0.11595,-0.57974 0.11596,-0.579741 0.15461,-0.193246 0.11595,-0.154598 0.0773,-0.115948 0.0773,-0.154597 0.0386,-0.115948 0.0773,-0.193247 0.0773,-0.270545 0.0773,-0.309195 0.1546,-0.270546 0.15461,-0.231896 0.15461,-0.231896 0.15461,-0.309195 0.23191,-0.231896 0.15461,-0.231896 0.15461,-0.270545 0.19326,-0.231896 0.27056,-0.270546 0.27056,-0.193247 0.34787,-0.231896 0.27057,-0.231896 0.30921,-0.231896 0.27057,-0.309195 0.34786,-0.231896 0.30922,-0.231896 0.27056,-0.154597 0.23192,-0.115948 0.30921,-0.154598 0.27057,-0.193247 0.27056,-0.115948 0.27056,-0.154597 0.27057,-0.115948 0.30921,-0.154597 0.50248,-0.115949 0.54113,-0.0773 0.50247,-0.115948 0.50248,-0.115948 0.57978,-0.115948 0.50248,-0.154598 0.57978,-0.154597 0.50247,-0.115948 2.47373,-0.03865 2.43508,-0.03865 2.47372,-0.03865 2.43508,-0.03865 2.47373,-0.03865 2.47373,-0.0773 2.47372,-0.03865 2.47373,-0.0773 V 41.818597 41.316156 40.852364 40.349922 39.88613 39.422338 38.919896 38.417455 l -0.0773,-0.193247 -0.0773,-0.154598 -0.0773,-0.231896 -0.0773,-0.231896 -0.0773,-0.193247 -0.11595,-0.193246 -0.11596,-0.193247 -0.0773,-0.231896 -0.0773,-0.115948 -0.0773,-0.0773 -0.0773,-0.03865 -0.0773,-0.0773 -0.0773,-0.115948 -0.0773,-0.0773 -0.0773,-0.0773 -0.11596,-0.115948 -0.27056,-0.115949 -0.30922,-0.154597 -0.30921,-0.154597 -0.27057,-0.115948 -0.27056,-0.193247 -0.30922,-0.115948 -0.30921,-0.154598 -0.27057,-0.154597 -0.34787,-0.03865 -0.38652,-0.0773 -0.34786,-0.0773 -0.34787,-0.0773 -0.38652,-0.0773 -0.34787,-0.03865 -0.34787,-0.0773 -0.34787,-0.0773 h -0.77304 -0.77304 -0.73438 -0.77304 -0.73439 -0.81169 -0.77304 -0.77304 l -0.57978,0.0773 -0.50248,0.0773 -0.57978,0.03865 -0.57978,0.0773 -0.57978,0.0773 -0.54113,0.0773 -0.57978,0.0773 -0.57978,0.03865 -0.88899,0.231896 -0.8117,0.231896 -0.88899,0.270546 -0.889,0.231896 -0.85034,0.231896 -0.889,0.231896 -0.88899,0.231896 -0.92765,0.270546 -0.0773,0.03865 -0.0386,0.03865 -0.0773,0.03865 -0.0773,0.03865 -0.0773,0.0773 -0.11596,0.03865 -0.0773,0.03865 -0.11596,0.0773 h -0.0773 l -0.11596,0.03865 h -0.11595 l -0.11596,0.03865 h -0.15461 l -0.11595,0.03865 -0.11596,0.03865 -0.15461,0.03865 V 36.446338 35.402805 34.436571 33.431688 32.426805 31.383273 30.37839 29.412156 l 0.92765,-0.270546 0.92765,-0.193246 0.889,-0.231896 0.92764,-0.193247 0.92765,-0.231896 0.9663,-0.231896 0.889,-0.270546 0.9663,-0.231896 0.69573,-0.115948 0.65709,-0.0773 0.69573,-0.115948 0.65709,-0.115948 0.69573,-0.115948 0.69574,-0.115948 0.69574,-0.193247 0.65708,-0.115948 1.39147,-0.0773 1.04361,-0.0773 0.85034,-0.03865 0.69574,-0.03865 0.61843,-0.03865 h 0.69573 0.73439 1.00495 l 0.38652,0.03865 0.46383,0.03865 h 0.42517 l 0.42517,0.03865 0.46383,0.03865 0.42517,0.03865 0.50247,0.03865 0.46383,0.03865 0.38652,0.0773 0.46382,0.115948 0.42517,0.0773 0.42518,0.03865 0.46382,0.115948 0.46382,0.0773 0.42518,0.0773 0.50247,0.115948 0.42517,0.115948 0.50248,0.154597 0.46382,0.154597 0.46383,0.154598 0.50247,0.115948 0.46383,0.193247 0.46382,0.193246 0.54113,0.154598 0.9663,0.425143 0.69574,0.386493 0.61843,0.270546 0.50247,0.231896 0.46383,0.270545 0.50247,0.231896 0.57978,0.386494 0.73439,0.386493 0.34787,0.309195 0.38652,0.347844 0.34787,0.309195 0.38652,0.347844 0.34787,0.309195 0.38652,0.347844 0.34786,0.309195 0.34787,0.309195 0.11596,0.231896 0.15461,0.270545 0.19326,0.270546 0.19326,0.270545 0.1546,0.231896 0.15461,0.270546 0.19326,0.309195 0.15461,0.270545 0.11596,0.425143 0.1546,0.425143 0.11596,0.463792 0.15461,0.425143 0.11595,0.463792 0.15461,0.425143 0.11596,0.425143 0.15461,0.502441 0.0387,0.347844 0.0386,0.347845 0.0386,0.386493 v 0.347844 l 0.0387,0.347844 0.0387,0.347845 0.0386,0.386493 0.0387,0.347844 v 2.512208 2.473558 2.473559 2.473558 2.512208 2.473559 2.473558 2.512208 l -0.0773,0.270545 -0.0773,0.270546 -0.0386,0.347844 -0.0773,0.309195 -0.0773,0.309195 -0.0773,0.309194 -0.0773,0.347844 -0.0386,0.309195 -0.0773,0.154598 -0.0773,0.154597 -0.0773,0.154597 -0.0773,0.154598 -0.0773,0.193247 -0.0773,0.193246 -0.15461,0.154598 -0.0773,0.193247 -0.27057,0.193246 -0.23191,0.231896 -0.23191,0.270546 -0.27057,0.231896 -0.27056,0.231896 -0.27056,0.231896 -0.27057,0.270546 -0.27056,0.270545 -0.15461,0.03865 -0.11596,0.03865 -0.19326,0.0773 -0.1546,0.03865 -0.15461,0.0773 -0.15461,0.03865 -0.15461,0.0773 -0.15461,0.0773 h -3.71059 -3.67194 -3.67194 -3.67194 -3.67194 -3.71059 -3.71059 z m 6.68679,-6.840935 -0.19326,-0.115948 -0.1546,-0.0773 -0.19326,-0.115948 -0.19326,-0.115948 -0.23192,-0.115948 -0.19326,-0.115948 -0.23191,-0.115948 -0.23191,-0.154597 -0.11596,-0.193247 -0.1546,-0.270545 -0.15461,-0.193247 -0.15461,-0.231896 -0.11596,-0.193247 -0.19326,-0.193247 -0.19326,-0.270545 -0.1546,-0.193247 -0.11596,-0.231896 -0.11596,-0.231896 -0.0773,-0.193247 -0.11596,-0.231896 -0.11595,-0.309195 -0.0773,-0.231896 -0.11595,-0.231896 -0.15461,-0.231896 V 56.544 56.157506 55.771013 55.34587 54.959377 54.572883 54.18639 53.761247 l 0.11596,-0.193247 0.0773,-0.154597 0.0773,-0.193247 0.0773,-0.193247 0.0773,-0.270545 0.0773,-0.193247 0.0773,-0.193247 0.11596,-0.231896 0.19326,-0.231896 0.23191,-0.309195 0.23191,-0.270545 0.23191,-0.270546 0.19326,-0.270545 0.23191,-0.270546 0.19326,-0.309195 0.19326,-0.270545 0.11596,-0.0773 0.15461,-0.0773 0.11595,-0.0773 0.11596,-0.0773 0.11596,-0.0773 0.11595,-0.0773 0.11596,-0.0773 0.11595,-0.115948 0.15461,-0.03865 0.15461,-0.03865 0.19326,-0.115948 0.15461,-0.03865 0.19326,-0.0773 0.15461,-0.03865 0.19326,-0.0773 0.1546,-0.0773 h 1.35282 1.39148 1.39147 1.35282 l 1.39147,-0.03865 h 1.35282 l 1.35282,-0.03865 h 1.39147 l -0.0386,1.545974 v 1.623273 1.584623 l -0.0387,1.584623 -0.0386,1.623273 -0.0387,1.584623 v 1.584624 l -0.0387,1.623273 h -1.43012 -1.46878 -1.46877 -1.46878 -1.46878 l -1.46877,0.03865 h -1.46878 z"
     id="path63"
     inkscape:connector-curvature="0" />
  <path
     style="fill:#0000ff;fill-opacity:1;fill-rule:evenodd;stroke:none"
     d="m 422.00254,68.370701 -0.42518,-0.0773 -0.42517,-0.0773 -0.46382,-0.0773 -0.42517,-0.0773 -0.42518,-0.0773 -0.46382,-0.0773 -0.46382,-0.115948 -0.42518,-0.115948 -0.65708,-0.193247 -0.50248,-0.193247 -0.42517,-0.154597 -0.34787,-0.154597 -0.38652,-0.154598 -0.42517,-0.193246 -0.46382,-0.270546 -0.61843,-0.309195 -0.23192,-0.115948 -0.19326,-0.154597 -0.19326,-0.154598 -0.19326,-0.154597 -0.19326,-0.115948 -0.23191,-0.193247 -0.23191,-0.193247 -0.19326,-0.154597 -0.15461,-0.154597 -0.15461,-0.154598 -0.11595,-0.154597 -0.15461,-0.154598 -0.15461,-0.193246 -0.15461,-0.193247 -0.19326,-0.154597 -0.19326,-0.193247 -0.11595,-0.270546 -0.15461,-0.270545 -0.15461,-0.347844 -0.19326,-0.270546 -0.15461,-0.270545 -0.19326,-0.309195 -0.19326,-0.347844 -0.1546,-0.309195 -0.0773,-0.270545 -0.0773,-0.309195 -0.11596,-0.347844 -0.0773,-0.270546 -0.11596,-0.309195 -0.0773,-0.309194 -0.11596,-0.347845 -0.11595,-0.347844 V 57.819421 57.085083 56.312096 55.577758 54.804771 54.031784 53.297447 52.52446 l 0.0773,-0.309195 0.0773,-0.309195 0.0773,-0.386494 0.0773,-0.309194 0.0387,-0.309195 0.0773,-0.309195 0.0773,-0.347844 0.0773,-0.309195 0.11595,-0.270545 0.0773,-0.309195 0.11595,-0.309195 0.11596,-0.270545 0.11595,-0.270546 0.15461,-0.270545 0.11596,-0.347845 0.15461,-0.270545 0.0773,-0.0773 0.0773,-0.0773 0.0387,-0.03865 0.0773,-0.0773 0.11596,-0.0773 0.0773,-0.0773 0.0773,-0.0773 0.11596,-0.03865 0.0387,-0.0773 0.0386,-0.0773 v -0.0773 l 0.0387,-0.0773 0.0387,-0.0773 0.0387,-0.115948 0.0773,-0.115949 0.0387,-0.0773 0.19326,-0.154598 0.1546,-0.115948 0.19326,-0.154597 0.23192,-0.154597 0.19326,-0.154598 0.19326,-0.154597 0.23191,-0.193247 0.23191,-0.193247 0.23191,-0.115948 0.27057,-0.154597 0.23191,-0.115948 0.27056,-0.154598 0.27057,-0.154597 0.27056,-0.115948 0.27056,-0.193247 0.30922,-0.115948 0.61843,-0.231896 0.50248,-0.154597 0.46382,-0.154598 0.42517,-0.115948 0.50248,-0.115948 0.57978,-0.154597 0.73439,-0.193247 0.92765,-0.231896 2.47372,-0.03865 2.43508,-0.03865 2.43508,-0.03865 2.47372,-0.03865 2.47373,-0.03865 2.43508,-0.0773 2.47373,-0.03865 2.51238,-0.0773 v -0.193246 l 0.0387,-0.231897 0.0387,-0.270545 0.0386,-0.231896 0.0773,-0.231896 0.0387,-0.231896 0.0386,-0.270546 0.0773,-0.270545 V 40.118026 39.88613 39.654234 39.422338 39.151792 38.919896 38.649351 38.417455 l -0.0773,-0.193247 -0.0386,-0.154598 -0.0773,-0.231896 -0.0773,-0.231896 -0.0773,-0.193247 -0.11596,-0.193246 -0.0773,-0.193247 -0.11596,-0.231896 -0.0387,-0.115948 -0.0773,-0.0773 -0.0773,-0.03865 -0.0773,-0.0773 -0.0773,-0.115948 -0.11595,-0.0773 -0.11596,-0.0773 -0.0773,-0.115948 -0.27057,-0.115949 -0.23191,-0.154597 -0.23191,-0.154597 -0.27057,-0.115948 -0.27056,-0.193247 -0.23191,-0.115948 -0.27057,-0.154598 -0.23191,-0.154597 -0.42517,-0.03865 -0.38652,-0.0773 -0.38652,-0.0773 -0.38652,-0.0773 -0.42517,-0.0773 -0.38652,-0.03865 -0.38652,-0.0773 -0.38652,-0.0773 h -0.73439 -0.77304 -0.77304 -0.77304 -0.77304 -0.73439 -0.81169 -0.77304 l -0.57978,0.0773 -0.61843,0.0773 -0.57978,0.03865 -0.61843,0.0773 -0.57978,0.0773 -0.61844,0.0773 -0.61843,0.0773 -0.61843,0.03865 -0.57978,0.154597 -0.65708,0.154598 -0.61844,0.154597 -0.65708,0.193247 -0.61843,0.193247 -0.65709,0.154597 -0.61843,0.193247 -0.65708,0.154597 -0.34787,0.115948 -0.30922,0.115948 -0.30921,0.0773 -0.34787,0.154597 -0.30922,0.115949 -0.30921,0.115948 -0.30922,0.154597 -0.34787,0.115948 h -0.11595 -0.11596 l -0.11595,-0.03865 h -0.11596 l -0.11596,-0.03865 -0.11595,-0.03865 -0.11596,-0.03865 -0.11595,-0.03865 v -0.927584 l 0.0387,-0.966234 0.0386,-0.966234 0.0387,-0.927584 0.0387,-0.966234 0.0387,-1.004883 0.0387,-0.966234 0.0386,-0.927584 0.85034,-0.270546 0.889,-0.193246 0.889,-0.231896 0.88899,-0.193247 0.85035,-0.231896 0.92764,-0.231896 0.889,-0.270546 0.889,-0.231896 0.73438,-0.115948 0.73439,-0.0773 0.69574,-0.115948 0.73439,-0.115948 0.69573,-0.115948 0.73439,-0.115948 0.69574,-0.193247 0.73438,-0.115948 1.39148,-0.0773 1.0436,-0.0773 0.85034,-0.03865 0.65709,-0.03865 0.61843,-0.03865 h 0.61843 0.69574 0.85034 l 0.46383,0.03865 0.46382,0.03865 h 0.50248 l 0.46382,0.03865 0.46382,0.03865 0.50248,0.03865 0.46382,0.03865 0.54113,0.03865 0.42517,0.0773 0.42518,0.115948 0.46382,0.0773 0.42517,0.03865 0.42517,0.115948 0.46383,0.0773 0.42517,0.0773 0.46382,0.115948 0.50248,0.115948 0.46382,0.154597 0.46383,0.154597 0.46382,0.154598 0.46383,0.115948 0.50247,0.193247 0.50248,0.193246 0.46382,0.154598 0.9663,0.425143 0.77304,0.386493 0.57978,0.270546 0.50248,0.231896 0.46382,0.270545 0.54113,0.231896 0.54113,0.386494 0.77304,0.386493 0.0387,0.03865 0.0386,0.03865 0.0387,0.03865 0.0387,0.03865 v 0.03865 l 0.0387,0.0773 0.0387,0.03865 0.0386,0.0773 0.11596,0.0773 0.11595,0.03865 0.11596,0.0773 0.11596,0.115948 0.1546,0.0773 0.11596,0.0773 0.19326,0.03865 0.15461,0.0773 0.11595,0.154597 0.15461,0.154598 0.15461,0.154597 0.11596,0.154598 0.1546,0.154597 0.15461,0.231896 0.15461,0.154598 0.23191,0.193246 0.19326,0.386494 0.23191,0.386493 0.23192,0.463793 0.23191,0.386493 0.27056,0.463792 0.23191,0.386494 0.27057,0.425143 0.23191,0.463792 0.0773,0.386493 0.0773,0.386494 0.0773,0.425143 0.11596,0.386493 0.11595,0.386494 0.11596,0.386493 0.11596,0.425143 0.0773,0.386494 v 2.821402 2.860052 2.821403 2.860052 2.860052 2.821402 2.860052 2.821403 l -0.0386,0.231896 -0.0387,0.154597 v 0.193247 l -0.0387,0.231896 -0.0387,0.193247 -0.0386,0.193247 -0.0387,0.231896 -0.0387,0.231896 -0.15461,0.193247 -0.0773,0.231896 -0.11595,0.231896 -0.11596,0.231896 -0.11595,0.270545 -0.11596,0.231896 -0.15461,0.270546 -0.11595,0.231896 -0.15461,0.154597 -0.15461,0.115948 -0.19326,0.193247 -0.15461,0.154598 -0.15461,0.154597 -0.19326,0.154597 -0.1546,0.154598 -0.19326,0.154597 -0.19326,0.115948 -0.27057,0.115948 -0.19326,0.0773 -0.19326,0.154597 -0.23191,0.115948 -0.19326,0.115949 -0.27056,0.0773 -0.19326,0.115948 h -3.7106 -3.71059 -3.71059 -3.71059 -3.71059 -3.74925 -3.71059 z m 7.03466,-6.840935 -0.15461,-0.0773 -0.15461,-0.0773 -0.11595,-0.03865 -0.15461,-0.0773 -0.19326,-0.0773 -0.15461,-0.0773 -0.15461,-0.0773 -0.19326,-0.03865 -0.11595,-0.154597 -0.15461,-0.154597 -0.15461,-0.154598 -0.19326,-0.193247 -0.19326,-0.193246 -0.15461,-0.154598 -0.19326,-0.193247 -0.1546,-0.154597 -0.15461,-0.231896 -0.15461,-0.270546 -0.11596,-0.270545 -0.1546,-0.231896 -0.15461,-0.270546 -0.15461,-0.231896 -0.15461,-0.231896 -0.11595,-0.309195 -0.0387,-0.0773 -0.0387,-0.115948 -0.0386,-0.115948 -0.0387,-0.115948 -0.0387,-0.115948 -0.0387,-0.115948 -0.0387,-0.115949 -0.0386,-0.154597 V 56.312104 56.002909 55.693714 55.34587 55.036675 54.727481 54.379636 54.031792 l 0.0386,-0.0773 0.0387,-0.115949 0.0387,-0.115948 0.0387,-0.115948 0.0387,-0.115948 0.0386,-0.115948 0.0387,-0.115948 0.0387,-0.154597 0.42517,-0.734338 0.34787,-0.541091 0.27056,-0.425143 0.19326,-0.309194 0.15461,-0.231897 0.15461,-0.193246 0.1546,-0.193247 0.23192,-0.270546 0.1546,-0.154597 0.19326,-0.115948 0.19326,-0.154597 0.15461,-0.115948 0.19326,-0.154598 0.23191,-0.154597 0.19326,-0.115948 0.19326,-0.193247 0.11596,-0.03865 0.11596,-0.03865 0.11595,-0.03865 h 0.0773 l 0.11595,-0.03865 0.15461,-0.03865 0.15461,-0.03865 0.11595,-0.03865 h 1.35282 1.35282 1.31417 1.35282 l 1.39147,-0.03865 h 1.35282 l 1.35282,-0.03865 h 1.35282 l -0.0387,1.545974 v 1.623273 l -0.0386,1.623272 -0.0387,1.584624 -0.0387,1.623272 -0.0387,1.623273 -0.0387,1.584624 -0.0386,1.623272 h -1.39147 -1.39147 -1.39148 -1.43012 -1.43012 -1.39148 -1.39147 z"
     id="path65"
     inkscape:connector-curvature="0" />
  <path
     style="fill:#0000ff;fill-opacity:1;fill-rule:evenodd;stroke:none"
     d="m 558.79196,70.264519 -0.38652,-0.0773 -0.46382,-0.0773 -0.42517,-0.03865 -0.42517,-0.0773 -0.46383,-0.115948 -0.38652,-0.0773 -0.42517,-0.0773 -0.46382,-0.115948 -0.46383,-0.115949 -0.46382,-0.154597 -0.46383,-0.154597 -0.46382,-0.154598 -0.46382,-0.154597 -0.54113,-0.154598 -0.46383,-0.193246 -0.50247,-0.154598 -0.42517,-0.193246 -0.42518,-0.154598 -0.46382,-0.231896 -0.42517,-0.231896 -0.42517,-0.193247 -0.46383,-0.193247 -0.46382,-0.231896 -0.42517,-0.193246 -0.0773,-0.03865 -0.0386,-0.03865 -0.0387,-0.03865 -0.0386,-0.0773 -0.0387,-0.03865 -0.0387,-0.03865 -0.0386,-0.0773 -0.0387,-0.0773 -0.23191,-0.115948 -0.23192,-0.154598 -0.27056,-0.154597 -0.27056,-0.115948 -0.23192,-0.154598 -0.27056,-0.154597 -0.23191,-0.193247 -0.23191,-0.193247 -0.54113,-0.386493 -0.38652,-0.309195 -0.30922,-0.270545 -0.30921,-0.270546 -0.27057,-0.270545 -0.27056,-0.270546 -0.34787,-0.347844 -0.46382,-0.463792 -0.15461,-0.154597 -0.15461,-0.193247 -0.11596,-0.193247 -0.1546,-0.154597 -0.15461,-0.231896 -0.15461,-0.193247 -0.19326,-0.193247 -0.19326,-0.193247 -0.38652,-0.734337 -0.30922,-0.541091 -0.27056,-0.463792 -0.27056,-0.463793 -0.19326,-0.425143 -0.27057,-0.54109 -0.27056,-0.61839 -0.42517,-0.850286 -0.0773,-0.193247 -0.0773,-0.231896 -0.0386,-0.231896 -0.0773,-0.231896 -0.11595,-0.270545 -0.0773,-0.231896 -0.0773,-0.270546 -0.11596,-0.231896 -0.0773,-0.425143 -0.0386,-0.386493 -0.0773,-0.386494 -0.0773,-0.425143 -0.0773,-0.386493 -0.1546,-0.425143 -0.0773,-0.425143 -0.11595,-0.425143 v -0.85027 -0.772987 -0.850286 -0.850286 -0.811636 -0.850286 -0.888935 -0.811636 l 0.11595,-0.541091 0.11596,-0.502442 0.15461,-0.463792 0.11595,-0.541091 0.11596,-0.502442 0.11595,-0.54109 0.11596,-0.502442 0.11596,-0.57974 0.1546,-0.270546 0.19326,-0.386493 0.23192,-0.425143 0.19326,-0.541091 0.23191,-0.57974 0.27056,-0.61839 0.30922,-0.657039 0.38652,-0.734337 0.0387,-0.03865 v -0.03865 h 0.0386 l 0.0773,-0.03865 0.0386,-0.03865 0.0387,-0.03865 0.0773,-0.03865 0.0387,-0.03865 0.0386,-0.0773 0.0387,-0.0773 0.0386,-0.0773 0.0386,-0.03865 0.0387,-0.154598 0.0386,-0.0773 0.0387,-0.0773 V 35.13226 l 0.0773,-0.0773 0.0773,-0.03865 0.0773,-0.0773 0.0773,-0.0773 0.0773,-0.0773 0.11596,-0.0773 0.11595,-0.03865 0.0773,-0.0773 0.0386,-0.0773 0.0386,-0.0773 0.0387,-0.0773 0.0386,-0.0773 0.0387,-0.115948 0.0387,-0.0773 0.0386,-0.115948 0.0386,-0.0773 0.11596,-0.154598 0.15461,-0.115948 0.11595,-0.154597 0.15461,-0.154598 0.19326,-0.154597 0.15461,-0.154598 0.15461,-0.193246 0.19326,-0.154598 0.46382,-0.347844 0.46382,-0.309195 0.46383,-0.347844 0.46382,-0.309195 0.46383,-0.309194 0.46382,-0.309195 0.50248,-0.347844 0.46382,-0.309195 0.30922,-0.154598 0.30921,-0.154597 0.34787,-0.154597 0.30922,-0.154598 0.30921,-0.231896 0.30922,-0.154597 0.38652,-0.193247 0.30921,-0.154597 0.34787,-0.154598 0.38652,-0.115948 0.34787,-0.154597 0.34787,-0.154598 0.34787,-0.154597 0.38652,-0.154598 0.34786,-0.115948 0.34787,-0.154597 0.50248,-0.115948 0.42517,-0.0773 0.46382,-0.115948 0.50248,-0.115948 0.46382,-0.115948 0.50248,-0.115948 0.50248,-0.193247 0.46382,-0.115948 0.30922,-0.03865 0.23191,-0.03865 0.27056,-0.03865 0.27057,-0.03865 0.27056,-0.03865 h 0.30922 l 0.27056,-0.03865 0.27056,-0.03865 h 0.92765 0.92765 0.889 0.92764 0.9663 0.92765 0.889 0.9663 l 0.73439,0.115948 0.69573,0.154597 0.73439,0.193247 0.69574,0.115948 0.73438,0.154597 0.73439,0.154598 0.69574,0.193247 0.73439,0.154597 0.23191,0.0773 0.19326,0.0773 0.23191,0.0773 0.23191,0.0773 0.30922,0.0773 0.23191,0.115948 0.23191,0.0773 0.23191,0.115948 1.43013,0.734338 1.08225,0.657039 0.85035,0.425143 0.57978,0.347844 0.46382,0.270545 0.30922,0.193247 0.23191,0.115948 0.23191,0.115948 0.19326,0.154598 0.15461,0.154597 0.11596,0.154597 0.1546,0.193247 0.15461,0.154598 0.15461,0.193246 0.15461,0.154598 0.19326,0.193247 0.0386,0.03865 0.11596,0.03865 0.0773,0.03865 h 0.0773 l 0.0773,0.03865 0.0773,0.03865 0.11596,0.03865 0.0773,0.03865 0.11596,0.115948 0.11595,0.0773 0.11596,0.154597 0.11596,0.115948 0.11595,0.115948 0.15461,0.115948 0.11596,0.154598 0.1546,0.115948 0.15461,0.309195 0.15461,0.270545 0.11596,0.193247 0.0773,0.115948 0.11596,0.115948 0.0773,0.0773 0.0773,0.0773 0.19326,0.0773 0.19326,0.386493 0.23192,0.463793 0.23191,0.386493 0.23191,0.425143 0.23191,0.425143 0.27057,0.425143 0.23191,0.425143 0.27056,0.463792 0.15461,0.57974 0.19326,0.61839 0.15461,0.618389 0.23191,0.61839 0.15461,0.57974 0.19326,0.657039 0.15461,0.57974 0.19326,0.61839 v 0.811636 0.850286 0.850286 0.811636 0.850286 0.850286 0.811636 0.888935 l -0.0387,0.03865 -0.0386,0.03865 -0.0773,0.03865 -0.0386,0.0773 -0.0773,0.0773 -0.0773,0.03865 -0.0386,0.0773 -0.0773,0.115948 h -3.90385 -3.8652 l -3.9425,0.03865 h -3.8652 l -3.90386,0.03865 -3.8652,0.03865 -3.90385,0.03865 -3.8652,0.03865 v 0.386494 0.386493 0.386494 0.386493 l 0.0387,0.386494 v 0.425143 l 0.0387,0.386493 v 0.386494 l 0.11595,0.618389 0.11596,0.541091 0.11595,0.61839 0.11596,0.57974 0.11596,0.657039 0.1546,0.57974 0.11596,0.61839 0.11596,0.57974 0.0773,0.154598 0.0773,0.154597 0.0773,0.115948 0.0773,0.193247 0.0773,0.154597 0.0773,0.154598 0.11596,0.154597 0.0773,0.193247 0.15461,0.115948 0.19326,0.154597 0.11595,0.154598 0.15461,0.231896 0.15461,0.154597 0.15461,0.154598 0.15461,0.193246 0.19326,0.154598 0.69573,0.347844 0.54113,0.309195 0.42517,0.193246 0.30922,0.154598 0.27056,0.0773 0.23191,0.115948 0.27057,0.0773 0.34787,0.0773 h 0.46382 0.54113 0.50247 0.54113 0.54113 0.50248 0.57978 0.54112 l 0.54113,-0.193247 0.42517,-0.115948 0.30922,-0.154597 0.27056,-0.115948 0.30922,-0.115948 0.27056,-0.115948 0.30922,-0.231896 0.42517,-0.193247 0.23191,-0.231896 0.23192,-0.270546 0.23191,-0.231896 0.23191,-0.309195 0.23191,-0.231896 0.27057,-0.270545 0.27056,-0.270546 0.23191,-0.270545 0.0773,-0.193247 0.0386,-0.115948 0.0773,-0.154597 0.0773,-0.154598 0.0773,-0.154597 0.11596,-0.154598 0.0773,-0.154597 0.15461,-0.154597 0.0386,-0.193247 v -0.154598 l 0.0387,-0.115948 0.0386,-0.154597 0.0387,-0.154597 0.0387,-0.154598 0.0386,-0.154597 0.0386,-0.193247 h 1.81665 1.85529 1.81665 1.85529 1.81665 1.85529 1.81665 1.85529 l -0.0773,0.231896 -0.0387,0.231896 -0.0387,0.193247 -0.0773,0.231896 -0.0773,0.270546 -0.0387,0.270545 -0.0773,0.231896 -0.0773,0.231896 -0.11596,0.270546 -0.15461,0.309194 -0.15461,0.231897 -0.1546,0.270545 -0.15461,0.270546 -0.19326,0.270545 -0.15461,0.347844 -0.15461,0.270546 -0.19326,0.154597 -0.19326,0.193247 -0.19326,0.193246 -0.23191,0.193247 -0.19326,0.270546 -0.19326,0.193246 -0.23191,0.193247 -0.19326,0.231896 -0.0386,0.0773 -0.0387,0.03865 -0.0386,0.0773 -0.0387,0.0773 -0.0386,0.0773 -0.0386,0.154598 v 0.0773 l -0.0387,0.115948 -1.0436,0.772987 -0.81169,0.657039 -0.57978,0.502441 -0.54113,0.425143 -0.42517,0.309195 -0.42517,0.309195 -0.54113,0.386493 -0.61843,0.463792 -0.46383,0.193247 -0.42517,0.231896 -0.42517,0.193247 -0.46383,0.231896 -0.42517,0.231896 -0.38652,0.193247 -0.46382,0.231896 -0.42517,0.193247 -0.23192,0.0773 -0.23191,0.0773 -0.23191,0.0773 -0.23191,0.0773 -0.23191,0.0773 -0.27057,0.115948 -0.27056,0.0773 -0.23191,0.115948 -0.54113,0.115948 -0.57978,0.0773 -0.54113,0.115948 -0.57978,0.115948 -0.54113,0.115948 -0.57978,0.115948 -0.57978,0.154597 -0.54113,0.115948 h -1.0436 -1.00495 -1.00495 -1.00496 -1.00495 -1.00495 -1.00495 z M 554.69485,43.789714 V 43.596468 43.44187 43.248623 43.055377 l 0.0387,-0.193247 v -0.193247 l 0.0387,-0.193247 V 42.24374 l 0.0773,-0.309195 0.0773,-0.347844 0.0773,-0.309195 0.0773,-0.309194 0.0773,-0.309195 0.0773,-0.347844 0.11596,-0.347844 0.0773,-0.309195 0.15461,-0.193247 0.11595,-0.231896 0.0773,-0.270546 0.11595,-0.231896 0.11596,-0.231896 0.11596,-0.231896 0.1546,-0.270545 0.11596,-0.270546 0.46382,-0.386493 0.30922,-0.309195 0.23191,-0.270546 0.23191,-0.231896 0.23192,-0.193246 0.27056,-0.193247 0.30922,-0.231896 0.34786,-0.270546 0.23192,-0.0773 0.27056,-0.03865 0.23191,-0.115948 0.23191,-0.0773 0.23192,-0.0773 0.23191,-0.115948 0.27056,-0.0773 0.27057,-0.115948 h 0.46382 0.54113 0.50247 0.54113 0.54113 0.50248 0.57978 0.54112 l 0.30922,0.115948 0.34787,0.115948 0.30921,0.115948 0.30922,0.0773 0.30922,0.154597 0.34786,0.154598 0.30922,0.115948 0.34787,0.115948 v 0.03865 l 0.0386,0.03865 0.0387,0.03865 0.0386,0.03865 0.0387,0.0773 0.0386,0.03865 0.0386,0.03865 0.0387,0.0773 0.0773,0.03865 0.0773,0.03865 0.0773,0.03865 0.0773,0.03865 0.0773,0.03865 h 0.11596 l 0.0773,0.03865 0.11596,0.03865 0.11595,0.270545 0.15461,0.193247 0.15461,0.231896 0.11596,0.193247 0.19326,0.193247 0.1546,0.231896 0.15461,0.231896 0.19326,0.231896 0.0773,0.115948 0.0386,0.154597 0.0773,0.154598 0.0773,0.193246 0.0773,0.154598 0.11596,0.193247 0.0773,0.193246 0.15461,0.154598 0.0773,0.347844 0.0773,0.347844 0.0773,0.386494 0.0773,0.347844 0.11596,0.347844 0.11596,0.386493 0.0773,0.347845 0.11596,0.347844 v 0.115948 0.115948 0.115948 0.154597 0.115948 0.115948 0.115948 0.154598 h -2.08721 l -2.00991,0.03865 -2.0872,0.03865 -2.00991,0.03865 -2.08721,0.03865 -2.0872,0.03865 -2.04856,0.03865 z"
     id="path67"
     inkscape:connector-curvature="0" />
</svg>
