<?xml version="1.0" encoding="UTF-8" standalone="no"?>
<!-- Created with Inkscape (http://www.inkscape.org/) -->

<svg
   xmlns:dc="http://purl.org/dc/elements/1.1/"
   xmlns:cc="http://creativecommons.org/ns#"
   xmlns:rdf="http://www.w3.org/1999/02/22-rdf-syntax-ns#"
   xmlns:svg="http://www.w3.org/2000/svg"
   xmlns="http://www.w3.org/2000/svg"
   xmlns:sodipodi="http://sodipodi.sourceforge.net/DTD/sodipodi-0.dtd"
   xmlns:inkscape="http://www.inkscape.org/namespaces/inkscape"
   id="svg2759"
   height="150"
   width="600"
   version="1.0"
   sodipodi:docname="Philips_logo_new.svg"
   inkscape:version="0.92.3 (2405546, 2018-03-11)">
  <metadata
     id="metadata12">
    <rdf:RDF>
      <cc:Work
         rdf:about="">
        <dc:format>image/svg+xml</dc:format>
        <dc:type
           rdf:resource="http://purl.org/dc/dcmitype/StillImage" />
        <dc:title></dc:title>
      </cc:Work>
    </rdf:RDF>
  </metadata>
  <sodipodi:namedview
     pagecolor="#ffffff"
     bordercolor="#666666"
     borderopacity="1"
     objecttolerance="10"
     gridtolerance="10"
     guidetolerance="10"
     inkscape:pageopacity="0"
     inkscape:pageshadow="2"
     inkscape:window-width="1680"
     inkscape:window-height="987"
     id="namedview10"
     showgrid="false"
     inkscape:zoom="0.62830157"
     inkscape:cx="-149.60968"
     inkscape:cy="45.818001"
     inkscape:window-x="-8"
     inkscape:window-y="-8"
     inkscape:window-maximized="1"
     inkscape:current-layer="svg2759" />
  <defs
     id="defs2761">
    <clipPath
       id="clipPath2855">
      <path
         id="path2857"
         d="M 0,595.28 H 841.89 V 0 H 0 Z"
         inkscape:connector-curvature="0" />
    </clipPath>
  </defs>
  <g
     id="layer1"
     transform="translate(-127.2525,-354.50125)">
    <g
       id="g2851"
       transform="matrix(1.25,0,0,-1.25,-154.36,849.47)">
      <g
         id="g2853"
         clip-path="url(#clipPath2855)">
        <path
           id="path2859"
           d="m 360.92,371.16 h -21.48 v -27.97 h -22.36 v 27.97 H 295.6 v -70.37 h 21.48 v 27.68 h 22.36 v -27.68 h 21.48 z m 74.72,-56.23 v 56.23 H 414.16 V 300.79 H 453 l 3.23,14.14 z m -37.36,56.23 H 376.8 v -70.37 h 21.48 z m 87.08,0 h -21.47 v -70.37 h 21.47 z m 105.9,-17.96 c 0,3.83 3.83,5.6 10,5.6 6.77,0 14.13,-1.48 19.13,-3.55 l -1.76,15.32 c -5.6,1.18 -10.6,2.06 -19.71,2.06 -17.36,0 -29.13,-6.85 -29.13,-21.2 0,-24.73 33.55,-19.73 33.55,-31.21 0,-4.41 -3.25,-6.76 -11.19,-6.76 -7.05,0 -17.95,2.35 -24.42,5.59 l 2.36,-16.2 c 6.47,-2.36 15.29,-3.53 22.36,-3.53 17.94,0 32.65,5.89 32.65,23.56 0,23.54 -33.84,19.13 -33.84,30.32 m -60.59,-35.63 c 19.99,0 32.65,10.31 32.65,28.27 0,19.72 -13.53,26.79 -35.6,26.79 -8.53,0 -18.83,-0.59 -26.18,-1.47 v -70.37 h 21.48 v 16.78 z m 11.47,27.97 c 0,-9.12 -4.41,-15.31 -15.6,-15.31 h -3.52 v 29.08 c 1.25,0.07 2.42,0.07 3.52,0.07 10.59,0 15.6,-5 15.6,-13.84 M 254.42,317.57 c 20,0 32.65,10.31 32.65,28.27 0,19.72 -13.53,26.79 -35.59,26.79 -8.54,0 -18.83,-0.59 -26.19,-1.47 v -70.37 h 21.48 v 16.78 z m 11.48,27.97 c 0,-9.12 -4.42,-15.31 -15.6,-15.31 h -3.53 v 29.08 c 1.25,0.07 2.43,0.07 3.53,0.07 10.59,0 15.6,-5 15.6,-13.84"
           inkscape:connector-curvature="0"
           style="fill:#0b5ed7" />
      </g>
    </g>
  </g>
</svg>
