<?xml version="1.0" encoding="UTF-8" standalone="no"?>
<!-- Created with Inkscape (http://www.inkscape.org/) -->
<svg
   xmlns:svg="http://www.w3.org/2000/svg"
   xmlns="http://www.w3.org/2000/svg"
   version="1.0"
   width="2.78549in"
   height="0.623272in"
   viewBox="0 0 1.36748 0.305983"
   id="svg2524"
   xml:space="preserve">
 <defs
   id="defs2526">
  <style
   type="text/css"
   id="style2528" />
  <linearGradient
   x1="4.5050302"
   y1="2.12674"
   x2="3.4431801"
   y2="-3.8952799"
   id="id0"
   gradientUnits="userSpaceOnUse">
   <stop
   style="stop-color:#1f1a17;stop-opacity:1"
   offset="0"
   id="stop2531" />
   <stop
   style="stop-color:#1f1a17;stop-opacity:1"
   offset="0.0784314"
   id="stop2533" />
   <stop
   style="stop-color:#858483;stop-opacity:1"
   offset="0.45098001"
   id="stop2535" />
   <stop
   style="stop-color:#ffffff;stop-opacity:1"
   offset="0.63137299"
   id="stop2537" />
   <stop
   style="stop-color:#838281;stop-opacity:1"
   offset="0.76862699"
   id="stop2539" />
   <stop
   style="stop-color:#1f1a17;stop-opacity:1"
   offset="1"
   id="stop2541" />
  </linearGradient>
  <linearGradient
   x1="5.1951499"
   y1="2.21158"
   x2="1.94511"
   y2="-3.41764"
   id="id1"
   gradientUnits="userSpaceOnUse">
   <stop
   style="stop-color:#efeeee;stop-opacity:1"
   offset="0"
   id="stop2544" />
   <stop
   style="stop-color:#efeeee;stop-opacity:1"
   offset="0.2"
   id="stop2546" />
   <stop
   style="stop-color:#efeeee;stop-opacity:1"
   offset="0.231373"
   id="stop2548" />
   <stop
   style="stop-color:#1f1a17;stop-opacity:1"
   offset="1"
   id="stop2550" />
  </linearGradient>
 </defs>
<symbol
   viewBox="1.11049 -3.26211 4.91928 5.31815"
   id="Fm0-868-0">
 <polygon
   points="1.11049,2.05605 6.02977,2.05605 6.02977,-3.26211 1.11049,-3.26211 1.11049,2.05605 "
   style="fill:url(#id1)"
   id="polygon2553" />
</symbol>
<symbol
   viewBox="1.1481 -1.83331 10.3087 2.30008"
   id="Fm1-19-0">
 <path
   d="M 1.1481,-1.75712 C 1.404255,-1.7245678 3.54473,-1.7226177 3.93063,-1.671644 C 7.50609,-1.199334 7.05843,-0.287454 8.30519,0.171886 C 9.62521,0.658212 11.38692,0.396676 11.38692,0.396676 L 11.456823,-0.068583 C 11.456823,-0.068583 9.1371634,0.625082 8.2255434,0.200754 C 7.1007834,-0.322775 7.3506844,-1.181286 5.7102934,-1.770666 C 5.0595924,-2.004457 2.0028934,-1.504452 1.1481234,-1.564249 L 1.1481234,-1.757117 L 1.1481,-1.75712 z "
   style="fill:#ffffff;fill-rule:nonzero"
   id="path2556" />
</symbol>
<symbol
   viewBox="1.91845 -3.8246 4.11133 5.88064"
   id="Fm1-848-0">
 <path
   d="M 1.91845,2.05555 C 1.9186974,0.17374 3.36071,-2.66903 6.02978,-3.8246 L 6.02978,2.05604 L 1.91845,2.05604 L 1.91845,2.0555549 L 1.91845,2.05555 z "
   style="fill:#3ab4de;fill-rule:nonzero"
   id="path2559" />
</symbol>
<symbol
   viewBox="0.428866 -3.45395 9.36358 3.4851"
   id="Fm0-17-0">
 <path
   d="M 9.79245,-0.0872136 C 9.79245,-0.0872136 7.97805,0.2468234 6.69823,-0.3371106 C 5.48941,-0.8886356 6.055635,-2.3296506 2.52566,-3.0687106 C -1.00433,-3.8077716 0.99032,-3.2562056 0.99032,-3.2562056 L 0.648325,-3.2075494 C 0.648325,-3.2075494 3.238565,-2.9232044 4.256285,-2.4687534 C 5.847865,-1.7580434 5.534295,-0.9206834 6.616635,-0.3142834 C 7.493881,0.1771916 9.781585,0.0002176 9.781585,0.0002176 L 9.7924589,-0.0872086 L 9.79245,-0.0872136 z "
   style="fill:#ffffff;fill-rule:nonzero"
   id="path2562" />
</symbol>
<symbol
   viewBox="1.91844 -3.8246 4.11133 5.88064"
   id="Fm0-875-0">
 <polygon
   points="1.91844,2.05605 6.02977,2.05605 6.02977,-3.8246 1.91844,-3.8246 1.91844,2.05605 "
   style="fill:url(#id0)"
   id="polygon2565" />
</symbol>
<symbol
   viewBox="1.12072 -3.2621 4.90906 5.31814"
   id="Fm0-847-0">
 <path
   d="M 1.12072,2.05604 C 1.1104955,0.31742 3.52412,-2.35188 6.02978,-3.2621 L 6.02978,2.05604 L 1.12072,2.05604 L 1.12072,2.05604 z "
   style="fill:#006096;fill-rule:nonzero"
   id="path2568" />
</symbol>
 <g
   id="Layer_x0020_1">
  
  <path
   d="M 0.137992,0.164989 C 0.1594924,0.16398974 0.1874909,0.1539914 0.1874909,0.1284939 C 0.1874909,0.1004935 0.1624902,0.0884966 0.1384926,0.0884966 L 0.0419977,0.0884966 L 0.0419977,0.0994942 L 0.0624969,0.0994942 L 0.0624969,0.2374882 L 0.0424983,0.2374882 L 0.0424983,0.2484858 L 0.1224929,0.2484858 L 0.1224929,0.2374882 L 0.1024943,0.2374882 L 0.1024943,0.1699911 L 0.1114934,0.1699911 C 0.1234922,0.1699911 0.1324932,0.17949079 0.135491,0.1939906 C 0.14149233,0.214486 0.1479904,0.2379868 0.1479904,0.2384874 C 0.1479904,0.2384874 0.15099203,0.2484877 0.1629908,0.2484877 L 0.206989,0.24848577 L 0.206989,0.23748817 L 0.1899901,0.23748817 L 0.18048847,0.19898877 C 0.17498966,0.17699157 0.16399007,0.16549147 0.13799207,0.16549147 C 0.13749341,0.16498894 0.13749341,0.16449221 0.13799207,0.16498894 L 0.137992,0.164989 z M 0.1134938,0.1589896 L 0.1024943,0.1589896 L 0.1024943,0.0999949 L 0.1159949,0.0999949 C 0.1384927,0.099494306 0.141991,0.10699549 0.141991,0.1174944 L 0.141991,0.1394935 C 0.141991,0.154492 0.13549101,0.1589916 0.1134938,0.1589896 z "
   style="fill:#dd3e31"
   id="path2572" />
  <path
   d="M 0.15299,0 C 0.0684959,0 0,0.0684983 0,0.152992 C 0,0.2369875 0.0684964,0.305484 0.15299,0.305982 C 0.2374861,0.30548141 0.305982,0.236987 0.305982,0.152992 C 0.305982,0.0684959 0.2374856,2e-006 0.15299,0 z M 0.15299,0.291986 C 0.0764957,0.291986 0.014499,0.229489 0.014499,0.152993 C 0.014499,0.0764987 0.0764954,0.014502 0.15299,0.014502 C 0.2299868,0.014502 0.291983,0.0764984 0.291983,0.152993 C 0.291983,0.2294892 0.2299866,0.291986 0.15299,0.291986 L 0.15299,0.291986 z "
   style="fill:#dd3e31"
   id="path2574" />
  <g
   id="_96087928">
   <path
   d="M 0.453602,0.211933 C 0.44759873,0.1936739 0.44422987,0.1876435 0.4300567,0.1842747 C 0.42977451,0.1842747 0.42977451,0.1840447 0.4300567,0.1840447 C 0.4442299,0.1823477 0.4569709,0.1739497 0.4591279,0.1580583 C 0.45938496,0.15663769 0.45938496,0.15517843 0.45938496,0.15350656 C 0.45938496,0.13640716 0.44613176,0.11956276 0.42042756,0.11956276 L 0.36220596,0.11956276 L 0.36220596,0.24634476 L 0.39492816,0.24634476 L 0.39492816,0.19631816 L 0.40165622,0.19631816 C 0.41392952,0.19631816 0.41801352,0.20184402 0.42474152,0.22348946 L 0.43172665,0.24634476 L 0.46536895,0.24634476 L 0.45360205,0.21193326 L 0.453602,0.211933 z M 0.4100754,0.1722585 L 0.3949281,0.1722585 L 0.3949281,0.1436222 L 0.4100754,0.1436222 C 0.41944753,0.1436222 0.4271304,0.14627206 0.4271304,0.1575905 L 0.4271304,0.15805824 C 0.42691972,0.16863454 0.41896047,0.17225854 0.4100754,0.17225854 L 0.4100754,0.1722585 z "
   style="fill:#000000;fill-rule:nonzero"
   id="_94950304" />
   <path
   d="M 0.558708,0.225646 L 0.558708,0.1926996 C 0.558708,0.1655303 0.5392119,0.155644 0.5168688,0.155874 C 0.5055503,0.15615039 0.4906523,0.15784739 0.4781433,0.16334619 L 0.47739917,0.18427449 C 0.48849537,0.17754643 0.50025647,0.17608716 0.51012137,0.17631717 C 0.52814857,0.1765723 0.53081387,0.18522929 0.53006977,0.18859047 C 0.52983977,0.19151672 0.52432163,0.19051747 0.51612657,0.19051747 C 0.50051147,0.19028747 0.47259807,0.19344372 0.47069817,0.21794387 C 0.47042178,0.218918 0.47042178,0.21987087 0.47042178,0.220845 C 0.47042178,0.239827 0.48608128,0.2484743 0.50362338,0.2484743 C 0.51563958,0.2484743 0.52601288,0.24441736 0.53153678,0.2372022 C 0.53153678,0.23694514 0.53176679,0.2372022 0.53176679,0.2372022 C 0.53176679,0.24079913 0.53202385,0.242471 0.53246453,0.24634433 L 0.56060793,0.24634433 C 0.55919312,0.23933214 0.55870799,0.23263113 0.55870799,0.22564603 L 0.558708,0.225646 z M 0.5115555,0.22852587 C 0.50434037,0.22852587 0.4990716,0.22490188 0.4990716,0.21914794 L 0.4990716,0.21794381 C 0.50002447,0.21072868 0.50772666,0.20710471 0.5175665,0.20736171 C 0.5194935,0.20759171 0.5303075,0.20736171 0.5303075,0.20736171 C 0.53056263,0.2109857 0.52983976,0.21460197 0.52814857,0.21794381 C 0.52501164,0.22395481 0.5190277,0.22852591 0.51155547,0.22852591 L 0.5115555,0.22852587 z "
   style="fill:#000000;fill-rule:nonzero"
   id="_94791776" />
   <path
   d="M 1.12628,0.225646 L 1.12628,0.1926996 C 1.12628,0.1655303 1.1067916,0.155644 1.0844214,0.155874 C 1.0730952,0.15615039 1.0582049,0.15784739 1.045721,0.16334619 L 1.0449517,0.18427449 C 1.0560208,0.17754643 1.0678341,0.17608716 1.0776933,0.17631717 C 1.0957205,0.1765723 1.0983646,0.18522929 1.0976475,0.18859047 C 1.0973924,0.19151672 1.0918472,0.19051747 1.0836792,0.19051747 C 1.0680371,0.19028747 1.04017,0.19344372 1.0382488,0.21794387 C 1.0379937,0.218918 1.0379937,0.21987087 1.0379937,0.220845 C 1.0379937,0.239827 1.0536339,0.2484743 1.0711953,0.2484743 C 1.0832115,0.2484743 1.0935829,0.24441736 1.0990624,0.2372022 C 1.0990624,0.23694514 1.0993195,0.2372022 1.0993195,0.2372022 C 1.0993195,0.24079913 1.0995765,0.242471 1.1000365,0.24634433 L 1.1281606,0.24634433 C 1.1267458,0.23933214 1.12628,0.23263113 1.12628,0.22564603 L 1.12628,0.225646 z M 1.0791526,0.22852587 C 1.0719123,0.22852587 1.0666242,0.22490188 1.0666242,0.21914794 L 1.0666242,0.21794381 C 1.0675771,0.21072868 1.0752793,0.20710471 1.0851385,0.20736171 C 1.0870655,0.20759171 1.0979046,0.20736171 1.0979046,0.20736171 C 1.0981346,0.2109857 1.0973924,0.21460197 1.0957205,0.21794381 C 1.0925913,0.22395481 1.0865784,0.22852591 1.0791526,0.22852591 L 1.0791526,0.22852587 z "
   style="fill:#000000;fill-rule:nonzero"
   id="_96200760" />
   <path
   d="M 0.639027,0.119826 L 0.639027,0.1657879 C 0.639027,0.1660179 0.639027,0.1660179 0.63877187,0.1657879 C 0.62939974,0.15662451 0.61761157,0.1556523 0.60921357,0.1556523 C 0.58466127,0.1556523 0.57048617,0.1784999 0.57048617,0.200383 L 0.57048617,0.20208 C 0.57120324,0.2275543 0.58587127,0.2482255 0.61160057,0.2482255 C 0.62557087,0.2482255 0.63422587,0.24439856 0.64095587,0.2357416 C 0.64118587,0.23549227 0.64141588,0.2357416 0.64141588,0.2357416 L 0.64141588,0.2463256 L 0.66958638,0.2463256 L 0.66958638,0.1198256 L 0.63902698,0.1198256 L 0.639027,0.119826 z M 0.639027,0.20231 C 0.639027,0.215051 0.630859,0.2248831 0.6204876,0.2248831 C 0.6092136,0.2248831 0.6024855,0.2155361 0.6019714,0.20208 L 0.6019714,0.20087007 C 0.6019714,0.18934097 0.60872652,0.17898697 0.6204876,0.17898697 C 0.6318119,0.17898697 0.639027,0.18859683 0.639027,0.20208007 L 0.639027,0.20231007 L 0.639027,0.20231 z "
   style="fill:#000000;fill-rule:nonzero"
   id="_96200544" />
   <polygon
   points="0.685186,0.157842 0.715743,0.157842 0.715743,0.246331 0.685186,0.246331 0.685186,0.157842 "
   style="fill:#000000;fill-rule:nonzero"
   id="_94761192" />
   <polygon
   points="0.685186,0.120061 0.715743,0.120061 0.715743,0.143385 0.685186,0.143385 0.685186,0.120061 "
   style="fill:#000000;fill-rule:nonzero"
   id="_96342384" />
   <path
   d="M 0.779458,0.155882 C 0.7501297,0.155882 0.7279973,0.1729814 0.7279973,0.2023097 C 0.7279973,0.2314079 0.7501298,0.2484823 0.779458,0.2484823 C 0.8088114,0.2484823 0.8309245,0.231408 0.8309245,0.2023097 C 0.8309245,0.1729814 0.8088114,0.155882 0.779458,0.155882 z M 0.779458,0.227092 C 0.7652848,0.227092 0.7595019,0.2152807 0.7595019,0.2023097 C 0.7595019,0.1890836 0.76528483,0.1773225 0.779458,0.1773225 C 0.7936583,0.1773225 0.7994122,0.1890836 0.7994122,0.2023097 C 0.7994122,0.2152807 0.79365827,0.227092 0.779458,0.227092 z "
   style="fill:#000000;fill-rule:nonzero"
   id="_94762808" />
   <path
   d="M 0.839817,0.216261 C 0.84826139,0.22060206 0.8597982,0.22419899 0.8734844,0.22419899 C 0.8838307,0.22419899 0.8934599,0.22204199 0.8934599,0.21266209 C 0.8934599,0.18983379 0.8359882,0.20062079 0.8359882,0.15614519 C 0.8359882,0.12655989 0.8643694,0.11862189 0.8888888,0.11862189 C 0.9007021,0.11862189 0.9122119,0.12031889 0.9203818,0.12319295 L 0.91847413,0.14843725 C 0.91005487,0.14460838 0.90042563,0.14266205 0.89130283,0.14266205 C 0.88311357,0.14266205 0.86940043,0.14340424 0.86940043,0.15421825 C 0.86940043,0.17396175 0.92712923,0.16430745 0.92712923,0.20832885 C 0.92712923,0.23981415 0.90042573,0.24848845 0.87348443,0.24848845 C 0.86197463,0.24848845 0.84775503,0.24656145 0.83719813,0.24320032 L 0.83981707,0.21626102 L 0.839817,0.216261 z "
   style="fill:#000000;fill-rule:nonzero"
   id="_95094024" />
   <path
   d="M 0.96898,0.167438 C 0.97403813,0.160708 0.9817403,0.1558818 0.9922953,0.1558818 C 1.0165925,0.1558818 1.0261946,0.1727261 1.0261946,0.1910104 L 1.0261946,0.2463251 L 0.9956564,0.2463251 L 0.9956564,0.2006396 C 0.9956564,0.1857223 0.99085533,0.1811512 0.9824573,0.1811512 C 0.97329391,0.1811512 0.9687228,0.1869264 0.9687228,0.2001332 L 0.9687228,0.2463251 L 0.9382117,0.2463251 L 0.9382117,0.1200811 L 0.9687228,0.1200811 L 0.9687228,0.1674385 C 0.9687228,0.1676685 0.96897986,0.1674385 0.96897986,0.1674385 L 0.96898,0.167438 z "
   style="fill:#000000;fill-rule:nonzero"
   id="_94760896" />
   <path
   d="M 1.21307,0.183073 C 1.2075441,0.17970414 1.202026,0.17824487 1.1948109,0.17824487 C 1.1813277,0.17824487 1.1712327,0.18715699 1.1712327,0.20255947 C 1.1712327,0.21673457 1.1830247,0.22585737 1.196245,0.22585737 C 1.2032108,0.22585737 1.2102153,0.22444256 1.2152541,0.2215627 L 1.2159712,0.244418 C 1.2085241,0.24704274 1.1993569,0.24822561 1.191187,0.24822561 C 1.1618587,0.24822561 1.1394905,0.23140061 1.1394905,0.20207431 C 1.1394905,0.17271901 1.1618588,0.15564471 1.191187,0.15564471 C 1.2003291,0.15564471 1.2085242,0.15733591 1.2152542,0.16070284 L 1.2130701,0.18307304 L 1.21307,0.183073 z "
   style="fill:#000000;fill-rule:nonzero"
   id="_96318600" />
   <path
   d="M 1.26189,0.203738 L 1.26189,0.2463388 L 1.2313576,0.2463388 L 1.2313576,0.1200688 L 1.26189,0.1200688 L 1.26189,0.1917195 C 1.26189,0.19197656 1.2621471,0.1917195 1.2621471,0.1917195 L 1.2897842,0.1556381 L 1.3234728,0.1556381 L 1.2902712,0.1984689 L 1.3237028,0.2463385 L 1.2866724,0.2463385 L 1.2621471,0.2037377 C 1.2621471,0.2037377 1.26189,0.20352703 1.26189,0.2037377 L 1.26189,0.203738 z "
   style="fill:#000000;fill-rule:nonzero"
   id="_94725848" />
   <path
   d="M 1.33678,0.233053 C 1.33678,0.22434962 1.3438579,0.2179714 1.3521651,0.2179714 C 1.3604046,0.2179714 1.3674825,0.22434963 1.3674825,0.233053 C 1.3674825,0.24184529 1.3604046,0.2482255 1.3521651,0.2482255 C 1.3438579,0.2482255 1.33678,0.24184534 1.33678,0.233053 z M 1.3521651,0.2457205 C 1.3590381,0.2457205 1.3644171,0.24033959 1.3644171,0.233053 C 1.3644171,0.22588233 1.3590381,0.2204763 1.3521651,0.2204763 C 1.3452322,0.2204763 1.3398455,0.22588233 1.3398455,0.233053 C 1.3398455,0.24033964 1.3452322,0.2457205 1.3521651,0.2457205 z M 1.3489683,0.24184524 L 1.3463165,0.24184524 L 1.3463165,0.22434954 L 1.3529537,0.22434954 C 1.3570841,0.22434954 1.3591483,0.22588225 1.3591483,0.22933615 C 1.3591483,0.23244602 1.3571768,0.23381444 1.3546236,0.23414301 L 1.359589,0.2418452 L 1.356624,0.2418452 L 1.3520259,0.23425511 L 1.3489682,0.23425511 L 1.3489682,0.2418452 L 1.3489683,0.24184524 z M 1.3521438,0.23200537 C 1.3543936,0.23200537 1.356367,0.23184108 1.356367,0.22917769 C 1.356367,0.22699363 1.3544207,0.2266264 1.3525594,0.2266264 L 1.3489682,0.2266264 L 1.3489682,0.23200537 L 1.3521438,0.23200537 L 1.3521438,0.23200537 z "
   style="fill:#000000;fill-rule:nonzero"
   id="_95562480" />
  </g>
 </g>
</svg>