<?xml version="1.0" encoding="UTF-8" standalone="no"?>
<!-- Created with Inkscape (http://www.inkscape.org/) -->

<svg
   xmlns:dc="http://purl.org/dc/elements/1.1/"
   xmlns:cc="http://creativecommons.org/ns#"
   xmlns:rdf="http://www.w3.org/1999/02/22-rdf-syntax-ns#"
   xmlns:svg="http://www.w3.org/2000/svg"
   xmlns="http://www.w3.org/2000/svg"
   xmlns:sodipodi="http://sodipodi.sourceforge.net/DTD/sodipodi-0.dtd"
   xmlns:inkscape="http://www.inkscape.org/namespaces/inkscape"
   width="127.51296mm"
   height="137.19933mm"
   viewBox="0 0 127.51296 137.19933"
   version="1.1"
   id="svg8"
   inkscape:version="0.92.3 (2405546, 2018-03-11)"
   sodipodi:docname="rsky.svg">
  <defs
     id="defs2" />
  <sodipodi:namedview
     id="base"
     pagecolor="#ffffff"
     bordercolor="#666666"
     borderopacity="1.0"
     inkscape:pageopacity="0.0"
     inkscape:pageshadow="2"
     inkscape:zoom="0.7"
     inkscape:cx="251.87755"
     inkscape:cy="316.20666"
     inkscape:document-units="mm"
     inkscape:current-layer="layer1"
     showgrid="false"
     fit-margin-top="0"
     fit-margin-left="0"
     fit-margin-right="0"
     fit-margin-bottom="0"
     inkscape:window-width="1680"
     inkscape:window-height="987"
     inkscape:window-x="-8"
     inkscape:window-y="-8"
     inkscape:window-maximized="1" />
  <metadata
     id="metadata5">
    <rdf:RDF>
      <cc:Work
         rdf:about="">
        <dc:format>image/svg+xml</dc:format>
        <dc:type
           rdf:resource="http://purl.org/dc/dcmitype/StillImage" />
        <dc:title></dc:title>
      </cc:Work>
    </rdf:RDF>
  </metadata>
  <g
     inkscape:label="Layer 1"
     inkscape:groupmode="layer"
     id="layer1"
     transform="translate(-40.676557,-80.05719)">
    <g
       id="g217"
       transform="matrix(1.6348218,0,0,1.6348218,-67.223253,-99.380212)">
      <path
         inkscape:connector-curvature="0"
         id="path200"
         d="m 73.575859,136.76425 c -0.285213,-0.0164 -0.467499,-0.0681 -0.469723,-0.13316 -0.0022,-0.0584 -0.211739,-0.20352 -0.466082,-0.32231 -0.562873,-0.26285 -1.441555,-1.12863 -1.769811,-1.74379 -0.921371,-1.72668 -0.56862,-3.834 0.866506,-5.17649 0.30382,-0.2842 0.737036,-0.60611 0.962711,-0.71536 0.225674,-0.10924 0.410317,-0.25499 0.410317,-0.32388 0,-0.10518 0.454675,-0.12525 2.840896,-0.12525 h 2.840895 v -2.13067 -2.13067 h 1.42045 1.420449 v 2.13067 2.13067 h 23.437403 23.43738 v -5.6818 -5.68178 h -4.2589 -4.25891 l -0.0247,1.25606 -0.0247,1.25607 -3.50673,1.5767 c -1.9287,0.86718 -3.51435,1.5694 -3.52366,1.5605 -0.01,-0.009 0.43884,-1.43237 0.99589,-3.16325 l 1.01281,-3.14706 -1.01219,-3.19693 c -0.55671,-1.75831 -1.00487,-3.20373 -0.99589,-3.21207 0.009,-0.009 1.59434,0.69539 3.52304,1.5638 l 3.50673,1.57893 0.0247,1.2534 0.0247,1.2534 h 9.22829 9.22827 l 0.0244,-1.40664 0.0244,-1.40664 2.75211,1.71987 c 1.51367,0.94592 2.75213,1.75755 2.75213,1.80363 0,0.0461 -1.23846,0.85772 -2.75213,1.80365 l -2.75211,1.71986 -0.0244,-1.40665 -0.0244,-1.40663 h -3.54892 -3.54893 v 5.67578 5.67578 l 2.6038,0.0282 2.60379,0.0282 0.74757,0.37186 c 2.20159,1.09513 3.0678,3.55458 2.02866,5.75996 -0.4647,0.98627 -1.45599,1.87333 -2.46965,2.21002 -0.38179,0.1268 -3.44559,0.14236 -31.62157,0.16063 -17.159339,0.0111 -31.408545,0.009 -31.664891,-0.006 z m 2.374814,-16.35271 v -2.13067 h 4.261345 4.261344 v 2.13067 2.13067 h -4.261344 -4.261345 z m -6.125684,-1.02095 c -0.92461,-0.20968 -1.654463,-0.61897 -2.361504,-1.3243 -1.950032,-1.94531 -1.950032,-4.90727 0,-6.8497 1.341061,-1.33582 3.193522,-1.77864 4.957515,-1.18505 0.705714,0.23747 1.645121,0.85947 2.108948,1.39638 0.449918,0.52083 0.929416,1.46005 1.073051,2.10188 l 0.109592,0.48973 h 0.873657 0.87365 l 8.88e-4,-0.82119 c 0.0014,-1.29988 0.07544,-1.73881 0.299574,-1.77167 0.399847,-0.0586 1.314508,0.10986 1.772384,0.32645 0.843543,0.39906 1.710716,1.33194 1.881748,2.02433 l 0.06081,0.24618 1.511238,-0.0243 1.51121,-0.0243 0.122515,-0.48828 c 0.311182,-1.2402 1.321202,-2.55922 2.398942,-3.13288 0.575263,-0.30619 1.690513,-0.59627 2.284657,-0.59425 2.679374,0.009 4.878428,2.20946 4.878428,4.88125 0,2.29817 -1.594484,4.2796 -3.824024,4.75203 -0.821937,0.17418 -1.381933,0.16256 -2.195441,-0.0455 -1.168252,-0.29879 -2.191501,-1.01865 -2.842862,-1.99996 l -0.323335,-0.48712 h -2.132798 -2.132753 l -0.493244,0.3532 c -0.547141,0.3918 -1.687232,0.86529 -2.278728,0.94636 l -0.38383,0.0526 -0.0567,-0.34317 c -0.03117,-0.18874 -0.05713,-0.49298 -0.05767,-0.67608 l -8.88e-4,-0.33292 -1.13192,6.6e-4 -1.131919,6.7e-4 -0.191717,0.33224 c -0.508152,0.8806 -1.552042,1.70936 -2.595283,2.0604 -0.739267,0.24878 -1.833268,0.30641 -2.58407,0.13615 z"
         style="fill:#000000;stroke-width:0.08877801" />
      <path
         inkscape:connector-curvature="0"
         id="path213"
         d="m 109.17442,193.60382 c -0.66642,-0.098 -1.71638,-0.43562 -2.33324,-0.75031 l -1.12157,-0.57218 -1.35673,0.67608 c -1.09728,0.5468 -1.73892,0.6756 -3.3553,0.67351 -3.284639,-0.004 -5.798709,-1.55195 -7.284809,-4.48462 -0.39211,-0.77379 -0.897643,-1.36902 -1.256743,-1.47974 -1.85487,-0.5719 -3.90006,-2.87413 -4.59492,-5.1724 -0.38231,-1.26453 -0.57504,-1.52796 -1.31309,-1.79485 -1.27462,-0.4609 -2.98505,-2.25577 -3.75746,-3.94293 -0.54288,-1.1858 -0.67556,-1.87869 -0.66528,-3.47409 0.0124,-1.93074 -0.0178,-2.02771 -0.97109,-3.11067 -1.77917,-2.02125 -2.30624,-4.98126 -1.3697,-7.6922 0.46727,-1.35256 0.46631,-1.42782 -0.037,-2.91042 -1.17892,-3.47287 0.19,-7.22042 3.41989,-9.3623 0.57096,-0.37862 0.56933,-0.38356 -0.58337,-1.77165 -0.63576,-0.76558 -1.58603,-2.09999 -2.11171,-2.96534 -1.12877,-1.85817 -1.14822,-2.81505 -0.0695,-3.41782 0.67773,-0.3787 0.93727,-0.32907 4.58316,0.87655 2.12561,0.7029 3.9011,1.23697 3.94555,1.18684 0.0444,-0.0501 0.28415,-0.7993 0.53267,-1.66482 0.24853,-0.86552 0.8006,-2.2645 1.22683,-3.10885 0.73449,-1.45502 0.82657,-1.53554 1.76334,-1.54192 0.927763,-0.006 1.217843,0.22953 4.729853,3.84549 l 3.741469,3.85222 0.11007,-2.98559 c 0.0982,-2.66292 0.2,-3.17952 0.94209,-4.7799 1.51262,-3.26212 5.3532,-6.40107 7.04491,-5.75788 0.74039,0.28149 1.11251,1.24409 0.84829,2.19437 -0.0924,0.33226 -0.80127,0.99554 -1.60427,1.50107 -2.51723,1.58472 -3.89977,4.1744 -3.89524,7.29632 0.002,1.01865 0.14115,2.20928 0.31039,2.64584 l 0.3077,0.79375 0.76085,-0.92604 c 0.95141,-1.15797 1.92795,-3.16863 2.37731,-4.8948 0.46976,-1.80457 0.93798,-2.29353 2.10248,-2.19564 0.90823,0.0763 1.01015,0.20082 3.05623,3.73275 2.02467,3.49498 2.1485,3.64759 2.84909,3.51138 1.28351,-0.24954 4.62133,-1.74884 6.28004,-2.82092 0.88239,-0.57032 1.82526,-1.03694 2.09527,-1.03694 0.91757,0 1.60427,0.87032 1.93106,2.4474 0.30346,1.46451 0.19357,2.6108 -0.46534,4.85429 -0.12964,0.44139 0.003,0.62351 0.64821,0.89081 0.44614,0.1848 1.24073,0.81148 1.76577,1.39264 2.57903,2.85468 2.99121,6.83154 1.03583,9.99403 -0.47406,0.76669 -0.52994,1.08538 -0.32476,1.85208 0.45125,1.68619 0.0902,4.29917 -0.81585,5.90462 -0.74071,1.31247 -0.79066,1.5428 -0.53514,2.46783 0.72838,2.63697 -0.35498,6.03732 -2.53486,7.95613 -0.93001,0.81863 -1.25476,1.32713 -1.47491,2.30948 -0.54558,2.43449 -2.12952,4.50352 -4.2831,5.59482 -0.97894,0.49607 -1.4184,0.93553 -1.91447,1.91447 -0.69058,1.36279 -2.24162,2.91821 -3.6216,3.63183 -1.09936,0.5685 -3.22055,0.84415 -4.75733,0.61822 z m -5.8292,-4.21276 c 1.04139,-0.75438 1.09831,-0.86221 0.94274,-1.78594 -0.10558,-0.62688 -0.42037,-1.17481 -0.86882,-1.51224 -0.38679,-0.29105 -1.13898,-0.95028 -1.67154,-1.46498 l -0.9683,-0.93581 -1.179239,1.11419 c -0.68927,0.65124 -1.63026,1.23563 -2.26475,1.40648 -1.04133,0.2804 -1.07444,0.3216 -0.81355,1.01225 0.14957,0.39597 0.5918,1.06187 0.98273,1.47977 1.59703,1.70726 4.035739,1.99381 5.840729,0.68628 z m 9.03319,0.20755 c 1.20849,-0.61052 2.45074,-2.11695 2.31639,-2.80903 -0.0415,-0.21355 -0.43256,-0.50089 -0.86913,-0.63854 -0.43656,-0.13764 -1.24892,-0.60658 -1.80524,-1.04209 l -1.01149,-0.79183 -0.57601,0.54073 c -0.77836,0.73068 -2.79125,1.61896 -3.68486,1.62609 -0.82417,0.007 -0.88944,0.2483 -0.34914,1.29313 0.35322,0.68304 1.89396,1.914 2.79654,2.23425 0.86874,0.30825 2.06212,0.15351 3.18294,-0.41271 z m -15.279129,-5.06065 c 1.5966,-0.68314 2.83577,-2.46807 2.83577,-4.0847 0,-0.70063 -0.0245,-0.71038 -1.78594,-0.71038 -1.35875,0 -2.06689,-0.14763 -2.96053,-0.61719 l -1.17459,-0.61718 -1.206663,0.56739 c -1.99436,0.9378 -2.00518,0.94816 -1.93048,1.84901 0.18771,2.26359 2.048973,3.76297 4.899513,3.94691 0.25933,0.0168 0.85465,-0.1335 1.32292,-0.33386 z m 20.698819,-0.0521 c 1.13091,-0.53666 2.25109,-2.16198 2.43499,-3.53306 0.12629,-0.94152 0.0794,-1.07767 -0.37143,-1.07767 -1.28978,0 -3.31003,-0.86458 -4.36477,-1.86792 l -1.10797,-1.05399 -1.02668,0.99793 c -0.84311,0.81951 -1.00076,1.12968 -0.88171,1.73476 0.0797,0.40526 0.0172,1.3325 -0.13891,2.06055 -0.33519,1.56293 -0.13193,1.92761 1.48405,2.66271 1.30865,0.59528 2.81815,0.62443 3.97243,0.0767 z m -9.39692,-0.24483 c 1.1671,-0.60353 2.16356,-2.08389 2.31659,-3.44155 l 0.13401,-1.18894 h -1.75708 c -2.10833,0 -3.79504,-0.69558 -4.8808,-2.01281 l -0.73271,-0.8889 -0.86896,1.12013 c -0.78892,1.01696 -0.85961,1.25575 -0.76753,2.59264 0.1147,1.66521 0.83585,2.90345 2.16191,3.71206 1.0109,0.61643 3.30192,0.6724 4.39457,0.10737 z m -16.658592,-6.64958 c 0.82071,-0.32838 1.03493,-0.53403 0.89576,-0.8599 -0.75739,-1.77345 -0.94493,-2.67041 -0.81969,-3.92028 l 0.13782,-1.37533 -0.93434,-0.30835 c -0.71785,-0.23692 -1.28747,-0.23343 -2.45841,0.0151 -0.83823,0.17788 -1.77767,0.24293 -2.08763,0.14456 -1.12988,-0.35861 -1.46242,2.10175 -0.54126,4.00461 1.10448,2.28155 3.49111,3.22655 5.80775,2.29962 z m 8.345552,-0.0701 c 1.98377,-0.90099 3.03816,-3.02898 2.49686,-5.03921 -0.26331,-0.97786 -0.35633,-1.05436 -1.48863,-1.22415 -0.67405,-0.10109 -1.764119,-0.55551 -2.466709,-1.02832 l -1.25892,-0.84719 -0.76837,0.61552 c -0.4226,0.33853 -1.14837,0.7418 -1.61283,0.89614 -1.53529,0.5102 -1.80484,3.13821 -0.52024,5.07226 0.67074,1.00986 2.58225,2.05921 3.73587,2.05087 0.44211,-0.003 1.28945,-0.22636 1.882969,-0.49592 z m 11.14147,-0.20108 c 1.75215,-0.83144 2.82062,-3.36736 2.20488,-5.23306 -0.30871,-0.9354 -0.32401,-0.94329 -1.82771,-0.94329 -1.26242,0 -1.77283,-0.15441 -3.04735,-0.92189 -1.68346,-1.01373 -2.04607,-0.97882 -3.04672,0.2933 -1.68687,2.14451 -1.03726,5.25034 1.41033,6.74286 1.02581,0.62553 3.05747,0.65482 4.30657,0.0621 z m 10.92516,-0.0252 c 1.81053,-0.90964 2.70952,-3.1265 2.1207,-5.22954 l -0.32867,-1.17392 -1.91589,0.16195 c -1.70695,0.14429 -2.08247,0.0857 -3.44344,-0.53739 -1.20605,-0.55215 -1.60707,-0.63335 -1.90535,-0.38579 -1.26448,1.04942 -1.55207,4.02302 -0.53505,5.53218 1.35427,2.00959 3.88721,2.69788 6.0077,1.63251 z m -34.215782,-8.23529 c -0.90841,-1.03866 -1.33028,-2.31487 -1.33611,-4.04186 l -0.006,-1.76037 -1.07001,-0.31747 c -0.5885,-0.17461 -1.21901,-0.43896 -1.40114,-0.58745 -0.54597,-0.44517 -1.47284,1.95376 -1.2544,3.24668 0.40658,2.40652 2.99675,4.49501 4.96955,4.00702 0.41377,-0.10235 0.42616,-0.1714 0.0981,-0.54655 z m 6.514453,0.13629 c 0.46827,-0.1982 1.06184,-0.59682 1.31904,-0.88583 0.41361,-0.46477 0.43134,-0.68277 0.15343,-1.88672 -0.22779,-0.98688 -0.23818,-1.69349 -0.0378,-2.56934 0.24572,-1.07379 0.22866,-1.18876 -0.15343,-1.03415 -1.04335,0.4222 -2.47351,0.42793 -3.736043,0.015 -1.70951,-0.55916 -3.35816,-0.18192 -3.6112,0.8263 -0.2848,1.13472 0.063,3.14888 0.69754,4.04007 1.12496,1.57987 3.56325,2.25874 5.368423,1.4947 z m 9.841839,-0.2447 c 1.32473,-0.75029 2.24419,-2.32118 2.25,-3.84411 0.007,-1.88433 -0.25996,-2.13925 -2.06981,-1.97514 -1.69458,0.15366 -3.14502,-0.1988 -4.37682,-1.06357 -0.906539,-0.63643 -1.343499,-0.44897 -2.057739,0.88281 -0.86055,1.60459 -0.49855,4.23427 0.73373,5.32998 1.572609,1.39832 3.764949,1.6644 5.520639,0.67003 z m 10.32707,-0.30528 c 1.59349,-1.21541 2.34262,-3.39694 1.72465,-5.02232 -0.246,-0.64701 -0.32228,-0.66859 -1.81257,-0.51283 -1.76281,0.18425 -3.17906,-0.1708 -4.44301,-1.11385 l -0.82385,-0.61467 -0.68564,0.71565 c -0.63239,0.66008 -0.66397,0.80103 -0.40659,1.81502 0.18466,0.72748 0.19395,1.4984 0.0275,2.27898 -0.29076,1.36331 -0.01,1.88458 1.52183,2.825 1.33974,0.82252 3.55273,0.65489 4.89772,-0.37098 z m 8.24808,0.62953 c 1.09527,-0.41293 2.43393,-1.81478 2.71904,-2.84739 0.21797,-0.78943 -0.0303,-3.35045 -0.3564,-3.67656 -0.054,-0.054 -0.65862,0.0429 -1.34353,0.21533 -1.48543,0.37404 -3.68959,-0.0146 -4.73163,-0.83426 -1.2299,-0.96744 -1.67647,-0.40325 -1.17246,1.48122 0.24384,0.91165 0.24397,1.519 5.3e-4,2.67924 -0.36799,1.75442 -0.22848,2.03128 1.39587,2.77018 1.20432,0.54784 2.40465,0.62086 3.4885,0.21224 z m 1.97823,-8.35065 c 2.27046,-1.14064 3.03578,-4.74186 1.44967,-6.82136 -1.39501,-1.82895 -4.52522,-2.23393 -6.22324,-0.80514 -0.74007,0.62273 -0.75319,0.67517 -0.40974,1.63762 0.45249,1.26805 0.45222,2.83796 -8e-4,4.10734 -0.33955,0.95161 -0.32521,1.02022 0.31919,1.5271 0.37109,0.2919 0.98279,0.59809 1.35932,0.68042 0.37654,0.0823 0.80368,0.18459 0.9492,0.22726 0.42701,0.12521 1.79533,-0.17093 2.55633,-0.55324 z m -36.181722,0.26942 c 0.37078,-0.14228 0.36303,-0.23727 -0.0702,-0.85989 -1.43663,-2.06474 -1.43912,-4.88742 -0.006,-6.94752 0.26448,-0.38023 0.40502,-0.76718 0.31231,-0.8599 -0.0927,-0.0927 -0.74996,-0.16857 -1.46053,-0.16857 -4.00928,0 -6.09461,4.58178 -3.41658,7.5067 1.14662,1.25234 3.26235,1.85827 4.64112,1.32918 z m 7.294973,-0.3299 c 1.47337,-0.79018 1.89062,-1.54997 1.58355,-2.88358 -0.16569,-0.71959 -0.16834,-1.52758 -0.007,-2.24401 0.29673,-1.32066 -0.15624,-2.04995 -1.28207,-2.06411 -0.37762,-0.005 -1.34143,-0.23899 -2.14179,-0.52053 -1.916053,-0.674 -2.187333,-0.65818 -3.190683,0.18609 -2.488,2.09351 -1.96335,6.35133 0.94172,7.6425 1.144123,0.50851 3.031473,0.4549 4.096653,-0.11636 z m 9.702779,0.0557 c 2.1505,-1.02048 3.10686,-3.91018 2.00494,-6.05804 -0.50146,-0.97744 -0.62089,-1.04492 -2.59335,-1.46527 -1.91233,-0.40753 -2.1664,-0.40843 -3.38132,-0.0119 -1.6162,0.52747 -2.322039,1.4186 -2.487489,3.14048 -0.19051,1.98262 1.016779,3.95128 2.844249,4.63796 0.81334,0.30562 2.728,0.17674 3.61297,-0.2432 z m 10.05416,0 c 2.95413,-1.40183 3.30385,-6.09737 0.57761,-7.7553 -0.72848,-0.44301 -0.92196,-0.45805 -1.81935,-0.14143 -0.55231,0.19486 -1.57967,0.43552 -2.28302,0.53479 -2.26872,0.3202 -2.385,0.4899 -2.33358,3.40558 0.0351,1.99057 0.14341,2.64525 0.50336,3.04299 1.18619,1.31073 3.63677,1.72871 5.35498,0.91337 z m -14.96904,-9.12012 1.36999,-0.29381 -4.462899,-4.46869 c -2.45459,-2.45778 -4.54274,-4.46869 -4.64034,-4.46869 -0.413773,0 -0.780153,3.61617 -0.526173,5.19326 0.27533,1.70968 0.931713,3.5305 1.279603,3.54967 0.11656,0.006 0.80725,0.17698 1.53485,0.37901 1.63705,0.45457 3.64678,0.49489 5.444969,0.10925 z m 11.96358,-0.0753 c 0.84346,-0.19846 1.59168,-0.41896 1.66271,-0.49 0.14097,-0.14097 -3.64212,-6.81313 -3.85772,-6.8038 -0.0728,0.003 -0.54901,0.7355 -1.05833,1.62745 -0.50932,0.89194 -1.79511,2.492 -2.8573,3.55569 l -1.93125,1.93398 0.74062,0.16375 c 0.40735,0.0901 0.8597,0.20346 1.00522,0.252 0.71768,0.23941 4.9447,0.0789 6.29605,-0.23907 z m 8.52274,-2.11205 c 1.17615,-1.17614 1.98026,-2.63611 1.63956,-2.97681 -0.0571,-0.0571 -1.25325,0.44062 -2.65807,1.10609 -1.40482,0.66547 -2.97122,1.27761 -3.4809,1.36032 -0.50967,0.0827 -0.92667,0.26169 -0.92667,0.39774 0,0.48682 0.5907,1.41306 1.26265,1.97986 l 0.68363,0.57666 1.05744,-0.53947 c 0.58159,-0.2967 1.67165,-1.15368 2.42236,-1.90439 z m -30.277102,-0.34345 c -0.26509,-0.97275 -0.35167,-1.03482 -2.24047,-1.60626 -1.0806,-0.32693 -2.18387,-0.66402 -2.45172,-0.74908 -0.26785,-0.0851 0.10254,0.40207 0.8231,1.08254 1.43228,1.35259 3.93319,2.90641 4.06321,2.52448 0.0449,-0.13191 -0.0425,-0.69516 -0.19412,-1.25168 z"
         style="fill:#000000;stroke-width:0.26458332" />
    </g>
  </g>
</svg>
