<?xml version="1.0" encoding="UTF-8" standalone="no"?>
<svg
   xmlns:dc="http://purl.org/dc/elements/1.1/"
   xmlns:cc="http://creativecommons.org/ns#"
   xmlns:rdf="http://www.w3.org/1999/02/22-rdf-syntax-ns#"
   xmlns:svg="http://www.w3.org/2000/svg"
   xmlns="http://www.w3.org/2000/svg"
   xmlns:sodipodi="http://sodipodi.sourceforge.net/DTD/sodipodi-0.dtd"
   xmlns:inkscape="http://www.inkscape.org/namespaces/inkscape"
   version="1.1"
   id="svg2"
   width="843.78497"
   height="157.12207"
   viewBox="0 0 843.78497 157.12207"
   sodipodi:docname="tt_horiz.svg"
   inkscape:version="1.0.1 (3bc2e813f5, 2020-09-07)">
  <metadata
     id="metadata8">
    <rdf:RDF>
      <cc:Work
         rdf:about="">
        <dc:format>image/svg+xml</dc:format>
        <dc:type
           rdf:resource="http://purl.org/dc/dcmitype/StillImage" />
        <dc:title />
      </cc:Work>
    </rdf:RDF>
  </metadata>
  <defs
     id="defs6" />
  <sodipodi:namedview
     pagecolor="#ffffff"
     bordercolor="#666666"
     borderopacity="1"
     objecttolerance="10"
     gridtolerance="10"
     guidetolerance="10"
     inkscape:pageopacity="0"
     inkscape:pageshadow="2"
     inkscape:window-width="1366"
     inkscape:window-height="704"
     id="namedview4"
     showgrid="false"
     fit-margin-top="0"
     fit-margin-left="0"
     fit-margin-right="0"
     fit-margin-bottom="0"
     inkscape:zoom="0.91771267"
     inkscape:cx="491.00865"
     inkscape:cy="114.12478"
     inkscape:window-x="0"
     inkscape:window-y="0"
     inkscape:window-maximized="1"
     inkscape:current-layer="g10"
     inkscape:document-rotation="0" />
  <g
     inkscape:groupmode="layer"
     inkscape:label="Image"
     id="g10"
     transform="translate(-8.5216044,-4.469747)">
    <path
       style="fill:#fd5f00;stroke-width:0.802848"
       d="M 38.291735,155.72507 C 25.763144,141.56226 16.2551,126.51913 11.779582,113.77892 9.221804,106.49784 9.069131,105.48882 9.361741,97.799347 9.649045,90.249331 9.91542,89.103273 12.685822,83.497742 17.808008,73.133704 26.797144,65.943099 37.840473,63.375993 c 2.501184,-0.581421 4.639701,-0.965033 4.752261,-0.852473 0.112559,0.112559 -0.324021,1.961304 -0.970177,4.108321 -0.646157,2.147017 -1.174831,4.762292 -1.174831,5.811723 0,1.509762 -0.790573,2.246936 -3.787298,3.531482 -15.093778,6.469945 -20.703927,25.370054 -11.22109,37.802884 3.451714,4.5255 8.663264,8.42104 12.834313,9.59341 3.922872,1.10263 10.46451,1.33791 13.554807,0.48753 2.027187,-0.55784 2.467353,-0.11266 7.827775,7.91682 3.123892,4.67935 5.679805,8.69199 5.679805,8.91694 0,0.63525 -9.942649,13.08449 -13.495247,16.89749 -2.587155,2.77679 -3.709899,3.4121 -6.029956,3.4121 -2.503312,0 -3.419999,-0.64336 -7.5191,-5.27715 z m 52.334035,3.74721 C 87.25592,158.03243 73.092408,141.24637 64.656333,128.69429 58.683073,119.80664 52.05048,106.94727 49.174602,98.678084 47.231584,93.091208 46.609119,89.735284 46.287159,83.110898 45.776351,72.600952 46.807009,67.380079 51.076576,58.849744 57.987395,45.042351 71.918105,35.334536 88.08746,33.058182 c 2.68689,-0.378266 3.00291,-0.258859 2.46704,0.932185 -0.33802,0.751312 -1.68994,4.510724 -3.004247,8.354248 -2.11867,6.195747 -2.644383,7.044171 -4.635833,7.481568 -3.479195,0.764158 -11.342889,6.19886 -14.213206,9.822932 -11.543528,14.574892 -9.136594,35.740473 5.269968,46.341925 6.166465,4.53775 11.601133,6.31222 19.539898,6.37996 l 6.89954,0.0588 2.33322,3.9432 c 1.28326,2.16877 4.91045,7.65082 8.06041,12.18233 l 5.72721,8.23913 -5.03121,6.36269 c -11.43361,14.4594 -16.30558,18.26723 -20.87448,16.31505 z m 53.59482,-1.93637 c -4.05665,-2.25344 -21.36336,-23.40874 -30.72272,-37.55464 -11.69039,-17.6691 -19.54825,-35.688395 -21.7493,-49.874477 -3.57161,-23.019625 9.75116,-48.269167 31.03773,-58.82319 28.56898,-14.164693 63.2446,-2.846225 77.42324,25.271723 11.67037,23.143741 6.71242,49.143001 -15.84689,83.100194 -10.70414,16.11229 -26.59067,35.56499 -30.87409,37.80462 -2.65172,1.38648 -6.84672,1.42077 -9.26797,0.0758 z m 11.92849,-56.74637 c 15.65979,-2.903717 28.92999,-16.766349 31.16891,-32.560436 4.94979,-34.917352 -35.97038,-58.077451 -63.06075,-35.691275 -8.89069,7.346843 -13.96167,18.289708 -13.96167,30.12846 0,11.702845 3.94479,20.573835 12.72224,28.609654 9.16546,8.391019 20.94444,11.773347 33.13127,9.513597 z m -8.92247,-10.036581 c 0,-7.091829 0.11268,-7.627064 1.6057,-7.627064 1.49301,0 1.6057,0.535235 1.6057,7.627064 0,7.091832 -0.11269,7.627061 -1.6057,7.627061 -1.49302,0 -1.6057,-0.535229 -1.6057,-7.627061 z M 142.02348,80.237221 C 133.49699,77.116259 128.1679,66.90136 130.41355,57.983063 c 1.16495,-4.626428 6.27365,-10.650459 10.76062,-12.688632 10.49369,-4.766668 23.02713,1.443519 26.12393,12.944127 3.82133,14.191332 -11.10676,27.184529 -25.27462,21.998663 z m 13.17388,-9.915793 c 3.27482,-2.331877 4.66205,-6.948441 3.3769,-11.237926 -3.14846,-10.508583 -18.52308,-8.936149 -19.88333,2.033557 -1.0986,8.859684 9.04609,14.5166 16.50643,9.204369 z M 112.70412,62.65325 c 0,-2.00008 0.0267,-2.007123 7.62706,-2.007123 7.6003,0 7.62707,0.0071 7.62707,2.007123 0,2.000079 -0.0268,2.007121 -7.62707,2.007121 -7.6003,0 -7.62706,-0.0071 -7.62706,-2.007121 z m 57.00226,0 c 0,-2.00008 0.0267,-2.007123 7.62707,-2.007123 7.60029,0 7.62706,0.0071 7.62706,2.007123 0,2.000079 -0.0267,2.007121 -7.62706,2.007121 -7.60031,0 -7.62707,-0.0071 -7.62707,-2.007121 z M 147.22661,33.750692 c 0,-7.091832 0.11268,-7.627064 1.6057,-7.627064 1.49301,0 1.6057,0.535232 1.6057,7.627064 0,7.091831 -0.11269,7.627063 -1.6057,7.627063 -1.49302,0 -1.6057,-0.535232 -1.6057,-7.627063 z M 511.51925,137.18711 c -2.17264,-0.371 -2.20784,-0.47048 -2.20784,-6.24161 v -5.8646 l 3.84257,-0.50973 c 5.05183,-0.67015 7.17788,-2.27548 9.41849,-7.1116 1.83883,-3.96892 1.84109,-4.01523 0.39474,-8.12351 -0.80005,-2.2725 -5.43161,-15.512204 -10.29236,-29.42156 -4.86073,-13.909357 -9.09464,-25.934646 -9.40867,-26.722866 -0.52994,-1.330199 0.0489,-1.416692 8.06026,-1.204274 l 8.63122,0.228855 4.71361,15.655552 c 2.59249,8.610554 5.1007,17.056314 5.57379,18.768358 0.47308,1.712051 1.14658,2.795896 1.49665,2.408546 0.35007,-0.387343 2.69168,-7.749258 5.2036,-16.359811 2.5119,-8.610553 4.93682,-16.829718 5.38869,-18.264811 l 0.82158,-2.609259 h 11.57905 11.57905 v -7.225639 -7.225639 h 8.02848 8.02849 v 7.225639 7.225639 h 5.21852 5.21852 v 6.021367 6.021366 h -5.21852 -5.21852 v 16.859825 c 0,15.789364 0.10194,16.961773 1.60569,18.465522 1.17752,1.17751 2.67617,1.6057 5.61995,1.6057 h 4.01425 v 5.92101 5.92101 l -2.50891,0.50179 c -1.37989,0.27598 -4.93588,0.50177 -7.90221,0.50177 -7.3889,0 -11.68617,-2.27587 -14.4575,-7.65681 -1.97303,-3.8309 -2.03384,-4.44208 -2.29121,-23.02759 l -0.26439,-19.092227 h -5.06895 c -4.08084,0 -5.17716,0.273876 -5.62409,1.404986 -0.30535,0.772742 -5.07087,14.397174 -10.59006,30.276512 -10.7113,30.817589 -11.10547,31.795519 -14.38816,35.696759 -3.8985,4.63311 -11.94762,7.15487 -18.99581,5.95133 z M 390.4898,93.934223 V 51.754535 l 7.42634,0.230841 7.42635,0.230839 0.25158,2.609259 c 0.13838,1.435092 0.43052,2.609258 0.64922,2.609258 0.2187,0 1.73126,-1.044419 3.36124,-2.320932 4.10814,-3.21727 8.30326,-4.376415 14.14253,-3.907694 12.96755,1.040909 20.2234,10.539725 21.12943,27.661061 1.15044,21.740263 -7.50449,34.770713 -23.0756,34.741513 -5.43655,-0.0102 -10.67368,-1.76218 -12.74316,-4.26296 -0.60604,-0.73233 -1.41892,-1.33151 -1.80641,-1.33151 -0.3875,0 -0.70455,6.32243 -0.70455,14.04985 v 14.04985 h -8.02849 -8.02848 z m 29.85451,6.826377 c 6.10823,-1.696506 8.79692,-7.558342 8.79692,-19.178881 0,-8.160053 -1.48668,-12.695003 -5.18076,-15.803366 -2.21845,-1.866707 -3.01412,-2.053472 -7.52476,-1.766257 -4.22816,0.269228 -5.43581,0.696561 -7.46646,2.642054 l -2.42248,2.320878 v 13.348018 13.34802 l 2.34377,2.245477 c 1.93018,1.849231 4.11606,2.818357 8.09326,3.588217 0.22078,0.0427 1.73302,-0.29214 3.36051,-0.74416 z M 44.461969,117.6484 c 0,-3.74664 0.267617,-4.8171 1.204273,-4.8171 0.936657,0 1.204273,1.07046 1.204273,4.8171 0,3.74663 -0.267616,4.81709 -1.204273,4.81709 -0.936656,0 -1.204273,-1.07046 -1.204273,-4.81709 z m 225.199081,-5.52419 c -7.58084,-3.48113 -8.35048,-6.19497 -8.39468,-29.600451 l -0.0352,-18.666236 h -4.41566 -4.41567 V 57.836157 51.81479 h 4.41567 4.41566 v -7.225639 -7.225639 h 8.0285 8.02848 v 7.225639 7.225639 h 5.21852 5.21852 v 6.021367 6.021366 h -5.21852 -5.21852 v 17.136816 c 0,19.713691 0.0272,19.794231 6.68673,19.794231 h 3.75031 v 5.92773 c 0,5.46861 -0.13992,5.96522 -1.80641,6.41182 -3.88823,1.04201 -13.03187,0.47739 -16.25769,-1.00391 z m 78.67918,0.43126 c -5.29612,-1.7481 -7.93493,-3.42328 -11.5212,-7.31391 -4.22574,-4.5844 -6.33029,-9.380725 -7.46566,-17.01446 -2.29092,-15.403036 4.21857,-29.643104 16.00051,-35.002464 5.48321,-2.494202 19.00859,-2.540459 24.36011,-0.08331 11.39353,5.231327 17.50354,17.09375 16.49599,32.026552 -0.57762,8.561019 -3.03018,14.921352 -7.6639,19.875162 -5.72301,6.11837 -10.19574,8.04253 -19.36739,8.33184 -4.79636,0.15129 -8.81894,-0.15283 -10.83846,-0.81941 z m 15.65555,-13.287426 c 5.00588,-3.58418 6.9614,-9.920898 6.28395,-20.362525 -0.61276,-9.444667 -5.31717,-15.050931 -12.62475,-15.044995 -7.85593,0.0063 -12.03942,5.415791 -12.72833,16.45821 -0.68473,10.975353 2.64936,18.458813 9.11728,20.464046 3.05327,0.94659 7.44859,0.2776 9.95185,-1.514736 z m 283.31335,13.258486 c -9.80414,-3.50362 -14.51968,-12.52251 -11.66511,-22.310541 1.04362,-3.578449 2.12382,-5.252333 5.05391,-7.831501 4.86319,-4.280746 9.84259,-5.765357 21.05345,-6.277084 l 9.13146,-0.416812 -0.45875,-3.873424 c -0.58867,-4.970522 -2.37524,-7.644948 -5.87953,-8.801467 -5.34849,-1.765161 -12.32606,1.417596 -12.32606,5.622422 0,1.54629 -0.47499,1.642191 -8.13354,1.642191 h -8.13353 l 0.4865,-2.997984 c 1.09808,-6.766667 7.85483,-12.944052 16.56333,-15.143092 14.48272,-3.657121 28.86913,1.940439 32.02049,12.45874 0.54702,1.825804 0.9229,9.331391 0.93254,18.621063 0.0149,14.366449 0.5553,21.770099 2.00025,27.404429 l 0.56622,2.20783 h -8.1356 -8.13559 l -0.4817,-2.40854 c -0.56929,-2.84641 -0.99924,-2.93629 -3.73863,-0.78149 -4.9963,3.93009 -14.20722,5.21271 -20.72011,2.88526 z m 18.18873,-12.20855 c 4.10298,-1.946999 5.30086,-4.378569 5.023,-10.196229 l -0.23827,-4.988734 -4.17873,-0.241409 c -8.09364,-0.467587 -14.21822,2.539684 -15.13605,7.432037 -0.62459,3.329389 0.0526,5.625602 2.26764,7.689235 2.12242,1.97733 8.40883,2.13374 12.26241,0.3051 z m 40.91293,11.32209 c -6.05211,-2.45744 -11.5917,-8.19105 -14.15786,-14.653678 -1.57002,-3.953985 -1.83756,-6.088808 -1.83756,-14.663346 0,-8.519125 0.27237,-10.720709 1.80241,-14.569373 2.41101,-6.064646 7.20133,-11.32995 12.81657,-14.087393 4.09846,-2.012603 5.44421,-2.252913 12.61632,-2.252913 7.17536,0 8.51684,0.239807 12.62419,2.256767 2.52764,1.241221 5.81508,3.681342 7.30544,5.422489 2.72242,3.180527 5.36011,9.719019 5.36011,13.287008 0,1.873983 -0.15216,1.914927 -7.11657,1.914927 h -7.11657 l -1.4057,-3.680788 c -1.75934,-4.606781 -5.00304,-6.749105 -10.2251,-6.753246 -4.91092,-0.0038 -8.79065,3.16367 -10.2473,8.36631 -1.4344,5.123221 -0.77296,20.129631 1.03715,23.530338 3.93089,7.385018 16.6397,6.960138 19.63153,-0.656329 l 1.23485,-3.143611 h 7.20647 7.20646 l -0.54552,3.412108 c -0.68244,4.268589 -3.57516,9.27834 -7.19028,12.45245 -6.75612,5.93196 -19.62166,7.62595 -28.99904,3.81828 z m 109.76837,0.81455 c -8.27809,-2.58503 -14.27385,-8.80353 -15.6991,-16.282432 l -0.49725,-2.609258 h 7.54317 7.54325 l 0.51068,2.325299 c 0.92015,4.189161 5.2243,6.735421 11.3856,6.735421 6.76657,0 10.60725,-3.604486 8.93917,-8.389466 -0.90995,-2.610278 -3.74401,-4.021366 -12.60979,-6.278431 -14.76182,-3.758087 -20.94368,-9.152581 -20.94368,-18.276189 0,-7.941451 5.97529,-14.917151 15.03343,-17.550421 4.92371,-1.431365 15.03078,-1.211592 20.47232,0.44516 6.77284,2.062042 13.46803,9.751312 13.46803,15.46758 v 2.238431 h -7.47259 -7.47252 l -1.36034,-3.083226 c -0.74818,-1.695774 -2.27978,-3.502185 -3.40369,-4.014244 -4.44537,-2.025477 -12.29771,-0.446061 -13.51178,2.717771 -0.27433,0.714796 -0.49873,2.359237 -0.49873,3.654314 0,3.173219 3.02201,4.925326 12.33906,7.153965 15.97308,3.820741 21.59784,8.612993 21.6668,18.459734 0.0578,8.270922 -5.13317,14.334692 -14.70505,17.177242 -5.23402,1.55433 -15.91824,1.61039 -20.72699,0.10875 z M 293.34509,82.323046 V 51.81479 h 7.62706 7.62707 v 3.746407 3.746405 l 3.01068,-3.25547 c 3.29597,-3.563948 7.71832,-5.335951 12.24344,-4.905847 l 2.80997,0.267082 0.22747,7.634976 0.22746,7.634976 -3.49653,-0.278089 c -4.64853,-0.369714 -9.94589,1.134048 -12.30481,3.492962 l -1.91484,1.914833 V 92.322167 112.8313 h -8.02848 -8.02849 z M 449.90061,69.477465 V 26.123628 h 7.62706 7.62706 v 16.056977 c 0,8.831337 0.29831,16.056976 0.6629,16.056976 0.3646,0 1.48398,-0.874006 2.48755,-1.942237 3.2443,-3.45342 9.28616,-5.489106 15.25466,-5.139759 9.50595,0.556399 14.9769,4.94715 17.28743,13.874177 0.96621,3.733014 1.2385,9.513869 1.2385,26.2933 V 112.8313 h -8.02848 -8.02849 V 91.515938 c 0,-22.61087 -0.33683,-24.88747 -3.96978,-26.831766 -2.28521,-1.223014 -9.4179,-1.002721 -12.07834,0.373039 -4.77284,2.468138 -4.82595,2.757288 -4.82595,26.275814 V 112.8313 h -7.62706 -7.62706 z M 598.42762,82.323046 V 51.81479 h 7.62707 7.62706 v 3.612821 c 0,1.98705 0.18158,3.612819 0.40351,3.612819 0.22194,0 1.70674,-1.442513 3.29958,-3.205584 3.2228,-3.567265 7.09537,-5.085437 11.95247,-4.685746 l 3.21139,0.264267 0.22923,7.781927 0.22924,7.781929 -2.79402,-0.453405 c -4.81889,-0.782 -9.93066,0.437917 -12.95246,3.091089 l -2.77609,2.437441 V 92.441824 112.8313 h -8.02848 -8.0285 z M 746.95465,69.477465 V 26.123628 h 8.01671 8.01672 l 0.21249,23.997075 0.21248,23.997074 8.02849,-9.582741 c 4.41566,-5.270508 8.63777,-10.300344 9.38244,-11.177414 1.22938,-1.447956 2.20708,-1.57382 10.62676,-1.36804 l 9.27281,0.226633 -7.30121,8.429912 c -4.01567,4.636453 -8.89085,10.27858 -10.83375,12.53806 l -3.53253,4.108146 11.64757,17.315135 c 6.40617,9.523322 11.64758,17.519592 11.64758,17.769472 0,0.2499 -3.93375,0.45436 -8.74166,0.45436 h -8.74167 l -7.04546,-11.03917 C 768.46366,87.128369 769.25277,87.828751 765.82899,91.147222 l -2.81737,2.73069 v 9.476698 9.47669 h -8.02848 -8.02849 z M 39.83825,109.62425 c -3.622256,-2.20852 -5.806689,-6.09842 -5.810314,-10.346614 -0.0033,-3.771691 2.275445,-8.370306 4.823216,-9.733831 2.226116,-1.191381 2.892423,2.930814 1.086031,6.718856 -1.302892,2.732187 -1.306922,3.099773 -0.06262,5.709109 0.830319,1.7412 2.103125,2.98294 3.388121,3.30547 1.701093,0.42693 4.410684,3.81007 4.410684,5.50707 0,1.09067 -5.472554,0.2804 -7.835114,-1.16006 z m 51.9918,-6.02571 c 0,-3.31174 0.17136,-6.021369 0.3808,-6.021369 1.07892,0 2.83059,5.192069 2.83059,8.390049 0,3.11746 -0.23528,3.65269 -1.6057,3.65269 -1.46296,0 -1.60569,-0.53523 -1.60569,-6.02137 z M 22.785053,99.584295 c 0,-0.936655 1.070464,-1.204275 4.817092,-1.204275 3.746628,0 4.817092,0.26762 4.817092,1.204275 0,0.936665 -1.070464,1.204275 -4.817092,1.204275 -3.746628,0 -4.817092,-0.26761 -4.817092,-1.204275 z M 86.373662,94.262861 C 76.911111,89.579001 74.844065,76.720158 82.415517,69.639736 l 1.972791,-1.844849 0.534526,4.724587 c 0.293987,2.598522 0.303646,5.326242 0.02144,6.061598 -0.740994,1.930996 0.182142,4.885287 2.34154,7.493631 1.033486,1.248341 2.261126,3.353555 2.728086,4.678256 0.46697,1.3247 1.10528,3.040789 1.41847,3.813531 0.77223,1.905338 -0.78489,1.811878 -5.058737,-0.303629 z M 63.73034,80.751116 c 0,-1.515336 0.490728,-1.639465 6.481658,-1.639465 5.739981,0 6.450959,0.16077 6.213372,1.404985 -0.22316,1.168667 -1.313381,1.444429 -6.481658,1.639466 -5.797353,0.218784 -6.213372,0.124714 -6.213372,-1.404986 z"
       id="path18" />
    <path
       style="fill:#584941;stroke-width:0.802848"
       d="m 511.51925,137.18712 c -2.17264,-0.371 -2.20784,-0.47048 -2.20784,-6.24161 v -5.86461 l 3.84257,-0.50973 c 5.05183,-0.67015 7.17788,-2.27548 9.41849,-7.1116 1.83883,-3.96892 1.84109,-4.01523 0.39474,-8.12351 -0.80005,-2.2725 -5.43161,-15.512204 -10.29236,-29.42156 -4.86073,-13.909357 -9.09464,-25.934646 -9.40867,-26.722866 -0.52994,-1.330199 0.0489,-1.416692 8.06026,-1.204274 l 8.63122,0.228855 4.71361,15.655552 c 2.59249,8.610554 5.1007,17.056314 5.57379,18.768358 0.47308,1.712051 1.14658,2.795896 1.49665,2.408546 0.35007,-0.387343 2.69168,-7.749258 5.2036,-16.359811 2.5119,-8.610553 4.93682,-16.829718 5.38869,-18.264811 l 0.82158,-2.609259 h 11.57905 11.57905 v -7.225639 -7.225639 h 8.02848 8.02849 v 7.225639 7.225639 h 5.21852 5.21852 v 6.021367 6.021366 h -5.21852 -5.21852 v 16.859825 c 0,15.789364 0.10194,16.961773 1.60569,18.465522 1.17752,1.17751 2.67617,1.6057 5.61995,1.6057 h 4.01425 v 5.92101 5.92101 l -2.50891,0.50179 c -1.37989,0.27598 -4.93588,0.50177 -7.90221,0.50177 -7.3889,0 -11.68617,-2.27587 -14.4575,-7.65681 -1.97303,-3.8309 -2.03384,-4.44208 -2.29121,-23.02759 l -0.26439,-19.092227 h -5.06895 c -4.08084,0 -5.17716,0.273876 -5.62409,1.404986 -0.30535,0.772742 -5.07087,14.397174 -10.59006,30.276512 -10.7113,30.817589 -11.10547,31.795519 -14.38816,35.696769 -3.8985,4.63311 -11.94762,7.15487 -18.99581,5.95133 z M 390.4898,93.934223 V 51.754535 l 7.42634,0.230841 7.42635,0.230839 0.25158,2.609259 c 0.13838,1.435092 0.43052,2.609258 0.64922,2.609258 0.2187,0 1.73126,-1.044419 3.36124,-2.320932 4.10814,-3.21727 8.30326,-4.376415 14.14253,-3.907694 12.96755,1.040909 20.2234,10.539725 21.12943,27.661061 1.15044,21.740263 -7.50449,34.770713 -23.0756,34.741513 -5.43655,-0.0102 -10.67368,-1.76218 -12.74316,-4.26296 -0.60604,-0.73233 -1.41892,-1.33151 -1.80641,-1.33151 -0.3875,0 -0.70455,6.32243 -0.70455,14.04985 v 14.04986 h -8.02849 -8.02848 z m 29.85451,6.826377 c 6.10823,-1.696506 8.79692,-7.558342 8.79692,-19.178881 0,-8.160053 -1.48668,-12.695003 -5.18076,-15.803366 -2.21845,-1.866707 -3.01412,-2.053472 -7.52476,-1.766257 -4.22816,0.269228 -5.43581,0.696561 -7.46646,2.642054 l -2.42248,2.320878 v 13.348018 13.34802 l 2.34377,2.245477 c 1.93018,1.849231 4.11606,2.818357 8.09326,3.588217 0.22078,0.0427 1.73302,-0.29214 3.36051,-0.74416 z M 44.461969,117.6484 c 0,-3.74664 0.267617,-4.8171 1.204273,-4.8171 0.936657,0 1.204273,1.07046 1.204273,4.8171 0,3.74663 -0.267616,4.81709 -1.204273,4.81709 -0.936656,0 -1.204273,-1.07046 -1.204273,-4.81709 z m 225.199081,-5.52419 c -7.58084,-3.48113 -8.35048,-6.19497 -8.39468,-29.600451 l -0.0352,-18.666236 h -4.41566 -4.41567 V 57.836157 51.81479 h 4.41567 4.41566 v -7.225639 -7.225639 h 8.0285 8.02848 v 7.225639 7.225639 h 5.21852 5.21852 v 6.021367 6.021366 h -5.21852 -5.21852 v 17.136816 c 0,19.713691 0.0272,19.794231 6.68673,19.794231 h 3.75031 v 5.92773 c 0,5.46861 -0.13992,5.96522 -1.80641,6.41182 -3.88823,1.04201 -13.03187,0.47739 -16.25769,-1.00391 z m 78.67918,0.43126 c -5.29612,-1.7481 -7.93493,-3.42328 -11.5212,-7.31391 -4.22574,-4.5844 -6.33029,-9.380725 -7.46566,-17.01446 -2.29092,-15.403036 4.21857,-29.643104 16.00051,-35.002464 5.48321,-2.494202 19.00859,-2.540459 24.36011,-0.08331 11.39353,5.231327 17.50354,17.09375 16.49599,32.026552 -0.57762,8.561019 -3.03018,14.921352 -7.6639,19.875162 -5.72301,6.11837 -10.19574,8.04253 -19.36739,8.33184 -4.79636,0.15129 -8.81894,-0.15283 -10.83846,-0.81941 z m 15.65555,-13.287426 c 5.00588,-3.58418 6.9614,-9.920898 6.28395,-20.362525 -0.61276,-9.444667 -5.31717,-15.050931 -12.62475,-15.044995 -7.85593,0.0063 -12.03942,5.415791 -12.72833,16.45821 -0.68473,10.975353 2.64936,18.458813 9.11728,20.464046 3.05327,0.94659 7.44859,0.2776 9.95185,-1.514736 z m 283.31335,13.258486 c -9.80414,-3.50362 -14.51968,-12.52251 -11.66511,-22.310541 1.04362,-3.578449 2.12382,-5.252333 5.05391,-7.831501 4.86319,-4.280746 9.84259,-5.765357 21.05345,-6.277084 l 9.13146,-0.416812 -0.45875,-3.873424 c -0.58867,-4.970522 -2.37524,-7.644948 -5.87953,-8.801467 -5.34849,-1.765161 -12.32606,1.417596 -12.32606,5.622422 0,1.54629 -0.47499,1.642191 -8.13354,1.642191 h -8.13353 l 0.4865,-2.997984 c 1.09808,-6.766667 7.85483,-12.944052 16.56333,-15.143092 14.48272,-3.657121 28.86913,1.940439 32.02049,12.45874 0.54702,1.825804 0.9229,9.331391 0.93254,18.621063 0.0149,14.366449 0.5553,21.770099 2.00025,27.404429 l 0.56622,2.20783 h -8.1356 -8.13559 l -0.4817,-2.40854 c -0.56929,-2.84641 -0.99924,-2.93629 -3.73863,-0.78149 -4.9963,3.93009 -14.20722,5.21271 -20.72011,2.88526 z m 18.18873,-12.20855 c 4.10298,-1.946999 5.30086,-4.378569 5.023,-10.196229 l -0.23827,-4.988734 -4.17873,-0.241409 c -8.09364,-0.467587 -14.21822,2.539684 -15.13605,7.432037 -0.62459,3.329389 0.0526,5.625602 2.26764,7.689235 2.12242,1.97733 8.40883,2.13374 12.26241,0.3051 z m 40.91293,11.32209 c -6.05211,-2.45744 -11.5917,-8.19105 -14.15786,-14.653678 -1.57002,-3.953985 -1.83756,-6.088808 -1.83756,-14.663346 0,-8.519125 0.27237,-10.720709 1.80241,-14.569373 2.41101,-6.064646 7.20133,-11.32995 12.81657,-14.087393 4.09846,-2.012603 5.44421,-2.252913 12.61632,-2.252913 7.17536,0 8.51684,0.239807 12.62419,2.256767 2.52764,1.241221 5.81508,3.681342 7.30544,5.422489 2.72242,3.180527 5.36011,9.719019 5.36011,13.287008 0,1.873983 -0.15216,1.914927 -7.11657,1.914927 h -7.11657 l -1.4057,-3.680788 c -1.75934,-4.606781 -5.00304,-6.749105 -10.2251,-6.753246 -4.91092,-0.0038 -8.79065,3.16367 -10.2473,8.36631 -1.4344,5.123221 -0.77296,20.129631 1.03715,23.530338 3.93089,7.385018 16.6397,6.960138 19.63153,-0.656329 l 1.23485,-3.143611 h 7.20647 7.20646 l -0.54552,3.412108 c -0.68244,4.268589 -3.57516,9.27834 -7.19028,12.45245 -6.75612,5.93196 -19.62166,7.62595 -28.99904,3.81828 z m 109.76837,0.81455 c -8.27809,-2.58503 -14.27385,-8.80353 -15.6991,-16.282432 l -0.49725,-2.609258 h 7.54317 7.54325 l 0.51068,2.325299 c 0.92015,4.189161 5.2243,6.735421 11.3856,6.735421 6.76657,0 10.60725,-3.604486 8.93917,-8.389466 -0.90995,-2.610278 -3.74401,-4.021366 -12.60979,-6.278431 -14.76182,-3.758087 -20.94368,-9.152581 -20.94368,-18.276189 0,-7.941451 5.97529,-14.917151 15.03343,-17.550421 4.92371,-1.431365 15.03078,-1.211592 20.47232,0.44516 6.77284,2.062042 13.46803,9.751312 13.46803,15.46758 v 2.238431 h -7.47259 -7.47252 l -1.36034,-3.083226 c -0.74818,-1.695774 -2.27978,-3.502185 -3.40369,-4.014244 -4.44537,-2.025477 -12.29771,-0.446061 -13.51178,2.717771 -0.27433,0.714796 -0.49873,2.359237 -0.49873,3.654314 0,3.173219 3.02201,4.925326 12.33906,7.153965 15.97308,3.820741 21.59784,8.612993 21.6668,18.459734 0.0578,8.270922 -5.13317,14.334692 -14.70505,17.177242 -5.23402,1.55433 -15.91824,1.61039 -20.72699,0.10875 z M 293.34509,82.323046 V 51.81479 h 7.62706 7.62707 v 3.746407 3.746405 l 3.01068,-3.25547 c 3.29597,-3.563948 7.71832,-5.335951 12.24344,-4.905847 l 2.80997,0.267082 0.22747,7.634976 0.22746,7.634976 -3.49653,-0.278089 c -4.64853,-0.369714 -9.94589,1.134048 -12.30481,3.492962 l -1.91484,1.914833 V 92.322167 112.8313 h -8.02848 -8.02849 z M 449.90061,69.477465 V 26.123628 h 7.62706 7.62706 v 16.056977 c 0,8.831337 0.29831,16.056976 0.6629,16.056976 0.3646,0 1.48398,-0.874006 2.48755,-1.942237 3.2443,-3.45342 9.28616,-5.489106 15.25466,-5.139759 9.50595,0.556399 14.9769,4.94715 17.28743,13.874177 0.96621,3.733014 1.2385,9.513869 1.2385,26.2933 V 112.8313 h -8.02848 -8.02849 V 91.515938 c 0,-22.61087 -0.33683,-24.88747 -3.96978,-26.831766 -2.28521,-1.223014 -9.4179,-1.002721 -12.07834,0.373039 -4.77284,2.468138 -4.82595,2.757288 -4.82595,26.275814 V 112.8313 h -7.62706 -7.62706 z M 598.42762,82.323046 V 51.81479 h 7.62707 7.62706 v 3.612821 c 0,1.98705 0.18158,3.612819 0.40351,3.612819 0.22194,0 1.70674,-1.442513 3.29958,-3.205584 3.2228,-3.567265 7.09537,-5.085437 11.95247,-4.685746 l 3.21139,0.264267 0.22923,7.781927 0.22924,7.781929 -2.79402,-0.453405 c -4.81889,-0.782 -9.93066,0.437917 -12.95246,3.091089 l -2.77609,2.437441 V 92.441824 112.8313 h -8.02848 -8.0285 z M 746.95465,69.477465 V 26.123628 h 8.01671 8.01672 l 0.21249,23.997075 0.21248,23.997074 8.02849,-9.582741 c 4.41566,-5.270508 8.63777,-10.300344 9.38244,-11.177414 1.22938,-1.447956 2.20708,-1.57382 10.62676,-1.36804 l 9.27281,0.226633 -7.30121,8.429912 c -4.01567,4.636453 -8.89085,10.27858 -10.83375,12.53806 l -3.53253,4.108146 11.64757,17.315135 c 6.40617,9.523322 11.64758,17.519592 11.64758,17.769472 0,0.2499 -3.93375,0.45436 -8.74166,0.45436 h -8.74167 l -7.04546,-11.03917 C 768.46366,87.128369 769.25277,87.828751 765.82899,91.147222 l -2.81737,2.73069 v 9.476698 9.47669 h -8.02848 -8.02849 z M 91.83005,103.59854 c 0,-3.31174 0.17136,-6.021369 0.3808,-6.021369 1.07892,0 2.83059,5.192069 2.83059,8.390049 0,3.11746 -0.23528,3.65269 -1.6057,3.65269 -1.46296,0 -1.60569,-0.53523 -1.60569,-6.02137 z M 22.785053,99.584295 c 0,-0.936655 1.070464,-1.204275 4.817092,-1.204275 3.746628,0 4.817092,0.26762 4.817092,1.204275 0,0.936665 -1.070464,1.204275 -4.817092,1.204275 -3.746628,0 -4.817092,-0.26761 -4.817092,-1.204275 z M 147.22661,90.752959 c 0,-7.091829 0.11268,-7.627064 1.6057,-7.627064 1.49301,0 1.6057,0.535235 1.6057,7.627064 0,7.091832 -0.11269,7.627061 -1.6057,7.627061 -1.49302,0 -1.6057,-0.535229 -1.6057,-7.627061 z M 63.73034,80.751116 c 0,-1.515336 0.490728,-1.639465 6.481658,-1.639465 5.739981,0 6.450959,0.16077 6.213372,1.404985 -0.22316,1.168667 -1.313381,1.444429 -6.481658,1.639466 -5.797353,0.218784 -6.213372,0.124714 -6.213372,-1.404986 z M 112.70412,62.65325 c 0,-2.00008 0.0267,-2.007123 7.62706,-2.007123 7.6003,0 7.62707,0.0071 7.62707,2.007123 0,2.000079 -0.0268,2.007121 -7.62707,2.007121 -7.6003,0 -7.62706,-0.0071 -7.62706,-2.007121 z m 57.00226,0 c 0,-2.00008 0.0267,-2.007123 7.62707,-2.007123 7.60029,0 7.62706,0.0071 7.62706,2.007123 0,2.000079 -0.0267,2.007121 -7.62706,2.007121 -7.60031,0 -7.62707,-0.0071 -7.62707,-2.007121 z M 147.22661,33.750692 c 0,-7.091832 0.11268,-7.627064 1.6057,-7.627064 1.49301,0 1.6057,0.535232 1.6057,7.627064 0,7.091831 -0.11269,7.627063 -1.6057,7.627063 -1.49302,0 -1.6057,-0.535232 -1.6057,-7.627063 z"
       id="path16" />
  </g>
</svg>
