<?xml version="1.0" encoding="UTF-8" standalone="no"?>
<!-- Created with Inkscape (http://www.inkscape.org/) -->

<svg
   xmlns:dc="http://purl.org/dc/elements/1.1/"
   xmlns:cc="http://creativecommons.org/ns#"
   xmlns:rdf="http://www.w3.org/1999/02/22-rdf-syntax-ns#"
   xmlns:svg="http://www.w3.org/2000/svg"
   xmlns="http://www.w3.org/2000/svg"
   xmlns:sodipodi="http://sodipodi.sourceforge.net/DTD/sodipodi-0.dtd"
   xmlns:inkscape="http://www.inkscape.org/namespaces/inkscape"
   width="160.4724mm"
   height="77.293182mm"
   viewBox="0 0 160.4724 77.293182"
   version="1.1"
   id="svg8"
   inkscape:version="0.92.3 (2405546, 2018-03-11)"
   sodipodi:docname="tt_vertical.svg">
  <defs
     id="defs2">
    <clipPath
       id="clipPath831"
       clipPathUnits="userSpaceOnUse">
      <path
         inkscape:connector-curvature="0"
         id="path829"
         d="M 0,247.368 H 481.579 V 0 H 0 Z" />
    </clipPath>
  </defs>
  <sodipodi:namedview
     id="base"
     pagecolor="#ffffff"
     bordercolor="#666666"
     borderopacity="1.0"
     inkscape:pageopacity="0.0"
     inkscape:pageshadow="2"
     inkscape:zoom="0.35"
     inkscape:cx="-466.74507"
     inkscape:cy="91.780128"
     inkscape:document-units="mm"
     inkscape:current-layer="layer1"
     showgrid="false"
     fit-margin-top="0"
     fit-margin-left="0"
     fit-margin-right="0"
     fit-margin-bottom="0"
     inkscape:window-width="1680"
     inkscape:window-height="987"
     inkscape:window-x="-8"
     inkscape:window-y="-8"
     inkscape:window-maximized="1" />
  <metadata
     id="metadata5">
    <rdf:RDF>
      <cc:Work
         rdf:about="">
        <dc:format>image/svg+xml</dc:format>
        <dc:type
           rdf:resource="http://purl.org/dc/dcmitype/StillImage" />
        <dc:title></dc:title>
      </cc:Work>
    </rdf:RDF>
  </metadata>
  <g
     inkscape:label="Layer 1"
     inkscape:groupmode="layer"
     id="layer1"
     transform="translate(-36.180467,-95.823639)">
    <g
       transform="matrix(0.35277777,0,0,-0.35277777,31.489793,179.06928)"
       inkscape:label="trophytracks_vert"
       id="g823"
       inkscape:export-xdpi="299.94568"
       inkscape:export-ydpi="299.94568">
      <g
         id="g825">
        <g
           clip-path="url(#clipPath831)"
           id="g827">
          <g
             transform="translate(192.9815,140.275)"
             id="g833">
            <path
               inkscape:connector-curvature="0"
               id="path835"
               style="fill:#ff6000;fill-opacity:1;fill-rule:nonzero;stroke:none"
               d="m 0,0 c -10.413,0 -18.855,8.442 -18.855,18.855 0,10.413 8.442,18.855 18.855,18.855 10.413,0 18.854,-8.442 18.854,-18.855 C 18.854,8.442 10.413,0 0,0 m 27.956,23.162 c -0.143,0.936 -0.332,1.857 -0.564,2.76 -0.931,3.615 -2.558,6.95 -4.729,9.853 -1.358,1.815 -2.928,3.462 -4.674,4.903 -0.35,0.288 -0.706,0.568 -1.069,0.84 -0.726,0.543 -1.479,1.052 -2.256,1.524 -0.389,0.236 -0.784,0.463 -1.185,0.681 -0.801,0.436 -1.626,0.834 -2.472,1.192 -1.269,0.536 -2.585,0.983 -3.94,1.332 -2.259,0.581 -4.627,0.89 -7.067,0.89 -4.393,0 -8.551,-1.001 -12.26,-2.789 -0.824,-0.397 -1.627,-0.833 -2.404,-1.306 -0.389,-0.236 -0.772,-0.481 -1.148,-0.736 -0.752,-0.508 -1.479,-1.052 -2.177,-1.628 -0.349,-0.288 -0.692,-0.585 -1.026,-0.889 -0.67,-0.609 -1.31,-1.249 -1.919,-1.919 -0.305,-0.335 -0.601,-0.677 -0.889,-1.026 -2.883,-3.492 -4.943,-7.688 -5.885,-12.29 -0.376,-1.841 -0.575,-3.747 -0.575,-5.699 0,-4.542 1.273,-9.365 3.233,-14.099 0.49,-1.183 1.023,-2.361 1.589,-3.527 1.133,-2.333 2.401,-4.622 3.731,-6.817 0.665,-1.099 1.345,-2.174 2.031,-3.22 0.687,-1.046 1.38,-2.064 2.07,-3.047 0.69,-0.983 1.377,-1.932 2.051,-2.84 0.675,-0.909 1.338,-1.777 1.979,-2.599 0.642,-0.822 1.262,-1.598 1.852,-2.322 2.36,-2.896 4.233,-4.962 5.033,-5.828 1.325,-1.438 2.432,-2.838 4.714,-2.838 0.285,0 0.552,0.021 0.803,0.063 1.759,0.287 2.752,1.517 3.91,2.775 0.5,0.541 1.42,1.551 2.615,2.94 0.956,1.11 2.089,2.464 3.325,4.013 0.618,0.774 1.262,1.597 1.922,2.464 1.652,2.167 3.407,4.603 5.123,7.219 0.687,1.046 1.367,2.121 2.031,3.22 0.998,1.647 1.96,3.345 2.857,5.076 0.599,1.154 1.167,2.322 1.698,3.498 2.387,5.294 3.998,10.76 3.998,15.869 0,1.464 -0.111,2.902 -0.326,4.307" />
          </g>
          <g
             transform="translate(192.9815,154.4161)"
             id="g837">
            <path
               inkscape:connector-curvature="0"
               id="path839"
               style="fill:#ff6000;fill-opacity:1;fill-rule:nonzero;stroke:none"
               d="m 0,0 c -2.712,0 -4.91,2.198 -4.91,4.91 0,2.712 2.198,4.91 4.91,4.91 2.711,0 4.91,-2.198 4.91,-4.91 C 4.91,2.198 2.711,0 0,0 m 0,14.142 c -5.204,0 -9.428,-4.224 -9.428,-9.428 0,-0.325 0.017,-0.647 0.049,-0.964 0.129,-1.267 0.509,-2.46 1.09,-3.528 0.29,-0.535 0.631,-1.038 1.015,-1.504 1.153,-1.397 2.7,-2.456 4.471,-3.008 0.886,-0.275 1.827,-0.423 2.803,-0.423 0.976,0 1.917,0.148 2.802,0.423 1.771,0.552 3.319,1.611 4.471,3.008 0.385,0.466 0.726,0.969 1.016,1.504 C 8.87,1.29 9.25,2.483 9.378,3.75 9.411,4.067 9.427,4.389 9.427,4.714 9.427,9.918 5.204,14.142 0,14.142" />
          </g>
          <g
             transform="translate(215.5679,139.7628)"
             id="g841">
            <path
               inkscape:connector-curvature="0"
               id="path843"
               style="fill:#ffffff;fill-opacity:1;fill-rule:nonzero;stroke:none"
               d="m 0,0 c -0.897,-1.73 -1.859,-3.429 -2.857,-5.076 -0.664,-1.098 -1.345,-2.174 -2.031,-3.22 -1.716,-2.616 -3.472,-5.052 -5.123,-7.219 -0.661,-0.866 -1.304,-1.69 -1.923,-2.464 -1.235,-1.549 -2.368,-2.902 -3.324,-4.013 -1.196,-1.388 -2.115,-2.399 -2.615,-2.94 -1.159,-1.258 -2.152,-2.487 -3.91,-2.775 -0.252,-0.042 -0.518,-0.063 -0.803,-0.063 -2.282,0 -3.39,1.4 -4.714,2.838 -0.801,0.866 -2.674,2.933 -5.033,5.828 -0.59,0.725 -1.21,1.5 -1.852,2.322 -0.642,0.823 -1.304,1.691 -1.979,2.599 -0.675,0.908 -1.362,1.857 -2.052,2.84 -0.69,0.983 -1.383,2.001 -2.069,3.047 -0.686,1.046 -1.367,2.122 -2.031,3.22 -1.33,2.196 -2.598,4.484 -3.731,6.817 -0.567,1.166 -1.099,2.344 -1.59,3.528 -1.959,4.733 -3.232,9.557 -3.232,14.098 0,1.952 0.198,3.858 0.575,5.699 0.942,4.602 3.002,8.798 5.884,12.29 0.288,0.35 0.585,0.691 0.889,1.026 0.609,0.67 1.25,1.31 1.919,1.919 0.335,0.304 0.677,0.601 1.026,0.889 0.699,0.577 1.426,1.12 2.178,1.628 0.376,0.255 0.759,0.5 1.148,0.736 0.777,0.473 1.579,0.909 2.403,1.306 3.709,1.788 7.868,2.789 12.261,2.789 2.44,0 4.808,-0.309 7.066,-0.89 1.356,-0.349 2.672,-0.796 3.941,-1.332 0.846,-0.358 1.67,-0.756 2.472,-1.192 0.4,-0.217 0.795,-0.444 1.184,-0.681 0.778,-0.472 1.531,-0.981 2.256,-1.524 0.364,-0.272 0.72,-0.551 1.069,-0.84 1.746,-1.441 3.317,-3.087 4.674,-4.902 C 2.248,33.384 3.875,30.049 4.805,26.435 5.038,25.531 5.227,24.61 5.37,23.674 5.584,22.27 5.696,20.832 5.696,19.367 5.696,14.258 4.084,8.792 1.697,3.498 1.167,2.322 0.598,1.154 0,0 m -22.586,50.867 c -17.37,0 -31.5,-14.131 -31.5,-31.5 0,-19.079 20.344,-42.068 24.422,-46.483 l 0.259,-0.283 c 1.383,-1.515 3.275,-3.589 6.819,-3.589 3.543,0 5.435,2.074 6.817,3.589 l 0.263,0.286 c 4.075,4.412 24.42,27.401 24.42,46.48 0,17.369 -14.131,31.5 -31.5,31.5" />
          </g>
          <path
             inkscape:connector-curvature="0"
             id="path845"
             style="fill:#ffffff;fill-opacity:1;fill-rule:nonzero;stroke:none"
             d="m 203.007,160.113 h 7.768 v -2 h -7.768 z m -11.026,-10.814 h 2 v -7.768 h -2 z m -16.793,10.814 h 7.769 v -2 h -7.769 z m 18.793,9.237 h -2 v 7.769 h 2 z m 8.379,-11.183 c -0.129,-1.267 -0.509,-2.461 -1.089,-3.529 -0.291,-0.535 -0.632,-1.038 -1.016,-1.504 -1.153,-1.397 -2.7,-2.456 -4.471,-3.007 -0.886,-0.276 -1.827,-0.424 -2.803,-0.424 -0.976,0 -1.917,0.148 -2.802,0.424 -1.771,0.551 -3.319,1.61 -4.471,3.007 -0.385,0.466 -0.726,0.969 -1.016,1.504 -0.581,1.068 -0.961,2.262 -1.089,3.529 -0.033,0.317 -0.049,0.638 -0.049,0.963 0,5.204 4.223,9.428 9.427,9.428 5.204,0 9.428,-4.224 9.428,-9.428 0,-0.325 -0.017,-0.646 -0.049,-0.963 m -9.379,19.818 c -10.412,0 -18.855,-8.442 -18.855,-18.855 0,-10.413 8.443,-18.855 18.855,-18.855 10.413,0 18.855,8.442 18.855,18.855 0,10.413 -8.442,18.855 -18.855,18.855" />
          <g
             transform="translate(192.9815,164.2365)"
             id="g847">
            <path
               inkscape:connector-curvature="0"
               id="path849"
               style="fill:#ffffff;fill-opacity:1;fill-rule:nonzero;stroke:none"
               d="m 0,0 c -2.712,0 -4.91,-2.199 -4.91,-4.91 0,-2.712 2.198,-4.91 4.91,-4.91 2.711,0 4.91,2.198 4.91,4.91 C 4.91,-2.199 2.711,0 0,0" />
          </g>
          <path
             inkscape:connector-curvature="0"
             id="path851"
             style="fill:#594a42;fill-opacity:1;fill-rule:nonzero;stroke:none"
             d="m 191.981,169.35 h 2 v 7.769 h -2 z" />
          <path
             inkscape:connector-curvature="0"
             id="path853"
             style="fill:#594a42;fill-opacity:1;fill-rule:nonzero;stroke:none"
             d="m 193.981,149.299 h -2 v -7.768 h 2 z" />
          <path
             inkscape:connector-curvature="0"
             id="path855"
             style="fill:#594a42;fill-opacity:1;fill-rule:nonzero;stroke:none"
             d="m 203.007,158.112 h 7.768 v 2 h -7.768 z" />
          <path
             inkscape:connector-curvature="0"
             id="path857"
             style="fill:#594a42;fill-opacity:1;fill-rule:nonzero;stroke:none"
             d="m 182.956,160.113 h -7.769 v -2 h 7.769 z" />
          <g
             transform="translate(229.0103,149.275)"
             id="g859">
            <path
               inkscape:connector-curvature="0"
               id="path861"
               style="fill:#ff6000;fill-opacity:1;fill-rule:nonzero;stroke:none"
               d="m 0,0 c -13.388,0 -24.242,10.854 -24.242,24.242 0,13.388 10.854,24.242 24.242,24.242 13.388,0 24.242,-10.854 24.242,-24.242 C 24.242,10.854 13.388,0 0,0 m 35.943,29.779 c -0.183,1.203 -0.426,2.388 -0.725,3.55 -1.197,4.647 -3.288,8.934 -6.08,12.668 -1.745,2.334 -3.765,4.45 -6.01,6.303 -0.448,0.371 -0.907,0.731 -1.373,1.08 -0.934,0.698 -1.901,1.352 -2.901,1.96 -0.5,0.304 -1.008,0.596 -1.523,0.875 -1.031,0.56 -2.092,1.072 -3.179,1.532 -1.631,0.69 -3.323,1.265 -5.066,1.713 -2.904,0.748 -5.949,1.145 -9.086,1.145 -5.647,0 -10.994,-1.288 -15.763,-3.586 -1.06,-0.511 -2.091,-1.072 -3.091,-1.679 -0.5,-0.304 -0.992,-0.619 -1.475,-0.946 -0.967,-0.654 -1.901,-1.352 -2.8,-2.094 -0.449,-0.37 -0.889,-0.751 -1.319,-1.143 -0.861,-0.782 -1.685,-1.606 -2.468,-2.467 -0.391,-0.43 -0.772,-0.87 -1.142,-1.319 -3.706,-4.49 -6.355,-9.885 -7.567,-15.802 -0.484,-2.366 -0.738,-4.817 -0.738,-7.327 0,-5.839 1.636,-12.04 4.156,-18.127 0.63,-1.521 1.314,-3.036 2.043,-4.536 1.457,-2.999 3.087,-5.941 4.797,-8.765 0.855,-1.411 1.729,-2.793 2.612,-4.139 0.882,-1.345 1.773,-2.654 2.66,-3.917 0.887,-1.264 1.77,-2.484 2.638,-3.652 0.868,-1.168 1.72,-2.284 2.544,-3.341 0.826,-1.056 1.623,-2.054 2.381,-2.986 3.034,-3.723 5.443,-6.38 6.471,-7.494 1.703,-1.847 3.127,-3.648 6.061,-3.648 0.367,0 0.709,0.028 1.033,0.081 2.26,0.37 3.537,1.95 5.027,3.567 0.643,0.696 1.825,1.995 3.362,3.78 1.229,1.429 2.685,3.168 4.274,5.161 0.795,0.995 1.623,2.054 2.472,3.168 2.123,2.785 4.38,5.918 6.587,9.281 0.883,1.346 1.757,2.728 2.612,4.139 1.282,2.118 2.52,4.302 3.673,6.527 0.769,1.484 1.5,2.986 2.182,4.498 3.069,6.807 5.14,13.834 5.14,20.403 0,1.883 -0.142,3.732 -0.419,5.537" />
          </g>
          <g
             transform="translate(229.0103,167.4562)"
             id="g863">
            <path
               inkscape:connector-curvature="0"
               id="path865"
               style="fill:#ff6000;fill-opacity:1;fill-rule:nonzero;stroke:none"
               d="m 0,0 c -3.487,0 -6.313,2.827 -6.313,6.313 0,3.487 2.826,6.313 6.313,6.313 3.486,0 6.313,-2.826 6.313,-6.313 C 6.313,2.827 3.486,0 0,0 m 0,18.182 c -6.691,0 -12.121,-5.43 -12.121,-12.121 0,-0.418 0.021,-0.832 0.062,-1.239 0.166,-1.629 0.655,-3.163 1.401,-4.537 0.374,-0.687 0.811,-1.334 1.306,-1.932 1.482,-1.797 3.472,-3.159 5.748,-3.868 1.139,-0.354 2.349,-0.545 3.604,-0.545 1.254,0 2.464,0.191 3.603,0.545 2.277,0.709 4.266,2.071 5.749,3.868 0.494,0.598 0.932,1.245 1.305,1.932 0.747,1.374 1.236,2.908 1.401,4.537 0.042,0.407 0.063,0.821 0.063,1.239 0,6.691 -5.431,12.121 -12.121,12.121" />
          </g>
          <g
             transform="translate(258.0503,148.6163)"
             id="g867">
            <path
               inkscape:connector-curvature="0"
               id="path869"
               style="fill:#ffffff;fill-opacity:1;fill-rule:nonzero;stroke:none"
               d="m 0,0 c -1.153,-2.225 -2.391,-4.409 -3.673,-6.527 -0.855,-1.411 -1.729,-2.794 -2.612,-4.139 -2.207,-3.363 -4.464,-6.496 -6.587,-9.281 -0.849,-1.115 -1.677,-2.174 -2.472,-3.169 -1.589,-1.992 -3.045,-3.731 -4.274,-5.16 -1.537,-1.785 -2.719,-3.084 -3.362,-3.78 -1.49,-1.617 -2.767,-3.197 -5.027,-3.568 -0.324,-0.052 -0.666,-0.081 -1.033,-0.081 -2.934,0 -4.358,1.801 -6.061,3.649 -1.028,1.114 -3.437,3.77 -6.471,7.494 -0.758,0.932 -1.555,1.929 -2.381,2.986 -0.824,1.056 -1.676,2.173 -2.544,3.341 -0.868,1.168 -1.751,2.387 -2.638,3.652 -0.887,1.263 -1.778,2.572 -2.66,3.917 -0.883,1.345 -1.757,2.728 -2.612,4.139 -1.71,2.824 -3.34,5.765 -4.797,8.765 -0.729,1.5 -1.413,3.014 -2.043,4.536 -2.52,6.086 -4.156,12.288 -4.156,18.127 0,2.51 0.254,4.96 0.738,7.327 1.212,5.917 3.861,11.312 7.567,15.801 0.37,0.45 0.751,0.889 1.142,1.32 0.783,0.861 1.607,1.684 2.468,2.467 0.43,0.392 0.87,0.772 1.319,1.143 0.898,0.741 1.833,1.44 2.8,2.094 0.483,0.326 0.975,0.642 1.475,0.946 0.999,0.607 2.031,1.168 3.091,1.678 4.769,2.299 10.115,3.587 15.763,3.587 3.137,0 6.182,-0.398 9.086,-1.145 1.743,-0.449 3.435,-1.023 5.066,-1.713 1.087,-0.46 2.148,-0.972 3.179,-1.532 0.515,-0.28 1.022,-0.572 1.522,-0.875 1,-0.608 1.968,-1.262 2.902,-1.96 0.466,-0.35 0.925,-0.709 1.373,-1.08 2.245,-1.853 4.265,-3.97 6.01,-6.303 C 2.89,42.922 4.981,38.634 6.178,33.987 6.477,32.825 6.72,31.641 6.903,30.437 7.18,28.632 7.322,26.783 7.322,24.901 7.322,18.332 5.251,11.305 2.182,4.498 1.5,2.985 0.769,1.483 0,0 m -29.04,65.401 c -22.332,0 -40.501,-18.168 -40.501,-40.5 0,-24.531 26.158,-54.088 31.401,-59.764 l 0.334,-0.364 c 1.777,-1.947 4.21,-4.614 8.766,-4.614 4.555,0 6.989,2.667 8.766,4.614 l 0.337,0.368 c 5.24,5.672 31.397,35.229 31.397,59.76 0,22.332 -18.168,40.5 -40.5,40.5" />
          </g>
          <path
             inkscape:connector-curvature="0"
             id="path871"
             style="fill:#ffffff;fill-opacity:1;fill-rule:nonzero;stroke:none"
             d="m 241.9,174.781 h 9.987 v -2.572 H 241.9 Z m -14.176,-13.903 h 2.572 v -9.988 h -2.572 z m -21.592,13.903 h 9.988 v -2.572 h -9.988 z m 24.164,11.876 h -2.572 v 9.988 h 2.572 z m 10.772,-14.379 c -0.165,-1.629 -0.654,-3.163 -1.4,-4.537 -0.374,-0.687 -0.812,-1.334 -1.306,-1.932 -1.483,-1.797 -3.472,-3.159 -5.749,-3.867 -1.138,-0.355 -2.348,-0.546 -3.603,-0.546 -1.255,0 -2.465,0.191 -3.603,0.546 -2.277,0.708 -4.266,2.07 -5.749,3.867 -0.494,0.598 -0.932,1.245 -1.305,1.932 -0.747,1.374 -1.236,2.908 -1.401,4.537 -0.042,0.408 -0.063,0.821 -0.063,1.239 0,6.691 5.43,12.121 12.121,12.121 6.691,0 12.121,-5.43 12.121,-12.121 0,-0.418 -0.021,-0.831 -0.063,-1.239 m -12.058,25.481 c -13.387,0 -24.242,-10.854 -24.242,-24.242 0,-13.387 10.855,-24.242 24.242,-24.242 13.388,0 24.242,10.855 24.242,24.242 0,13.388 -10.854,24.242 -24.242,24.242" />
          <g
             transform="translate(229.0103,180.0822)"
             id="g873">
            <path
               inkscape:connector-curvature="0"
               id="path875"
               style="fill:#ffffff;fill-opacity:1;fill-rule:nonzero;stroke:none"
               d="m 0,0 c -3.487,0 -6.313,-2.826 -6.313,-6.313 0,-3.486 2.826,-6.313 6.313,-6.313 3.486,0 6.313,2.827 6.313,6.313 C 6.313,-2.826 3.486,0 0,0" />
          </g>
          <path
             inkscape:connector-curvature="0"
             id="path877"
             style="fill:#594a42;fill-opacity:1;fill-rule:nonzero;stroke:none"
             d="m 227.724,186.657 h 2.572 v 9.988 h -2.572 z" />
          <path
             inkscape:connector-curvature="0"
             id="path879"
             style="fill:#594a42;fill-opacity:1;fill-rule:nonzero;stroke:none"
             d="m 230.296,160.878 h -2.572 v -9.988 h 2.572 z" />
          <path
             inkscape:connector-curvature="0"
             id="path881"
             style="fill:#594a42;fill-opacity:1;fill-rule:nonzero;stroke:none"
             d="m 241.9,172.209 h 9.987 v 2.572 H 241.9 Z" />
          <path
             inkscape:connector-curvature="0"
             id="path883"
             style="fill:#594a42;fill-opacity:1;fill-rule:nonzero;stroke:none"
             d="m 216.121,174.781 h -9.988 v -2.572 h 9.988 z" />
          <g
             transform="translate(271.0435,157.7242)"
             id="g885">
            <path
               inkscape:connector-curvature="0"
               id="path887"
               style="fill:#ff6000;fill-opacity:1;fill-rule:nonzero;stroke:none"
               d="m 0,0 c -16.181,0 -29.299,13.119 -29.299,29.299 0,16.18 13.118,29.299 29.299,29.299 16.181,0 29.3,-13.119 29.3,-29.299 C 29.3,13.119 16.181,0 0,0 m 43.442,35.991 c -0.222,1.454 -0.515,2.885 -0.877,4.29 -1.446,5.616 -3.974,10.799 -7.348,15.311 -2.11,2.82 -4.55,5.379 -7.264,7.618 -0.542,0.448 -1.096,0.883 -1.66,1.305 -1.128,0.844 -2.298,1.635 -3.506,2.369 -0.604,0.367 -1.218,0.72 -1.841,1.058 -1.245,0.677 -2.527,1.295 -3.842,1.851 -1.971,0.834 -4.016,1.529 -6.123,2.071 C 7.472,72.767 3.792,73.248 0,73.248 c -6.825,0 -13.287,-1.557 -19.051,-4.335 -1.281,-0.617 -2.527,-1.295 -3.735,-2.029 -0.605,-0.367 -1.199,-0.748 -1.783,-1.143 -1.17,-0.79 -2.299,-1.635 -3.384,-2.531 -0.543,-0.447 -1.074,-0.908 -1.595,-1.381 -1.041,-0.946 -2.036,-1.941 -2.982,-2.982 -0.473,-0.52 -0.933,-1.052 -1.381,-1.595 -4.479,-5.426 -7.681,-11.946 -9.145,-19.097 -0.585,-2.861 -0.893,-5.822 -0.893,-8.856 0,-7.057 1.978,-14.552 5.023,-21.908 0.761,-1.84 1.59,-3.67 2.47,-5.483 1.761,-3.625 3.731,-7.18 5.797,-10.593 1.034,-1.706 2.091,-3.377 3.157,-5.003 1.067,-1.625 2.144,-3.207 3.216,-4.735 1.071,-1.527 2.139,-3.001 3.187,-4.413 1.049,-1.412 2.079,-2.761 3.077,-4.038 0.996,-1.277 1.96,-2.483 2.876,-3.608 3.667,-4.5 6.578,-7.711 7.822,-9.057 2.057,-2.234 3.779,-4.41 7.324,-4.41 0.443,0 0.858,0.034 1.248,0.097 2.732,0.448 4.276,2.358 6.077,4.313 0.777,0.841 2.205,2.41 4.063,4.568 1.485,1.727 3.246,3.829 5.167,6.236 0.96,1.203 1.96,2.483 2.986,3.83 2.566,3.366 5.294,7.153 7.961,11.217 1.066,1.626 2.124,3.297 3.157,5.003 1.55,2.56 3.045,5.199 4.44,7.889 0.928,1.793 1.812,3.608 2.636,5.436 3.71,8.226 6.214,16.719 6.214,24.659 0,2.275 -0.173,4.51 -0.507,6.692" />
          </g>
          <g
             transform="translate(271.0435,179.6979)"
             id="g889">
            <path
               inkscape:connector-curvature="0"
               id="path891"
               style="fill:#ff6000;fill-opacity:1;fill-rule:nonzero;stroke:none"
               d="m 0,0 c -4.214,0 -7.63,3.416 -7.63,7.63 0,4.214 3.416,7.63 7.63,7.63 4.214,0 7.63,-3.416 7.63,-7.63 C 7.63,3.416 4.214,0 0,0 m 0,21.975 c -8.087,0 -14.649,-6.563 -14.649,-14.65 0,-0.505 0.025,-1.005 0.075,-1.497 0.2,-1.969 0.791,-3.823 1.693,-5.484 0.451,-0.83 0.981,-1.612 1.578,-2.335 1.792,-2.171 4.197,-3.818 6.949,-4.674 1.375,-0.428 2.838,-0.659 4.354,-0.659 1.517,0 2.979,0.231 4.354,0.659 2.752,0.856 5.158,2.503 6.949,4.674 0.597,0.723 1.127,1.505 1.578,2.335 0.902,1.661 1.493,3.515 1.693,5.484 0.05,0.492 0.075,0.992 0.075,1.497 0,8.087 -6.562,14.65 -14.649,14.65" />
          </g>
          <g
             transform="translate(306.1421,156.9279)"
             id="g893">
            <path
               inkscape:connector-curvature="0"
               id="path895"
               style="fill:#ffffff;fill-opacity:1;fill-rule:nonzero;stroke:none"
               d="m 0,0 c -1.395,-2.689 -2.89,-5.329 -4.439,-7.888 -1.034,-1.707 -2.091,-3.377 -3.158,-5.003 -2.667,-4.065 -5.394,-7.851 -7.961,-11.218 -1.026,-1.347 -2.026,-2.626 -2.986,-3.829 -1.921,-2.408 -3.682,-4.51 -5.167,-6.236 -1.857,-2.159 -3.285,-3.728 -4.062,-4.569 -1.801,-1.955 -3.345,-3.865 -6.078,-4.312 -0.389,-0.064 -0.804,-0.098 -1.248,-0.098 -3.545,0 -5.266,2.176 -7.324,4.41 -1.244,1.346 -4.154,4.557 -7.821,9.057 -0.916,1.125 -1.881,2.331 -2.877,3.608 -0.997,1.278 -2.027,2.627 -3.076,4.038 -1.049,1.412 -2.116,2.886 -3.188,4.414 -1.072,1.527 -2.148,3.109 -3.216,4.735 -1.066,1.626 -2.123,3.296 -3.156,5.003 -2.067,3.412 -4.037,6.967 -5.798,10.593 -0.88,1.813 -1.708,3.643 -2.469,5.482 -3.045,7.356 -5.023,14.851 -5.023,21.908 0,3.034 0.307,5.995 0.893,8.856 1.464,7.152 4.665,13.671 9.144,19.098 0.448,0.542 0.908,1.074 1.382,1.595 0.945,1.04 1.94,2.035 2.982,2.981 0.52,0.473 1.051,0.934 1.594,1.382 1.085,0.895 2.214,1.74 3.384,2.53 0.584,0.395 1.179,0.776 1.783,1.143 1.208,0.735 2.454,1.412 3.736,2.029 5.763,2.778 12.225,4.335 19.05,4.335 3.792,0 7.472,-0.481 10.982,-1.384 2.106,-0.542 4.151,-1.236 6.123,-2.07 1.314,-0.556 2.597,-1.174 3.842,-1.851 0.623,-0.339 1.236,-0.692 1.84,-1.059 1.208,-0.734 2.378,-1.525 3.506,-2.368 0.565,-0.422 1.119,-0.857 1.66,-1.305 2.714,-2.239 5.155,-4.799 7.264,-7.619 C 3.492,51.876 6.021,46.693 7.467,41.077 7.828,39.673 8.121,38.242 8.344,36.787 8.678,34.605 8.851,32.371 8.851,30.095 8.851,22.156 6.347,13.663 2.637,5.436 1.812,3.608 0.929,1.793 0,0 m -35.099,79.044 c -26.99,0 -48.948,-21.958 -48.948,-48.949 0,-29.648 31.613,-65.371 37.951,-72.231 l 0.403,-0.44 c 2.147,-2.353 5.089,-5.577 10.594,-5.577 5.506,0 8.448,3.224 10.595,5.576 l 0.407,0.446 c 6.333,6.855 37.948,42.578 37.948,72.226 0,26.991 -21.959,48.949 -48.95,48.949" />
          </g>
          <path
             inkscape:connector-curvature="0"
             id="path897"
             style="fill:#ffffff;fill-opacity:1;fill-rule:nonzero;stroke:none"
             d="m 286.623,188.55 h 12.071 v -3.109 H 286.623 Z M 269.49,171.747 h 3.108 v -12.072 h -3.108 z m -26.097,16.803 h 12.072 v -3.109 h -12.072 z m 29.205,14.354 h -3.108 v 12.072 h 3.108 z m 13.02,-17.378 c -0.2,-1.969 -0.791,-3.823 -1.694,-5.484 -0.451,-0.83 -0.98,-1.612 -1.578,-2.335 -1.791,-2.171 -4.196,-3.818 -6.948,-4.674 -1.375,-0.428 -2.838,-0.659 -4.355,-0.659 -1.515,0 -2.978,0.231 -4.354,0.659 -2.752,0.856 -5.156,2.503 -6.948,4.674 -0.598,0.723 -1.127,1.505 -1.578,2.335 -0.903,1.661 -1.494,3.515 -1.694,5.484 -0.05,0.492 -0.075,0.992 -0.075,1.497 0,8.087 6.563,14.65 14.649,14.65 8.087,0 14.65,-6.563 14.65,-14.65 0,-0.505 -0.025,-1.005 -0.075,-1.497 m -14.575,30.796 c -16.18,0 -29.298,-13.118 -29.298,-29.299 0,-16.18 13.118,-29.299 29.298,-29.299 16.181,0 29.3,13.119 29.3,29.299 0,16.181 -13.119,29.299 -29.3,29.299" />
          <g
             transform="translate(271.0435,194.9576)"
             id="g899">
            <path
               inkscape:connector-curvature="0"
               id="path901"
               style="fill:#ffffff;fill-opacity:1;fill-rule:nonzero;stroke:none"
               d="m 0,0 c -4.214,0 -7.63,-3.416 -7.63,-7.63 0,-4.214 3.416,-7.63 7.63,-7.63 4.214,0 7.63,3.416 7.63,7.63 C 7.63,-3.416 4.214,0 0,0" />
          </g>
          <path
             inkscape:connector-curvature="0"
             id="path903"
             style="fill:#594a42;fill-opacity:1;fill-rule:nonzero;stroke:none"
             d="m 269.49,202.904 h 3.108 v 12.072 h -3.108 z" />
          <path
             inkscape:connector-curvature="0"
             id="path905"
             style="fill:#594a42;fill-opacity:1;fill-rule:nonzero;stroke:none"
             d="m 272.598,171.747 h -3.108 v -12.072 h 3.108 z" />
          <path
             inkscape:connector-curvature="0"
             id="path907"
             style="fill:#594a42;fill-opacity:1;fill-rule:nonzero;stroke:none"
             d="m 286.623,185.442 h 12.071 v 3.109 h -12.071 z" />
          <path
             inkscape:connector-curvature="0"
             id="path909"
             style="fill:#594a42;fill-opacity:1;fill-rule:nonzero;stroke:none"
             d="m 255.465,188.55 h -12.072 v -3.109 h 12.072 z" />
          <g
             transform="translate(32.4854,93.5016)"
             id="g911">
            <path
               inkscape:connector-curvature="0"
               id="path913"
               style="fill:#594a42;fill-opacity:1;fill-rule:nonzero;stroke:none"
               d="M 0,0 V -11.419 H 7.941 V -20.52 H 0 v -23.182 c 0,-1.717 0.328,-2.947 0.987,-3.692 0.658,-0.745 1.917,-1.116 3.778,-1.116 1.374,0 2.589,0.1 3.649,0.301 v -9.401 c -2.434,-0.744 -4.937,-1.117 -7.513,-1.117 -8.701,0 -13.136,4.393 -13.308,13.179 v 25.028 h -6.782 v 9.101 h 6.782 V 0 Z" />
          </g>
          <g
             transform="translate(70.5381,70.4489)"
             id="g915">
            <path
               inkscape:connector-curvature="0"
               id="path917"
               style="fill:#594a42;fill-opacity:1;fill-rule:nonzero;stroke:none"
               d="m 0,0 c -1.689,0.229 -3.177,0.344 -4.465,0.344 -4.694,0 -7.77,-1.589 -9.229,-4.766 v -30.393 h -12.407 v 46.449 h 11.719 l 0.344,-5.538 c 2.49,4.264 5.938,6.396 10.346,6.396 1.374,0 2.662,-0.186 3.864,-0.557 z" />
          </g>
          <g
             transform="translate(83.8155,58.4069)"
             id="g919">
            <path
               inkscape:connector-curvature="0"
               id="path921"
               style="fill:#594a42;fill-opacity:1;fill-rule:nonzero;stroke:none"
               d="m 0,0 c 0,-4.415 0.829,-7.79 2.489,-10.126 1.66,-2.336 4.035,-3.504 7.127,-3.504 3.005,0 5.351,1.154 7.04,3.461 1.689,2.308 2.533,5.998 2.533,11.071 0,4.328 -0.844,7.682 -2.533,10.061 -1.689,2.379 -4.064,3.569 -7.126,3.569 -3.034,0 -5.381,-1.182 -7.041,-3.548 C 0.829,8.62 0,4.958 0,0 m -12.407,0.88 c 0,4.608 0.886,8.715 2.662,12.321 1.774,3.606 4.328,6.397 7.663,8.371 3.333,1.975 7.204,2.962 11.612,2.962 6.268,0 11.383,-1.918 15.347,-5.752 3.964,-3.836 6.175,-9.044 6.633,-15.627 l 0.086,-3.176 c 0,-7.126 -1.99,-12.843 -5.968,-17.151 -3.978,-4.307 -9.316,-6.46 -16.012,-6.46 -6.697,0 -12.042,2.147 -16.034,6.439 -3.993,4.293 -5.989,10.131 -5.989,17.515 z" />
          </g>
          <g
             transform="translate(147.6231,59.3746)"
             id="g923">
            <path
               inkscape:connector-curvature="0"
               id="path925"
               style="fill:#594a42;fill-opacity:1;fill-rule:nonzero;stroke:none"
               d="m 0,0 c 0,4.334 -0.767,7.679 -2.297,10.033 -1.531,2.354 -3.756,3.531 -6.676,3.531 -3.892,0 -6.568,-1.493 -8.027,-4.478 V -9.99 c 1.517,-3.073 4.221,-4.608 8.113,-4.608 C -2.962,-14.598 0,-9.731 0,0 m 12.406,-0.946 c 0,-7.156 -1.624,-12.886 -4.872,-17.194 -3.249,-4.307 -7.635,-6.46 -13.158,-6.46 -4.694,0 -8.485,1.631 -11.376,4.894 V -41.6 h -12.406 v 64.308 h 11.505 l 0.428,-4.551 c 3.005,3.607 6.926,5.409 11.763,5.409 5.724,0 10.175,-2.118 13.352,-6.353 3.176,-4.235 4.764,-10.074 4.764,-17.515 z" />
          </g>
          <g
             transform="translate(175.336,77.0172)"
             id="g927">
            <path
               inkscape:connector-curvature="0"
               id="path929"
               style="fill:#594a42;fill-opacity:1;fill-rule:nonzero;stroke:none"
               d="m 0,0 c 3.291,3.949 7.427,5.924 12.406,5.924 10.074,0 15.183,-5.853 15.326,-17.558 v -29.75 H 15.326 v 29.474 c 0,2.668 -0.573,4.639 -1.718,5.917 -1.144,1.276 -3.047,1.915 -5.709,1.915 -3.634,0 -6.267,-1.406 -7.899,-4.217 v -33.089 h -12.406 v 65.94 H 0 Z" />
          </g>
          <g
             transform="translate(225.1983,53.1911)"
             id="g931">
            <path
               inkscape:connector-curvature="0"
               id="path933"
               style="fill:#594a42;fill-opacity:1;fill-rule:nonzero;stroke:none"
               d="M 0,0 8.586,28.892 H 21.894 L 3.22,-24.77 2.189,-27.217 c -2.776,-6.067 -7.355,-9.101 -13.737,-9.101 -1.803,0 -3.635,0.272 -5.495,0.816 v 9.401 l 1.889,-0.043 c 2.346,0 4.1,0.359 5.258,1.074 1.16,0.715 2.068,1.903 2.727,3.562 l 1.46,3.821 -16.27,46.579 h 13.35 z" />
          </g>
          <g
             transform="translate(263.9576,93.5016)"
             id="g935">
            <path
               inkscape:connector-curvature="0"
               id="path937"
               style="fill:#594a42;fill-opacity:1;fill-rule:nonzero;stroke:none"
               d="M 0,0 V -11.419 H 7.941 V -20.52 H 0 v -23.182 c 0,-1.717 0.328,-2.947 0.987,-3.692 0.658,-0.745 1.917,-1.116 3.778,-1.116 1.374,0 2.589,0.1 3.649,0.301 v -9.401 c -2.434,-0.744 -4.937,-1.117 -7.513,-1.117 -8.701,0 -13.136,4.393 -13.308,13.179 v 25.028 h -10.814 l 4.032,9.101 h 6.782 V 0 Z" />
          </g>
          <g
             transform="translate(302.0103,70.4489)"
             id="g939">
            <path
               inkscape:connector-curvature="0"
               id="path941"
               style="fill:#594a42;fill-opacity:1;fill-rule:nonzero;stroke:none"
               d="m 0,0 c -1.689,0.229 -3.177,0.344 -4.465,0.344 -4.694,0 -7.77,-1.589 -9.229,-4.766 v -30.393 h -12.407 v 46.449 h 11.719 l 0.344,-5.538 c 2.49,4.264 5.938,6.396 10.346,6.396 1.374,0 2.662,-0.186 3.864,-0.557 z" />
          </g>
          <g
             transform="translate(321.7329,44.2623)"
             id="g943">
            <path
               inkscape:connector-curvature="0"
               id="path945"
               style="fill:#594a42;fill-opacity:1;fill-rule:nonzero;stroke:none"
               d="M 0,0 C 1.831,0 3.52,0.407 5.065,1.223 6.611,2.039 7.755,3.134 8.5,4.507 v 7.985 H 3.863 c -6.211,0 -9.515,-2.146 -9.916,-6.439 l -0.043,-0.73 c 0,-1.546 0.543,-2.819 1.631,-3.821 C -3.378,0.5 -1.889,0 0,0 M 10.26,-8.629 C 9.688,-7.513 9.272,-6.125 9.015,-4.465 6.01,-7.813 2.104,-9.487 -2.705,-9.487 c -4.55,0 -8.321,1.315 -11.312,3.949 -2.991,2.633 -4.486,5.952 -4.486,9.959 0,4.923 1.825,8.7 5.474,11.334 3.649,2.633 8.922,3.963 15.819,3.992 H 8.5 v 2.661 c 0,2.147 -0.552,3.864 -1.653,5.153 -1.102,1.287 -2.841,1.931 -5.216,1.931 -2.089,0 -3.728,-0.501 -4.915,-1.503 -1.189,-1.002 -1.781,-2.376 -1.781,-4.121 h -12.408 c 0,2.69 0.83,5.18 2.491,7.47 1.659,2.289 4.006,4.085 7.04,5.388 3.033,1.301 6.439,1.953 10.217,1.953 5.724,0 10.267,-1.438 13.63,-4.315 3.363,-2.876 5.044,-6.919 5.044,-12.127 V 2.104 c 0.029,-4.409 0.644,-7.743 1.846,-10.003 v -0.73 z" />
          </g>
          <g
             transform="translate(366.2554,44.777)"
             id="g947">
            <path
               inkscape:connector-curvature="0"
               id="path949"
               style="fill:#594a42;fill-opacity:1;fill-rule:nonzero;stroke:none"
               d="M 0,0 C 2.29,0 4.149,0.629 5.581,1.889 7.012,3.148 7.756,4.822 7.813,6.912 H 19.447 C 19.418,3.763 18.56,0.88 16.871,-1.738 15.183,-4.357 12.872,-6.39 9.938,-7.834 7.005,-9.279 3.764,-10.002 0.215,-10.002 c -6.64,0 -11.877,2.109 -15.712,6.332 -3.836,4.221 -5.753,10.052 -5.753,17.493 v 0.816 c 0,7.154 1.903,12.864 5.71,17.129 3.806,4.264 9.029,6.396 15.669,6.396 5.809,0 10.468,-1.652 13.974,-4.958 C 17.608,29.9 19.39,25.5 19.447,20.005 H 7.813 c -0.057,2.416 -0.801,4.381 -2.232,5.891 -1.432,1.51 -3.32,2.266 -5.667,2.266 -2.891,0 -5.072,-1.054 -6.546,-3.16 -1.474,-2.107 -2.211,-5.525 -2.211,-10.254 v -1.29 c 0,-4.787 0.73,-8.228 2.19,-10.319 C -5.194,1.046 -2.977,0 0,0" />
          </g>
          <g
             transform="translate(405.0855,54.2643)"
             id="g951">
            <path
               inkscape:connector-curvature="0"
               id="path953"
               style="fill:#594a42;fill-opacity:1;fill-rule:nonzero;stroke:none"
               d="m 0,0 -4.465,-4.465 v -14.166 h -12.406 v 65.94 H -4.465 V 10.775 L -2.061,13.866 9.83,27.818 H 24.727 L 7.941,8.457 26.187,-18.631 H 11.934 Z" />
          </g>
          <g
             transform="translate(456.1158,48.4694)"
             id="g955">
            <path
               inkscape:connector-curvature="0"
               id="path957"
               style="fill:#594a42;fill-opacity:1;fill-rule:nonzero;stroke:none"
               d="m 0,0 c 0,1.517 -0.751,2.711 -2.254,3.584 -1.503,0.873 -3.914,1.653 -7.233,2.34 -11.048,2.318 -16.572,7.012 -16.572,14.081 0,4.121 1.71,7.562 5.131,10.324 3.419,2.762 7.892,4.143 13.415,4.143 5.896,0 10.611,-1.389 14.146,-4.164 3.534,-2.777 5.302,-6.382 5.302,-10.819 H -0.473 c 0,1.775 -0.572,3.241 -1.716,4.401 -1.146,1.159 -2.934,1.739 -5.367,1.739 -2.09,0 -3.707,-0.473 -4.851,-1.417 -1.145,-0.944 -1.717,-2.147 -1.717,-3.607 0,-1.373 0.65,-2.483 1.953,-3.327 1.302,-0.843 3.499,-1.574 6.59,-2.189 3.091,-0.615 5.695,-1.309 7.813,-2.082 6.553,-2.403 9.831,-6.568 9.831,-12.492 0,-4.236 -1.818,-7.663 -5.452,-10.282 -3.635,-2.619 -8.329,-3.927 -14.081,-3.927 -3.892,0 -7.348,0.693 -10.367,2.082 -3.02,1.387 -5.388,3.29 -7.105,5.709 -1.717,2.418 -2.576,5.029 -2.576,7.835 h 11.763 c 0.113,-2.204 0.93,-3.893 2.446,-5.066 1.517,-1.174 3.549,-1.761 6.097,-1.761 2.375,0 4.171,0.452 5.388,1.353 C -0.608,-2.641 0,-1.46 0,0" />
          </g>
        </g>
      </g>
    </g>
  </g>
</svg>
