<?xml version="1.0" encoding="UTF-8" standalone="no"?>
<svg
   xmlns:dc="http://purl.org/dc/elements/1.1/"
   xmlns:cc="http://creativecommons.org/ns#"
   xmlns:rdf="http://www.w3.org/1999/02/22-rdf-syntax-ns#"
   xmlns:svg="http://www.w3.org/2000/svg"
   xmlns="http://www.w3.org/2000/svg"
   xmlns:sodipodi="http://sodipodi.sourceforge.net/DTD/sodipodi-0.dtd"
   xmlns:inkscape="http://www.inkscape.org/namespaces/inkscape"
   width="2279.4102"
   height="691.47003"
   viewBox="0 0 175.74799 53.313999"
   version="1.1"
   id="svg72"
   sodipodi:docname="vb.svg"
   inkscape:version="0.92.3 (2405546, 2018-03-11)">
  <metadata
     id="metadata78">
    <rdf:RDF>
      <cc:Work
         rdf:about="">
        <dc:format>image/svg+xml</dc:format>
        <dc:type
           rdf:resource="http://purl.org/dc/dcmitype/StillImage" />
        <dc:title></dc:title>
      </cc:Work>
    </rdf:RDF>
  </metadata>
  <defs
     id="defs76" />
  <sodipodi:namedview
     pagecolor="#ffffff"
     bordercolor="#666666"
     borderopacity="1"
     objecttolerance="10"
     gridtolerance="10"
     guidetolerance="10"
     inkscape:pageopacity="0"
     inkscape:pageshadow="2"
     inkscape:window-width="1680"
     inkscape:window-height="987"
     id="namedview74"
     showgrid="false"
     inkscape:zoom="0.26700352"
     inkscape:cx="855.61268"
     inkscape:cy="235.39757"
     inkscape:window-x="-8"
     inkscape:window-y="-8"
     inkscape:window-maximized="1"
     inkscape:current-layer="svg72"
     fit-margin-top="0"
     fit-margin-left="0"
     fit-margin-right="0"
     fit-margin-bottom="0" />
  <path
     stroke-miterlimit="2.613"
     d="M 0.19,22.85 H 122.434"
     id="path4"
     inkscape:connector-curvature="0"
     style="fill:none;stroke:#000000;stroke-width:1.375;stroke-miterlimit:2.61299992" />
  <path
     d="M 14.09,40.558 H 9.14 L 3.808,24.373 H 9.14 l 2.475,8.759 0.381,1.522 0.571,-1.522 2.475,-8.759 h 3.999 z"
     id="path6"
     inkscape:connector-curvature="0"
     style="clip-rule:evenodd;fill-rule:evenodd" />
  <path
     d="m 18.851,28.562 h 4.569 v 11.996 h -4.569 z m 0,-4.38 h 4.569 v 3.237 h -4.569 z"
     id="path8"
     inkscape:connector-curvature="0"
     style="clip-rule:evenodd;fill-rule:evenodd" />
  <path
     d="m 26.848,36.558 c 0.38,1.143 1.523,1.334 2.475,1.334 0.571,0 1.904,0 1.904,-0.762 0,-0.572 -1.523,-0.762 -2.095,-0.762 C 26.656,35.987 23.8,35.606 23.8,32.37 c 0,-1.334 0.571,-2.477 1.714,-3.047 1.142,-0.762 2.475,-0.953 3.808,-0.953 2.285,0 4.76,0.762 5.522,3.047 l -3.618,0.762 c -0.381,-0.951 -1.143,-1.143 -2.095,-1.143 -0.381,0 -1.523,0.191 -1.523,0.572 0,0.381 0.571,0.57 0.761,0.762 0.571,0 1.523,0.189 2.095,0.189 0.952,0.191 2.285,0.381 3.237,0.953 1.143,0.57 1.713,1.713 1.713,3.045 0,3.238 -3.618,4.189 -6.283,4.189 -2.666,0 -5.141,-0.951 -5.903,-3.617 z"
     id="path10"
     inkscape:connector-curvature="0"
     style="clip-rule:evenodd;fill-rule:evenodd" />
  <path
     d="m 42.461,40.558 v -2.096 c -0.571,1.523 -2.095,2.285 -3.618,2.285 -0.952,0 -1.904,-0.189 -2.666,-0.951 -0.762,-0.762 -0.952,-1.904 -0.952,-3.047 v -8.187 h 4.569 v 7.234 c 0,0.762 0,1.523 1.143,1.523 0.381,0 0.952,-0.189 1.143,-0.57 0.191,-0.381 0.19,-0.953 0.19,-1.334 v -6.853 h 4.57 v 11.996 z"
     id="path12"
     inkscape:connector-curvature="0"
     style="clip-rule:evenodd;fill-rule:evenodd" />
  <path
     d="m 54.647,35.226 c 0,1.143 -0.19,2.666 -1.904,2.666 -0.762,0 -1.143,-0.381 -1.143,-1.143 0,-1.334 1.904,-1.715 3.046,-1.904 v 0.381 z m 4.761,5.332 c -0.381,-0.953 -0.381,-1.715 -0.381,-2.666 v -4.189 c 0,-1.713 0.19,-3.236 -1.333,-4.379 -1.143,-0.762 -3.047,-0.953 -4.379,-0.953 -2.666,0 -5.522,0.762 -6.284,3.619 l 4.379,0.381 c 0,-0.953 0.762,-1.334 1.714,-1.334 1.143,0 1.523,0.572 1.523,1.523 v 0.191 c -1.713,0 -3.237,0.189 -4.76,0.762 -1.713,0.379 -3.237,1.713 -3.237,3.617 0,2.475 2.094,3.617 4.189,3.617 1.714,0 3.047,-0.57 3.999,-1.904 0,0.572 0,1.143 0.19,1.715 z m 0,-16.185 h 4.57 v 16.185 h -4.57 z m 12.186,12.566 v -2.855 h 1.904 c 0.38,0 0.952,0 1.333,0.189 0.571,0.191 0.952,0.762 0.952,1.143 0,0.572 -0.381,0.953 -0.762,1.143 -0.381,0.381 -0.952,0.381 -1.333,0.381 h -2.094 z m -4.57,3.619 h 7.427 c 1.333,0 3.046,0 4.379,-0.953 1.143,-0.762 1.523,-2.475 1.523,-3.809 0,-1.904 -1.143,-3.236 -3.047,-3.617 1.714,-0.381 2.666,-1.904 2.666,-3.428 0,-1.332 -0.571,-2.666 -1.714,-3.427 -0.952,-0.762 -2.094,-0.952 -3.427,-0.952 h -7.807 z m 4.57,-9.902 V 27.99 h 1.904 c 0.952,0 1.904,0 1.904,1.334 0,0.381 -0.19,0.762 -0.571,0.951 -0.19,0.381 -0.762,0.381 -1.333,0.381 z"
     id="path14"
     inkscape:connector-curvature="0"
     style="clip-rule:evenodd;fill-rule:evenodd" />
  <path
     d="m 88.16,35.226 c 0,1.143 0,2.666 -1.904,2.666 -0.762,0 -1.142,-0.381 -1.142,-1.143 0,-1.334 1.904,-1.715 3.046,-1.904 z m 4.76,5.332 c -0.381,-0.953 -0.381,-1.715 -0.381,-2.666 v -4.189 c 0,-1.713 0.191,-3.236 -1.332,-4.379 -1.143,-0.762 -3.047,-0.953 -4.38,-0.953 -2.666,0 -5.522,0.762 -6.284,3.619 l 4.379,0.381 c 0,-0.953 0.761,-1.334 1.713,-1.334 1.143,0 1.523,0.572 1.523,1.523 v 0.191 c -1.714,0 -3.237,0.189 -4.76,0.762 -1.714,0.379 -3.047,1.713 -3.047,3.617 0,2.475 1.904,3.617 3.999,3.617 1.714,0 3.046,-0.57 3.999,-1.904 0,0.572 0,1.143 0.191,1.715 z"
     id="path16"
     inkscape:connector-curvature="0"
     style="clip-rule:evenodd;fill-rule:evenodd" />
  <path
     d="m 95.967,36.558 c 0.189,1.143 1.523,1.334 2.666,1.334 0.381,0 1.713,0 1.713,-0.762 0,-0.572 -1.713,-0.762 -2.094,-0.762 -2.477,-0.381 -5.332,-0.762 -5.332,-3.998 0,-1.334 0.572,-2.477 1.713,-3.047 1.143,-0.762 2.477,-0.953 3.809,-0.953 2.285,0 4.762,0.762 5.523,3.047 l -3.619,0.762 c -0.381,-0.951 -1.143,-1.143 -2.094,-1.143 -0.381,0 -1.523,0.191 -1.523,0.572 0,0.381 0.57,0.57 0.762,0.762 0.57,0 1.523,0.189 2.094,0.189 0.953,0.191 2.285,0.381 3.236,0.953 a 3.601,3.601 0 0 1 1.715,3.045 c 0,3.238 -3.617,4.189 -6.283,4.189 -2.666,0 -5.141,-0.951 -5.902,-3.617 z"
     id="path18"
     inkscape:connector-curvature="0"
     style="clip-rule:evenodd;fill-rule:evenodd" />
  <path
     d="m 104.344,28.562 h 4.57 v 11.996 h -4.57 z"
     id="path995"
     inkscape:connector-curvature="0" />
  <path
     d="m 104.344,24.182 h 4.57 v 3.237 h -4.57 z"
     id="path993"
     inkscape:connector-curvature="0" />
  <path
     d="m 121.101,35.988 c -0.381,3.047 -2.666,4.76 -5.713,4.76 -1.715,0 -3.047,-0.381 -4.379,-1.713 -1.143,-1.143 -1.715,-2.857 -1.715,-4.57 0,-3.428 2.477,-6.094 6.094,-6.094 3.047,0 5.332,1.715 5.713,4.762 l -4.189,0.189 c -0.191,-0.951 -0.381,-1.713 -1.334,-1.713 -1.523,0 -1.523,1.904 -1.523,2.855 0,1.143 0,3.047 1.523,3.047 1.143,0 1.334,-0.953 1.523,-1.904 z"
     id="path991"
     inkscape:connector-curvature="0" />
  <path
     id="path20"
     d="m 59.598,12.377 h -2.095 v 7.616 H 56.17 V 12.377 H 54.647 V 11.234 H 56.17 C 55.98,9.52 56.741,7.807 58.836,7.997 l 1.143,0.19 V 9.33 C 59.598,9.14 59.217,9.14 58.836,9.14 c -1.333,0 -1.333,1.143 -1.333,2.095 h 2.095 z m -9.52,7.807 c 2.666,0 4.189,-2.095 4.189,-4.57 0,-2.285 -1.333,-4.57 -3.999,-4.57 -2.476,0 -3.998,2.095 -3.998,4.57 0,2.285 1.332,4.57 3.808,4.57 z m 0.19,-1.143 c -0.762,0 -1.523,-0.381 -1.904,-1.143 -0.381,-0.571 -0.572,-1.523 -0.572,-2.285 0,-0.762 0.191,-1.523 0.381,-2.285 0.38,-0.761 1.142,-1.142 2.094,-1.142 0.762,0 1.523,0.381 1.904,0.952 0.381,0.762 0.571,1.713 0.571,2.475 0,0.761 -0.19,1.523 -0.571,2.285 -0.381,0.762 -0.951,1.143 -1.903,1.143 z M 39.225,17.518 c 0.19,1.143 1.523,1.523 2.666,1.523 0.952,0 2.095,-0.381 2.095,-1.333 0,-0.952 -0.952,-1.333 -1.714,-1.333 l -1.333,-0.38 c -1.333,-0.19 -2.666,-0.762 -2.666,-2.285 0,-1.904 1.714,-2.666 3.237,-2.666 1.714,0 3.047,0.571 3.428,2.285 l -1.143,0.19 c -0.381,-0.952 -1.333,-1.333 -2.285,-1.333 -0.762,0 -1.904,0.19 -1.904,1.333 0,0.762 0.952,1.143 1.714,1.143 l 1.143,0.19 c 0.762,0.19 1.333,0.381 1.904,0.762 0.761,0.381 0.952,1.142 0.952,1.904 0,1.904 -1.904,2.666 -3.618,2.666 -1.713,0 -3.237,-0.762 -3.808,-2.476 z m -6.284,2.666 c 2.666,0 3.999,-2.095 3.999,-4.57 0,-2.285 -1.142,-4.57 -3.808,-4.57 -2.476,0 -3.999,2.095 -3.999,4.57 0,2.285 1.142,4.57 3.808,4.57 z m 0.19,-1.143 c -0.762,0 -1.523,-0.381 -1.904,-1.143 -0.381,-0.571 -0.572,-1.523 -0.572,-2.285 0,-0.762 0.19,-1.523 0.381,-2.285 0.381,-0.761 1.143,-1.142 2.095,-1.142 0.762,0 1.523,0.381 1.904,0.952 0.38,0.762 0.571,1.713 0.571,2.475 0,0.761 -0.191,1.523 -0.571,2.285 -0.38,0.762 -1.142,1.143 -1.904,1.143 z m -7.235,-7.807 v 2.094 h 0.19 c 0.38,-1.142 1.142,-2.285 2.475,-2.285 h 0.571 v 1.333 h -0.381 c -0.952,0 -1.713,0.571 -2.285,1.333 -0.19,0.762 -0.38,1.143 -0.38,1.904 v 4.379 h -1.333 v -8.759 h 1.143 z m -2.476,5.903 c -0.19,1.714 -1.333,3.047 -3.237,3.047 -2.666,0 -3.808,-2.285 -3.808,-4.57 0,-2.285 1.142,-4.57 3.808,-4.57 1.904,0 3.046,1.333 3.237,3.046 l -1.143,0.19 c -0.19,-1.142 -0.761,-2.094 -2.094,-2.094 -1.904,0 -2.285,1.904 -2.285,3.427 0,1.333 0.381,3.427 2.285,3.427 1.142,0 1.904,-0.952 2.094,-2.095 z M 13.519,8.188 h 1.523 v 1.523 h -1.523 z m 0.19,3.046 h 1.333 v 8.759 H 13.709 Z M 1.333,19.993 H 0 V 8.188 h 2.285 l 3.427,9.52 3.618,-9.52 h 2.094 V 19.993 H 9.901 V 9.711 L 6.093,19.993 H 5.141 L 1.333,9.711 Z"
     inkscape:connector-curvature="0" />
  <path
     d="m 64.358,20.184 h -1.332 c -1.904,0 -2.476,-1.143 -2.476,-2.856 V 12.377 H 59.027 V 11.234 H 60.55 V 9.139 l 1.333,-0.19 v 2.285 h 2.095 v 1.143 h -2.095 v 5.141 c 0,1.143 0.381,1.523 1.523,1.523 h 0.952 z m 24.564,30.655 v -7.425 h -2.476 v -0.952 h 5.904 v 0.952 h -2.286 v 7.425 z m 6.094,-3.808 c 0,-0.951 0.76,-1.904 1.713,-1.904 1.143,0 1.713,0.953 1.713,1.904 z m 3.425,1.904 c -0.189,0.762 -0.762,1.334 -1.713,1.334 -0.572,0 -1.143,-0.381 -1.523,-0.953 -0.189,-0.57 -0.189,-0.951 -0.189,-1.523 h 4.568 c 0,-1.713 -0.951,-3.428 -2.855,-3.428 -1.904,0 -2.857,1.715 -2.857,3.428 0,1.715 0.953,3.238 2.857,3.238 1.143,0 2.285,-0.762 2.666,-1.904 z m 7.998,-0.189 c -0.191,1.332 -1.143,2.285 -2.475,2.285 -1.904,0 -2.666,-1.715 -2.666,-3.238 0,-1.713 0.951,-3.428 2.666,-3.428 1.332,0 2.283,0.953 2.475,2.285 l -0.953,0.191 c 0,-0.953 -0.57,-1.523 -1.521,-1.523 -1.145,0 -1.523,1.332 -1.523,2.285 0,1.143 0.189,2.666 1.523,2.666 0.951,0 1.332,-0.762 1.521,-1.715 z m 6.092,2.093 v -3.617 c 0,-0.381 0,-0.953 -0.189,-1.334 -0.189,-0.381 -0.57,-0.57 -1.143,-0.57 -0.381,0 -0.951,0.189 -1.143,0.57 -0.57,0.572 -0.57,1.143 -0.57,1.715 v 3.236 h -0.953 v -8.377 h 0.953 v 3.236 c 0.57,-0.762 1.143,-1.334 2.094,-1.334 0.572,0 1.334,0.381 1.523,0.953 0.381,0.57 0.381,1.143 0.381,1.904 v 3.617 h -0.953 z m 4.381,-5.14 h 0.189 c 0.191,-0.762 0.953,-1.334 1.904,-1.334 0.762,0 1.334,0.381 1.715,1.143 0.381,0.381 0.381,1.334 0.381,1.904 v 3.428 h -0.953 v -3.809 c 0,-0.381 0,-0.951 -0.189,-1.143 -0.191,-0.381 -0.762,-0.57 -1.143,-0.57 -0.572,0 -0.953,0.189 -1.334,0.57 -0.381,0.572 -0.381,1.143 -0.381,1.715 v 3.236 h -0.951 v -6.283 h 0.762 z m 9.139,4.57 c -0.57,0 -1.143,-0.381 -1.332,-0.762 -0.381,-0.572 -0.381,-1.334 -0.381,-1.904 0,-0.381 0,-0.953 0.189,-1.523 0.381,-0.572 0.953,-0.762 1.523,-0.762 0.572,0 1.143,0.189 1.334,0.57 0.381,0.572 0.381,1.143 0.381,1.715 0,0.57 0,1.143 -0.191,1.713 -0.381,0.572 -0.951,0.953 -1.523,0.953 z m 0,0.762 c 1.904,0 2.857,-1.523 2.857,-3.238 0,-1.713 -0.953,-3.428 -2.857,-3.428 -1.904,0 -2.855,1.523 -2.855,3.238 -0.001,1.713 0.95,3.428 2.855,3.428 z m 5.142,-8.569 h 1.141 v 8.377 h -1.141 z m 6.283,7.807 c -0.762,0 -1.143,-0.381 -1.523,-0.762 -0.191,-0.572 -0.381,-1.334 -0.381,-1.904 0,-0.381 0.189,-0.953 0.381,-1.523 0.189,-0.572 0.762,-0.762 1.523,-0.762 0.381,0 0.951,0.189 1.332,0.57 0.191,0.572 0.381,1.143 0.381,1.715 0,0.57 -0.189,1.143 -0.381,1.713 -0.189,0.572 -0.761,0.953 -1.332,0.953 z m -0.191,0.762 c 1.904,0 2.857,-1.523 2.857,-3.238 0,-1.713 -0.762,-3.428 -2.666,-3.428 -1.904,0 -2.857,1.523 -2.857,3.238 0,1.713 0.762,3.428 2.666,3.428 z m 7.236,-3.047 a 1.303,1.303 0 0 1 -1.334,-1.334 c 0,-0.951 0.572,-1.523 1.334,-1.523 0.762,0 1.523,0.572 1.523,1.523 10e-4,0.762 -0.571,1.334 -1.523,1.334 z m 1.332,-3.238 c -0.381,-0.189 -0.951,-0.381 -1.332,-0.381 -1.143,0 -2.285,0.762 -2.285,2.285 0,0.572 0.189,1.143 0.762,1.523 -0.572,0.381 -0.953,0.572 -0.953,1.143 0,0.572 0.381,0.762 0.572,0.953 -0.572,0.381 -0.953,0.762 -0.953,1.332 0,0.762 0.572,1.143 1.143,1.334 0.572,0.379 1.334,0.379 1.904,0.379 1.143,0 3.047,-0.189 3.047,-1.902 0,-0.572 -0.381,-1.143 -0.951,-1.334 -0.572,-0.189 -1.334,-0.189 -1.904,-0.189 -0.381,0 -0.953,0 -1.523,-0.191 -0.191,0 -0.381,-0.189 -0.381,-0.57 0,-0.191 0.381,-0.572 0.762,-0.572 0,0 0.189,0.191 0.381,0.191 h 0.381 c 0.57,0 1.143,-0.191 1.713,-0.572 0.381,-0.381 0.762,-0.951 0.762,-1.523 0,-0.57 -0.189,-1.143 -0.762,-1.523 0.191,-0.57 0.572,-0.762 1.143,-0.762 h 0.191 v -0.762 h -0.381 c -0.763,-0.002 -1.144,0.189 -1.336,1.141 z m -0.38,6.093 c 0.572,0 1.334,0 1.334,0.572 0,0.379 -0.191,0.762 -0.572,0.762 -0.381,0.189 -1.143,0.379 -1.523,0.379 -0.57,0 -2.094,-0.189 -2.094,-1.141 0,-0.381 0.381,-0.572 0.762,-0.762 h 1.523 z m 5.902,0.573 c -0.189,0.57 -0.189,0.951 -0.57,1.141 -0.381,0.572 -0.762,0.572 -1.334,0.572 -0.189,0 -0.379,0 -0.762,-0.189 v -0.762 c 0.383,0.189 0.572,0.189 0.762,0.189 0.953,0 1.143,-0.762 1.334,-1.523 l -2.096,-6.283 h 0.953 l 1.713,4.76 1.715,-4.76 h 0.762 z m 0.381,-27.611 v -9.33 l 11.996,5.713 v 10.091 z"
     id="path22"
     inkscape:connector-curvature="0"
     style="clip-rule:evenodd;fill-rule:evenodd" />
  <path
     d="m 152.709,23.04 v -7.426 l 10.662,5.141 v 7.997 z"
     id="path24"
     inkscape:connector-curvature="0"
     style="clip-rule:evenodd;fill:#7e3d8f;fill-rule:evenodd" />
  <path
     d="m 151.756,14.471 11.426,-4.95 11.615,5.522 -10.473,5.522 z"
     id="path26"
     inkscape:connector-curvature="0"
     style="clip-rule:evenodd;fill-rule:evenodd" />
  <path
     d="m 153.66,14.662 9.33,-3.999 9.902,4.57 -8.949,4.57 z"
     id="path28"
     inkscape:connector-curvature="0"
     style="clip-rule:evenodd;fill:#7e3d8f;fill-rule:evenodd" />
  <path
     d="m 163.562,20.374 0.19,9.901 11.234,-5.522 -0.189,-9.71 z"
     id="path30"
     inkscape:connector-curvature="0"
     style="clip-rule:evenodd;fill-rule:evenodd" />
  <path
     d="m 164.705,20.755 v 7.997 l 9.139,-4.57 v -8.187 z"
     id="path32"
     inkscape:connector-curvature="0"
     style="clip-rule:evenodd;fill:#7e3d8f;fill-rule:evenodd" />
  <path
     d="M 134.619,14.09 V 4.76 l 11.996,5.713 v 10.092 z"
     id="path34"
     inkscape:connector-curvature="0"
     style="clip-rule:evenodd;fill-rule:evenodd" />
  <path
     d="M 135.572,13.329 V 5.903 l 10.662,5.141 v 8.188 z"
     id="path36"
     inkscape:connector-curvature="0"
     style="clip-rule:evenodd;fill:#6284c2;fill-rule:evenodd" />
  <path
     d="M 134.619,4.76 146.045,0 157.66,5.332 147.187,10.854 Z"
     id="path38"
     inkscape:connector-curvature="0"
     style="clip-rule:evenodd;fill-rule:evenodd" />
  <path
     d="m 136.523,4.951 9.33,-3.999 9.903,4.57 -8.949,4.57 z"
     id="path40"
     inkscape:connector-curvature="0"
     style="clip-rule:evenodd;fill:#6284c2;fill-rule:evenodd" />
  <path
     d="m 146.426,10.663 0.189,9.902 11.235,-5.522 -0.19,-9.711 z"
     id="path42"
     inkscape:connector-curvature="0"
     style="clip-rule:evenodd;fill-rule:evenodd" />
  <path
     d="m 147.568,11.044 v 7.997 l 9.139,-4.57 V 6.474 Z"
     id="path44"
     inkscape:connector-curvature="0"
     style="clip-rule:evenodd;fill:#6284c2;fill-rule:evenodd" />
  <path
     d="M 118.244,23.23 V 13.9 l 11.807,5.712 0.189,10.093 z"
     id="path46"
     inkscape:connector-curvature="0"
     style="clip-rule:evenodd;fill-rule:evenodd" />
  <path
     d="m 119.197,22.468 v -7.425 l 10.662,5.141 v 7.997 z"
     id="path48"
     inkscape:connector-curvature="0"
     style="clip-rule:evenodd;fill:#c5773e;fill-rule:evenodd" />
  <path
     d="m 118.244,13.9 11.426,-4.951 11.613,5.522 -10.662,5.522 z"
     id="path50"
     inkscape:connector-curvature="0"
     style="clip-rule:evenodd;fill-rule:evenodd" />
  <path
     d="m 119.959,14.09 9.519,-3.998 9.903,4.57 -8.949,4.57 z"
     id="path52"
     inkscape:connector-curvature="0"
     style="clip-rule:evenodd;fill:#c5773e;fill-rule:evenodd" />
  <path
     d="m 130.051,19.803 0.189,9.902 11.235,-5.523 -0.192,-9.711 z"
     id="path54"
     inkscape:connector-curvature="0"
     style="clip-rule:evenodd;fill-rule:evenodd" />
  <path
     d="m 131.002,20.184 0.191,7.997 9.139,-4.57 -0.19,-8.188 z"
     id="path56"
     inkscape:connector-curvature="0"
     style="clip-rule:evenodd;fill:#c5773e;fill-rule:evenodd" />
  <path
     d="m 135.572,24.563 v -9.33 l 11.805,5.712 0.191,10.283 z"
     id="path58"
     inkscape:connector-curvature="0"
     style="clip-rule:evenodd;fill-rule:evenodd" />
  <path
     d="m 136.523,23.992 v -7.617 l 10.664,5.141 v 8.189 z"
     id="path60"
     inkscape:connector-curvature="0"
     style="clip-rule:evenodd;fill:#dfcb38;fill-rule:evenodd" />
  <path
     d="m 135.572,15.233 11.424,-4.76 11.615,5.331 -10.662,5.522 z"
     id="path62"
     inkscape:connector-curvature="0"
     style="clip-rule:evenodd;fill-rule:evenodd" />
  <path
     d="m 137.285,15.614 9.522,-3.999 9.9,4.57 -9.139,4.38 z"
     id="path64"
     inkscape:connector-curvature="0"
     style="clip-rule:evenodd;fill:#dfcb38;fill-rule:evenodd" />
  <path
     d="m 147.377,21.136 0.191,10.092 11.043,-5.713 v -9.711 z"
     id="path66"
     inkscape:connector-curvature="0"
     style="clip-rule:evenodd;fill-rule:evenodd" />
  <path
     d="m 148.33,21.516 0.189,7.997 9.141,-4.379 -0.191,-8.188 z"
     id="path68"
     inkscape:connector-curvature="0"
     style="clip-rule:evenodd;fill:#dfcb38;fill-rule:evenodd" />
  <path
     d="m 66.643,9.521 c 0.762,0 1.523,0.571 1.523,1.523 0,0.762 -0.761,1.333 -1.523,1.333 -0.952,0 -1.523,-0.571 -1.523,-1.333 0,-0.952 0.571,-1.523 1.523,-1.523 z m 0,3.236 c 0.952,0 1.713,-0.761 1.713,-1.713 0,-1.143 -0.761,-1.904 -1.713,-1.904 -1.143,0 -1.904,0.762 -1.904,1.904 10e-4,0.952 0.762,1.713 1.904,1.713 z m 0.191,-1.713 c 0.38,0 0.762,-0.19 0.762,-0.571 a 0.41,0.41 0 0 0 -0.381,-0.381 c 0,-0.19 -0.19,-0.19 -0.38,-0.19 h -0.952 v 2.095 h 0.38 v -0.952 h 0.381 l 0.571,0.952 h 0.191 z m -0.572,-0.19 v -0.572 h 0.572 c 0.19,0 0.38,0 0.38,0.19 0,0.381 -0.38,0.381 -0.761,0.381 h -0.191 z m 58.076,18.278 c 0.762,0 1.332,0.572 1.332,1.334 0,0.762 -0.57,1.523 -1.332,1.523 -0.953,0 -1.523,-0.762 -1.523,-1.523 0,-0.761 0.57,-1.334 1.523,-1.334 z m 0,3.239 c 0.951,0 1.713,-0.953 1.713,-1.904 0,-0.953 -0.762,-1.715 -1.713,-1.715 -1.143,0 -1.904,0.762 -1.904,1.715 0,0.951 0.761,1.904 1.904,1.904 z m 0.189,-1.715 c 0.381,0 0.572,-0.189 0.572,-0.57 0,-0.191 0,-0.381 -0.191,-0.572 h -1.332 v 1.904 h 0.189 v -0.762 h 0.381 l 0.572,0.762 h 0.381 z m -0.761,-0.381 v -0.57 h 0.572 c 0.381,0 0.57,0 0.57,0.381 0,0.381 -0.381,0.189 -0.762,0.189 z m 48.365,-0.951 V 27.42 h -0.573 v -0.192 h 1.524 v 0.192 h -0.762 v 1.904 z m 1.713,0 h -0.19 v -2.096 h 0.381 l 0.57,1.715 0.762,-1.715 h 0.381 v 2.096 h -0.381 V 27.42 l -0.57,1.904 h -0.192 l -0.761,-1.904 z"
     id="path70"
     inkscape:connector-curvature="0"
     style="clip-rule:evenodd;fill-rule:evenodd" />
</svg>
